# This file uses centimeters as units for non-parametric coordinates.

mtllib platform8.mtl
g default
v -18.312395 -0.000014 18.312402
v 18.312395 -0.000014 18.312402
v -18.312395 1.845574 18.312402
v 18.312395 1.845574 18.312402
v -18.312395 1.845574 -18.312402
v 18.312395 1.845574 -18.312400
v -18.312395 -0.000014 -18.312402
v 18.312395 -0.000014 -18.312400
vt 0.639743 0.797166
vt 0.779452 0.797166
vt 0.779452 0.797166
vt 0.639743 0.797166
vt 0.779452 0.936876
vt 0.639743 0.936876
vt 0.779452 0.936876
vt 0.639743 0.936876
vn 0.000000 0.000000 1.000000
vn 0.000000 0.000000 1.000000
vn 0.000000 0.000000 1.000000
vn 0.000000 0.000000 1.000000
vn 0.000000 1.000000 0.000000
vn 0.000000 1.000000 0.000000
vn 0.000000 1.000000 0.000000
vn 0.000000 1.000000 0.000000
vn 0.000000 0.000000 -1.000000
vn 0.000000 0.000000 -1.000000
vn 0.000000 0.000000 -1.000000
vn 0.000000 0.000000 -1.000000
vn 0.000000 -1.000000 0.000000
vn 0.000000 -1.000000 0.000000
vn 0.000000 -1.000000 0.000000
vn 0.000000 -1.000000 0.000000
vn 1.000000 0.000000 0.000000
vn 1.000000 0.000000 0.000000
vn 1.000000 0.000000 0.000000
vn 1.000000 0.000000 0.000000
vn -1.000000 0.000000 0.000000
vn -1.000000 0.000000 0.000000
vn -1.000000 0.000000 0.000000
vn -1.000000 0.000000 0.000000
s off
g platform8
usemtl lambert20SG
f 1/1/1 2/2/2 4/3/3 3/4/4
f 3/4/5 4/3/6 6/5/7 5/6/8
f 5/6/9 6/5/10 8/7/11 7/8/12
f 7/8/13 8/7/14 2/2/15 1/1/16
f 2/2/17 8/7/18 6/5/19 4/3/20
f 7/8/21 1/1/22 3/4/23 5/6/24
