# This file uses centimeters as units for non-parametric coordinates.

mtllib air_conditioning.mtl
g default
v -6.783708 0.000088 2.620168
v 6.783708 0.000088 2.620168
v -6.783708 6.932143 2.620168
v 6.783708 6.932143 2.620168
v -6.783708 6.932143 -2.620168
v 6.783708 6.932143 -2.620168
v -6.783708 0.000088 -2.620168
v 6.783708 0.000088 -2.620168
vt 0.867610 0.578467
vt 0.867610 0.461460
vt 0.927393 0.461460
vt 0.927393 0.578467
vt 0.928858 0.578467
vt 0.928858 0.461460
vt 0.987643 0.461460
vt 0.987643 0.578467
vt 0.866844 0.455184
vt 0.866844 0.338177
vt 0.926627 0.338177
vt 0.926627 0.455184
vt 0.931477 0.455223
vt 0.931477 0.338216
vt 0.990261 0.338216
vt 0.990261 0.455223
vt 0.931016 0.587035
vt 0.989800 0.587035
vt 0.989800 0.646817
vt 0.931016 0.646817
vt 0.870864 0.587035
vt 0.929649 0.587035
vt 0.929649 0.646817
vt 0.870864 0.646817
vn 0.000000 0.000000 1.000000
vn 0.000000 0.000000 1.000000
vn 0.000000 0.000000 1.000000
vn 0.000000 0.000000 1.000000
vn 0.000000 1.000000 0.000000
vn 0.000000 1.000000 0.000000
vn 0.000000 1.000000 0.000000
vn 0.000000 1.000000 0.000000
vn 0.000000 0.000000 -1.000000
vn 0.000000 0.000000 -1.000000
vn 0.000000 0.000000 -1.000000
vn 0.000000 0.000000 -1.000000
vn 0.000000 -1.000000 0.000000
vn 0.000000 -1.000000 0.000000
vn 0.000000 -1.000000 0.000000
vn 0.000000 -1.000000 0.000000
vn 1.000000 0.000000 0.000000
vn 1.000000 0.000000 0.000000
vn 1.000000 0.000000 0.000000
vn 1.000000 0.000000 0.000000
vn -1.000000 0.000000 0.000000
vn -1.000000 0.000000 0.000000
vn -1.000000 0.000000 0.000000
vn -1.000000 0.000000 0.000000
s off
g air_conditioning
usemtl lambert14SG
f 1/1/1 2/2/2 4/3/3 3/4/4
f 3/5/5 4/6/6 6/7/7 5/8/8
f 5/9/9 6/10/10 8/11/11 7/12/12
f 7/13/13 8/14/14 2/15/15 1/16/16
f 2/17/17 8/18/18 6/19/19 4/20/20
f 7/21/21 1/22/22 3/23/23 5/24/24
