# This file uses centimeters as units for non-parametric coordinates.

mtllib Ashcan_C.mtl
g default
v 1.515038 0.000000 -1.515038
v 0.000000 0.000000 -2.142585
v -1.515038 0.000000 -1.515038
v -2.142578 0.000000 0.000000
v -1.515038 0.000000 1.515037
v 0.000000 0.000000 2.142585
v 1.515038 0.000000 1.515037
v 2.142578 0.000000 0.000000
v 2.149506 7.125405 -2.149499
v 0.000000 7.125405 -3.039852
v -2.149506 7.125405 -2.149499
v -3.039841 7.125405 0.000000
v -2.149506 7.125405 2.149499
v 0.000000 7.125405 3.039851
v 2.149506 7.125405 2.149501
v 3.039841 7.125405 0.000000
v 0.000000 0.000000 0.000000
v 1.441940 0.067283 -1.441948
v 0.000000 0.067283 -2.039223
v 0.000000 7.115755 -2.721930
v 1.924705 7.115755 -1.924694
v -1.441940 0.067283 -1.441948
v -1.924705 7.115755 -1.924694
v -2.039219 0.067283 0.000000
v -2.721924 7.115755 0.000000
v -1.441940 0.067283 1.441948
v -1.924705 7.115755 1.924694
v 0.000000 0.067283 2.039222
v 0.000000 7.115755 2.721931
v 1.441940 0.067283 1.441948
v 1.924705 7.115755 1.924696
v 2.039229 0.067283 0.000000
v 2.721924 7.115755 0.000000
v 0.000000 0.369890 0.000000
vt 0.752221 0.230660
vt 0.752221 0.256023
vt 0.808206 0.256023
vt 0.760219 0.230660
vt 0.760219 0.256023
vt 0.768217 0.230660
vt 0.768217 0.256023
vt 0.776215 0.230660
vt 0.776214 0.256023
vt 0.784212 0.230660
vt 0.784212 0.256023
vt 0.792210 0.230660
vt 0.792210 0.256023
vt 0.800208 0.230660
vt 0.800208 0.256023
vt 0.829883 0.255152
vt 0.808206 0.230418
vt 0.752221 0.256058
vt 0.752221 0.230418
vt 0.760219 0.256058
vt 0.760219 0.230418
vt 0.768217 0.256058
vt 0.768217 0.230418
vt 0.776214 0.256058
vt 0.776215 0.230418
vt 0.784212 0.256058
vt 0.784212 0.230418
vt 0.792210 0.256058
vt 0.792210 0.230418
vt 0.800208 0.256058
vt 0.800208 0.230418
vt 0.837879 0.251840
vt 0.816203 0.230660
vt 0.808206 0.230660
vt 0.816203 0.256058
vt 0.816203 0.230418
vt 0.808206 0.256058
vt 0.816203 0.256023
vt 0.829883 0.243843
vt 0.821886 0.251840
vt 0.818573 0.243843
vt 0.821886 0.235846
vt 0.829883 0.232534
vt 0.837879 0.235846
vt 0.841192 0.243843
vt 0.829883 0.255725
vt 0.829883 0.243843
vt 0.838285 0.252245
vt 0.821480 0.252245
vt 0.818000 0.243843
vt 0.821480 0.235441
vt 0.829883 0.231960
vt 0.838285 0.235441
vt 0.841765 0.243843
vn -0.694604 0.187216 0.694605
vn -0.703813 0.096408 0.703813
vn 0.000000 0.096408 0.995342
vn 0.000000 0.187215 0.982319
vn 0.703814 0.096409 0.703812
vn 0.694605 0.187216 0.694604
vn 0.995342 0.096409 0.000000
vn 0.982319 0.187216 0.000000
vn 0.703814 0.096409 -0.703812
vn 0.694605 0.187216 -0.694604
vn 0.000000 0.096408 -0.995342
vn 0.000000 0.187215 -0.982319
vn -0.703813 0.096408 -0.703813
vn -0.694604 0.187216 -0.694605
vn -0.995342 0.096408 0.000000
vn -0.982319 0.187215 0.000000
vn 0.000000 1.000000 -0.000000
vn 0.691110 -0.211512 -0.691108
vn 0.000000 -0.211512 -0.977375
vn 0.000000 -0.124938 -0.992164
vn 0.701567 -0.124939 -0.701565
vn -0.691110 -0.211512 -0.691108
vn -0.701567 -0.124939 -0.701565
vn -0.977375 -0.211512 -0.000000
vn -0.992164 -0.124938 -0.000000
vn -0.691110 -0.211512 0.691108
vn -0.701567 -0.124939 0.701565
vn -0.000000 -0.211512 0.977375
vn -0.000000 -0.124938 0.992164
vn 0.691110 -0.211512 0.691108
vn 0.701567 -0.124939 0.701565
vn 0.977375 -0.211512 0.000000
vn 0.992164 -0.124938 0.000000
vn 0.000000 -1.000000 -0.000000
vn -0.012566 0.999461 0.030339
vn -0.012566 0.999461 0.030339
vn -0.012566 0.999461 0.030339
vn -0.012566 0.999461 0.030339
vn 0.012566 0.999461 0.030339
vn 0.012566 0.999461 0.030339
vn 0.012566 0.999461 0.030339
vn 0.012566 0.999461 0.030339
vn 0.030338 0.999461 0.012566
vn 0.030338 0.999461 0.012566
vn 0.030338 0.999461 0.012566
vn 0.030338 0.999461 0.012566
vn 0.030338 0.999461 -0.012566
vn 0.030338 0.999461 -0.012566
vn 0.030338 0.999461 -0.012566
vn 0.030338 0.999461 -0.012566
vn 0.012566 0.999461 -0.030339
vn 0.012566 0.999461 -0.030339
vn 0.012566 0.999461 -0.030339
vn 0.012566 0.999461 -0.030339
vn -0.012566 0.999461 -0.030339
vn -0.012566 0.999461 -0.030339
vn -0.012566 0.999461 -0.030339
vn -0.012566 0.999461 -0.030339
vn -0.030338 0.999461 -0.012566
vn -0.030338 0.999461 -0.012566
vn -0.030338 0.999461 -0.012566
vn -0.030338 0.999461 -0.012566
vn -0.030338 0.999461 0.012566
vn -0.030338 0.999461 0.012566
vn -0.030338 0.999461 0.012566
vn -0.030338 0.999461 0.012566
s 1
g Ashcan_C
usemtl lambert14SG
f 18/34/1 21/3/2 20/38/3 19/33/4
f 19/1/4 20/2/3 23/5/5 22/4/6
f 22/4/6 23/5/5 25/7/7 24/6/8
f 24/6/8 25/7/7 27/9/9 26/8/10
f 26/8/10 27/9/9 29/11/11 28/10/12
f 28/10/12 29/11/11 31/13/13 30/12/14
f 30/12/14 31/13/13 33/15/15 32/14/16
f 32/14/16 33/15/15 21/3/2 18/34/1
f 19/16/4 34/39/17 18/32/1
f 22/40/6 34/39/17 19/16/4
f 24/41/8 34/39/17 22/40/6
f 26/42/10 34/39/17 24/41/8
f 28/43/12 34/39/17 26/42/10
f 30/44/14 34/39/17 28/43/12
f 32/45/16 34/39/17 30/44/14
f 18/32/1 34/39/17 32/45/16
s 2
f 1/17/18 2/36/19 10/35/20 9/37/21
f 2/19/19 3/21/22 11/20/23 10/18/20
f 3/21/22 4/23/24 12/22/25 11/20/23
f 4/23/24 5/25/26 13/24/27 12/22/25
f 5/25/26 6/27/28 14/26/29 13/24/27
f 6/27/28 7/29/30 15/28/31 14/26/29
f 7/29/30 8/31/32 16/30/33 15/28/31
f 8/31/32 1/17/18 9/37/21 16/30/33
f 2/46/19 1/48/18 17/47/34
f 3/49/22 2/46/19 17/47/34
f 4/50/24 3/49/22 17/47/34
f 5/51/26 4/50/24 17/47/34
f 6/52/28 5/51/26 17/47/34
f 7/53/30 6/52/28 17/47/34
f 8/54/32 7/53/30 17/47/34
f 1/48/18 8/54/32 17/47/34
s off
f 10/35/35 20/38/36 21/3/37 9/37/38
f 11/20/39 23/5/40 20/2/41 10/18/42
f 12/22/43 25/7/44 23/5/45 11/20/46
f 13/24/47 27/9/48 25/7/49 12/22/50
f 14/26/51 29/11/52 27/9/53 13/24/54
f 15/28/55 31/13/56 29/11/57 14/26/58
f 16/30/59 33/15/60 31/13/61 15/28/62
f 9/37/63 21/3/64 33/15/65 16/30/66
