# This file uses centimeters as units for non-parametric coordinates.

mtllib box.mtl
g default
v 3.469929 6.938686 3.469930
v -3.469929 6.938686 3.469930
v 3.469929 -0.001173 3.469930
v -3.469929 -0.001173 3.469930
v 3.469929 -0.001173 -3.469930
v -3.469929 -0.001173 -3.469930
v 3.469929 6.938686 -3.469930
v -3.469929 6.938686 -3.469930
vt 0.849531 0.397084
vt 0.849531 0.467308
vt 0.779306 0.397083
vt 0.779306 0.467308
vt 0.709081 0.397084
vt 0.709081 0.467308
vt 0.638856 0.397083
vt 0.638856 0.467308
vt 0.568632 0.397084
vt 0.568632 0.467308
vt 0.849531 0.537533
vt 0.779306 0.537533
vt 0.849530 0.326859
vt 0.779306 0.326859
vn 0.000000 0.000000 1.000000
vn 0.000000 0.000000 1.000000
vn 0.000000 0.000000 1.000000
vn 0.000000 0.000000 1.000000
vn 0.000000 -1.000000 0.000000
vn 0.000000 -1.000000 0.000000
vn 0.000000 -1.000000 0.000000
vn 0.000000 -1.000000 0.000000
vn 0.000000 0.000000 -1.000000
vn 0.000000 0.000000 -1.000000
vn 0.000000 0.000000 -1.000000
vn 0.000000 0.000000 -1.000000
vn 0.000000 1.000000 0.000000
vn 0.000000 1.000000 0.000000
vn 0.000000 1.000000 0.000000
vn 0.000000 1.000000 0.000000
vn -1.000000 0.000000 0.000000
vn -1.000000 0.000000 0.000000
vn -1.000000 0.000000 0.000000
vn -1.000000 0.000000 0.000000
vn 1.000000 0.000000 0.000000
vn 1.000000 0.000000 0.000000
vn 1.000000 0.000000 0.000000
vn 1.000000 0.000000 0.000000
s off
g Box
usemtl lambert14SG
f 1/1/1 2/2/2 4/4/3 3/3/4
f 3/3/5 4/4/6 6/6/7 5/5/8
f 5/5/9 6/6/10 8/8/11 7/7/12
f 7/7/13 8/8/14 2/10/15 1/9/16
f 2/2/17 8/11/18 6/12/19 4/4/20
f 7/13/21 1/1/22 3/3/23 5/14/24
