# This file uses centimeters as units for non-parametric coordinates.

mtllib Manhole_cover_A.mtl
g default
v 6.243240 0.002639 -2.586028
v 4.778366 0.002639 -4.778360
v 2.586029 0.002639 -6.243231
v 0.000000 0.002639 -6.757625
v -2.586029 0.002639 -6.243233
v -4.778366 0.002639 -4.778365
v -6.243225 0.002639 -2.586034
v -6.757629 0.002639 -0.000003
v -6.243225 0.002639 2.586029
v -4.778366 0.002639 4.778362
v -2.586029 0.002639 6.243231
v 0.000000 0.002639 6.757625
v 2.586029 0.002639 6.243232
v 4.778366 0.002639 4.778363
v 6.243225 0.002639 2.586031
v 6.757629 0.002639 -0.000000
v 6.243240 1.127145 -2.586028
v 4.778366 1.127145 -4.778360
v 2.586029 1.127145 -6.243231
v 0.000000 1.127145 -6.757625
v -2.586029 1.127145 -6.243233
v -4.778366 1.127145 -4.778365
v -6.243225 1.127145 -2.586034
v -6.757629 1.127145 -0.000003
v -6.243225 1.127145 2.586029
v -4.778366 1.127145 4.778362
v -2.586029 1.127145 6.243231
v 0.000000 1.127145 6.757625
v 2.586029 1.127145 6.243232
v 4.778366 1.127145 4.778363
v 6.243225 1.127145 2.586031
v 6.757629 1.127145 -0.000000
v 0.000000 0.002639 -0.000000
v 0.000000 1.127145 -0.000000
vt 0.957573 0.074502
vt 0.949391 0.086648
vt 0.949391 0.086648
vt 0.957573 0.074502
vt 0.937145 0.094764
vt 0.937145 0.094764
vt 0.922700 0.097614
vt 0.922700 0.097614
vt 0.908255 0.094765
vt 0.908255 0.094765
vt 0.896009 0.086648
vt 0.896009 0.086648
vt 0.887827 0.074502
vt 0.887827 0.074502
vt 0.884954 0.060174
vt 0.884954 0.060174
vt 0.887827 0.045846
vt 0.887827 0.045846
vt 0.896009 0.033700
vt 0.896009 0.033700
vt 0.908255 0.025584
vt 0.908255 0.025584
vt 0.922700 0.022734
vt 0.922700 0.022734
vt 0.937145 0.025584
vt 0.937145 0.025584
vt 0.949391 0.033700
vt 0.949391 0.033700
vt 0.957573 0.045846
vt 0.957573 0.045846
vt 0.960447 0.060174
vt 0.960447 0.060174
vt 0.922700 0.060174
vt 0.922700 0.060174
vn 0.831469 0.000000 -0.555571
vn 0.831469 0.000000 -0.555571
vn 0.831469 0.000000 -0.555571
vn 0.831469 0.000000 -0.555571
vn 0.555570 0.000000 -0.831470
vn 0.555570 0.000000 -0.831470
vn 0.555570 0.000000 -0.831470
vn 0.555570 0.000000 -0.831470
vn 0.195091 0.000000 -0.980785
vn 0.195091 0.000000 -0.980785
vn 0.195091 0.000000 -0.980785
vn 0.195091 0.000000 -0.980785
vn -0.195090 0.000000 -0.980785
vn -0.195090 0.000000 -0.980785
vn -0.195090 0.000000 -0.980785
vn -0.195090 0.000000 -0.980785
vn -0.555569 0.000000 -0.831470
vn -0.555569 0.000000 -0.831470
vn -0.555569 0.000000 -0.831470
vn -0.555569 0.000000 -0.831470
vn -0.831471 0.000000 -0.555568
vn -0.831471 0.000000 -0.555568
vn -0.831471 0.000000 -0.555568
vn -0.831471 0.000000 -0.555568
vn -0.980785 0.000000 -0.195094
vn -0.980785 0.000000 -0.195094
vn -0.980785 0.000000 -0.195094
vn -0.980785 0.000000 -0.195094
vn -0.980785 0.000000 0.195094
vn -0.980785 0.000000 0.195094
vn -0.980785 0.000000 0.195094
vn -0.980785 0.000000 0.195094
vn -0.831472 0.000000 0.555567
vn -0.831472 0.000000 0.555567
vn -0.831472 0.000000 0.555567
vn -0.831472 0.000000 0.555567
vn -0.555569 0.000000 0.831470
vn -0.555569 0.000000 0.831470
vn -0.555569 0.000000 0.831470
vn -0.555569 0.000000 0.831470
vn -0.195091 0.000000 0.980785
vn -0.195091 0.000000 0.980785
vn -0.195091 0.000000 0.980785
vn -0.195091 0.000000 0.980785
vn 0.195090 0.000000 0.980785
vn 0.195090 0.000000 0.980785
vn 0.195090 0.000000 0.980785
vn 0.195090 0.000000 0.980785
vn 0.555569 0.000000 0.831470
vn 0.555569 0.000000 0.831470
vn 0.555569 0.000000 0.831470
vn 0.555569 0.000000 0.831470
vn 0.831471 0.000000 0.555568
vn 0.831471 0.000000 0.555568
vn 0.831471 0.000000 0.555568
vn 0.831471 0.000000 0.555568
vn 0.980785 0.000000 0.195094
vn 0.980785 0.000000 0.195094
vn 0.980785 0.000000 0.195094
vn 0.980785 0.000000 0.195094
vn 0.980786 0.000000 -0.195089
vn 0.980786 0.000000 -0.195089
vn 0.980786 0.000000 -0.195089
vn 0.980786 0.000000 -0.195089
vn 0.000000 -1.000000 0.000000
vn 0.000000 -1.000000 0.000000
vn 0.000000 -1.000000 0.000000
vn 0.000000 -1.000000 0.000000
vn 0.000000 -1.000000 0.000000
vn 0.000000 -1.000000 0.000000
vn 0.000000 -1.000000 0.000000
vn 0.000000 -1.000000 0.000000
vn 0.000000 -1.000000 0.000000
vn 0.000000 -1.000000 0.000000
vn 0.000000 -1.000000 0.000000
vn 0.000000 -1.000000 0.000000
vn 0.000000 -1.000000 0.000000
vn 0.000000 -1.000000 0.000000
vn 0.000000 -1.000000 0.000000
vn 0.000000 -1.000000 0.000000
vn 0.000000 -1.000000 0.000000
vn 0.000000 -1.000000 0.000000
vn 0.000000 -1.000000 0.000000
vn 0.000000 -1.000000 0.000000
vn 0.000000 -1.000000 0.000000
vn 0.000000 -1.000000 0.000000
vn 0.000000 -1.000000 0.000000
vn 0.000000 -1.000000 0.000000
vn 0.000000 -1.000000 0.000000
vn 0.000000 -1.000000 0.000000
vn 0.000000 -1.000000 0.000000
vn 0.000000 -1.000000 0.000000
vn 0.000000 -1.000000 0.000000
vn 0.000000 -1.000000 0.000000
vn 0.000000 -1.000000 0.000000
vn 0.000000 -1.000000 0.000000
vn 0.000000 -1.000000 0.000000
vn 0.000000 -1.000000 0.000000
vn 0.000000 -1.000000 0.000000
vn 0.000000 -1.000000 0.000000
vn 0.000000 -1.000000 0.000000
vn 0.000000 -1.000000 0.000000
vn 0.000000 -1.000000 0.000000
vn 0.000000 -1.000000 0.000000
vn 0.000000 -1.000000 0.000000
vn 0.000000 -1.000000 0.000000
vn 0.000000 -1.000000 0.000000
vn 0.000000 -1.000000 0.000000
vn 0.000000 -1.000000 0.000000
vn 0.000000 -1.000000 0.000000
vn 0.000000 -1.000000 0.000000
vn 0.000000 -1.000000 0.000000
vn 0.000000 1.000000 -0.000000
vn 0.000000 1.000000 -0.000000
vn 0.000000 1.000000 -0.000000
vn 0.000000 1.000000 0.000000
vn 0.000000 1.000000 0.000000
vn 0.000000 1.000000 0.000000
vn 0.000000 1.000000 0.000000
vn 0.000000 1.000000 0.000000
vn 0.000000 1.000000 0.000000
vn 0.000000 1.000000 0.000000
vn 0.000000 1.000000 0.000000
vn 0.000000 1.000000 0.000000
vn 0.000000 1.000000 0.000000
vn 0.000000 1.000000 0.000000
vn 0.000000 1.000000 0.000000
vn 0.000000 1.000000 0.000000
vn 0.000000 1.000000 0.000000
vn 0.000000 1.000000 0.000000
vn 0.000000 1.000000 0.000000
vn 0.000000 1.000000 0.000000
vn 0.000000 1.000000 0.000000
vn 0.000000 1.000000 0.000000
vn 0.000000 1.000000 0.000000
vn 0.000000 1.000000 0.000000
vn 0.000000 1.000000 0.000000
vn 0.000000 1.000000 0.000000
vn 0.000000 1.000000 0.000000
vn 0.000000 1.000000 0.000000
vn 0.000000 1.000000 0.000000
vn 0.000000 1.000000 0.000000
vn 0.000000 1.000000 0.000000
vn 0.000000 1.000000 0.000000
vn 0.000000 1.000000 0.000000
vn 0.000000 1.000000 0.000000
vn 0.000000 1.000000 0.000000
vn 0.000000 1.000000 0.000000
vn 0.000000 1.000000 -0.000000
vn 0.000000 1.000000 -0.000000
vn 0.000000 1.000000 -0.000000
vn 0.000000 1.000000 0.000000
vn 0.000000 1.000000 0.000000
vn 0.000000 1.000000 0.000000
vn 0.000000 1.000000 0.000000
vn 0.000000 1.000000 0.000000
vn 0.000000 1.000000 0.000000
vn 0.000000 1.000000 0.000000
vn 0.000000 1.000000 0.000000
vn 0.000000 1.000000 0.000000
s off
g Manhole_cover_A
usemtl lambert14SG
f 1/1/1 2/2/2 18/3/3 17/4/4
f 2/2/5 3/5/6 19/6/7 18/3/8
f 3/5/9 4/7/10 20/8/11 19/6/12
f 4/7/13 5/9/14 21/10/15 20/8/16
f 5/9/17 6/11/18 22/12/19 21/10/20
f 6/11/21 7/13/22 23/14/23 22/12/24
f 7/13/25 8/15/26 24/16/27 23/14/28
f 8/15/29 9/17/30 25/18/31 24/16/32
f 9/17/33 10/19/34 26/20/35 25/18/36
f 10/19/37 11/21/38 27/22/39 26/20/40
f 11/21/41 12/23/42 28/24/43 27/22/44
f 12/23/45 13/25/46 29/26/47 28/24/48
f 13/25/49 14/27/50 30/28/51 29/26/52
f 14/27/53 15/29/54 31/30/55 30/28/56
f 15/29/57 16/31/58 32/32/59 31/30/60
f 16/31/61 1/1/62 17/4/63 32/32/64
f 2/2/65 1/1/66 33/33/67
f 3/5/68 2/2/69 33/33/70
f 4/7/71 3/5/72 33/33/73
f 5/9/74 4/7/75 33/33/76
f 6/11/77 5/9/78 33/33/79
f 7/13/80 6/11/81 33/33/82
f 8/15/83 7/13/84 33/33/85
f 9/17/86 8/15/87 33/33/88
f 10/19/89 9/17/90 33/33/91
f 11/21/92 10/19/93 33/33/94
f 12/23/95 11/21/96 33/33/97
f 13/25/98 12/23/99 33/33/100
f 14/27/101 13/25/102 33/33/103
f 15/29/104 14/27/105 33/33/106
f 16/31/107 15/29/108 33/33/109
f 1/1/110 16/31/111 33/33/112
f 17/4/113 18/3/114 34/34/115
f 18/3/116 19/6/117 34/34/118
f 19/6/119 20/8/120 34/34/121
f 20/8/122 21/10/123 34/34/124
f 21/10/125 22/12/126 34/34/127
f 22/12/128 23/14/129 34/34/130
f 23/14/131 24/16/132 34/34/133
f 24/16/134 25/18/135 34/34/136
f 25/18/137 26/20/138 34/34/139
f 26/20/140 27/22/141 34/34/142
f 27/22/143 28/24/144 34/34/145
f 28/24/146 29/26/147 34/34/148
f 29/26/149 30/28/150 34/34/151
f 30/28/152 31/30/153 34/34/154
f 31/30/155 32/32/156 34/34/157
f 32/32/158 17/4/159 34/34/160
