# This file uses centimeters as units for non-parametric coordinates.

mtllib Roadblock_B.mtl
g default
v -2.641190 0.000113 2.520351
v 2.641190 0.000113 2.520351
v -2.641190 1.039004 2.520351
v 2.641190 1.039004 2.520351
v -2.641190 1.039004 -2.520351
v 2.641190 1.039004 -2.520351
v -2.641190 0.000113 -2.520351
v 2.641190 0.000113 -2.520351
v 1.047676 0.955967 -1.965828
v -1.183014 0.955967 -1.965828
v -2.298363 0.955967 -0.033993
v -1.183022 0.955967 1.897842
v 1.047676 0.955967 1.897842
v 2.163017 0.955967 -0.033993
v -0.067673 9.127420 -0.033993
vt 0.793073 0.039480
vt 0.824787 0.039480
vt 0.824787 0.039480
vt 0.793073 0.039480
vt 0.824787 0.071194
vt 0.793073 0.071194
vt 0.824787 0.071194
vt 0.793073 0.071194
vt 0.734111 0.038176
vt 0.743361 0.038176
vt 0.761860 0.093675
vt 0.752611 0.038176
vt 0.761860 0.038176
vt 0.771110 0.038176
vt 0.780360 0.038176
vt 0.789610 0.038176
vn 0.000000 0.000000 1.000000
vn 0.000000 0.000000 1.000000
vn 0.000000 0.000000 1.000000
vn 0.000000 0.000000 1.000000
vn 0.000000 1.000000 0.000000
vn 0.000000 1.000000 0.000000
vn 0.000000 1.000000 0.000000
vn 0.000000 1.000000 0.000000
vn 0.000000 0.000000 -1.000000
vn 0.000000 0.000000 -1.000000
vn 0.000000 0.000000 -1.000000
vn 0.000000 0.000000 -1.000000
vn 0.000000 -1.000000 0.000000
vn 0.000000 -1.000000 0.000000
vn 0.000000 -1.000000 0.000000
vn 0.000000 -1.000000 0.000000
vn 1.000000 0.000000 0.000000
vn 1.000000 0.000000 0.000000
vn 1.000000 0.000000 0.000000
vn 1.000000 0.000000 0.000000
vn -1.000000 0.000000 0.000000
vn -1.000000 0.000000 0.000000
vn -1.000000 0.000000 0.000000
vn -1.000000 0.000000 0.000000
vn 0.482351 0.263350 -0.835455
vn -0.482350 0.263348 -0.835456
vn 0.000001 1.000000 -0.000001
vn -0.964701 0.263349 -0.000001
vn -0.482351 0.263349 0.835455
vn 0.482351 0.263349 0.835455
vn 0.964701 0.263349 0.000000
s off
g Roadblock_B
usemtl lambert14SG
f 1/1/1 2/2/2 4/3/3 3/4/4
f 3/4/5 4/3/6 6/5/7 5/6/8
f 5/6/9 6/5/10 8/7/11 7/8/12
f 7/8/13 8/7/14 2/2/15 1/1/16
f 2/2/17 8/7/18 6/5/19 4/3/20
f 7/8/21 1/1/22 3/4/23 5/6/24
s 1
f 9/9/25 10/10/26 15/11/27
f 10/10/26 11/12/28 15/11/27
f 11/12/28 12/13/29 15/11/27
f 12/13/29 13/14/30 15/11/27
f 13/14/30 14/15/31 15/11/27
f 14/15/31 9/16/25 15/11/27
