# This file uses centimeters as units for non-parametric coordinates.

mtllib Roadblock_A.mtl
g default
v -8.792770 0.000026 2.108181
v 8.792770 0.000026 2.108181
v -8.792770 3.259987 0.988493
v 8.792770 3.259987 0.988493
v -8.792770 3.259987 -0.988493
v 8.792770 3.259987 -0.988493
v -8.792770 0.000026 -2.108181
v 8.792770 0.000026 -2.108181
v -8.792770 11.042250 0.988493
v 8.792770 11.042250 0.988493
v 8.792770 11.042250 -0.988493
v -8.792770 11.042250 -0.988493
vt 0.548244 0.108379
vt 0.548244 0.036641
vt 0.561542 0.036641
vt 0.561542 0.108379
vt 0.593290 0.036641
vt 0.593290 0.108379
vt 0.594046 0.108379
vt 0.594046 0.036641
vt 0.602111 0.036641
vt 0.602111 0.108379
vt 0.634668 0.108379
vt 0.634668 0.036641
vt 0.647966 0.036641
vt 0.647966 0.108379
vt 0.602921 0.108379
vt 0.602921 0.036641
vt 0.648933 0.108379
vt 0.648933 0.036641
vt 0.666133 0.036641
vt 0.666133 0.108379
vt 0.692439 0.038072
vt 0.709640 0.038072
vt 0.705072 0.051371
vt 0.697007 0.051371
vt 0.705072 0.083118
vt 0.697007 0.083118
vt 0.674504 0.038072
vt 0.691704 0.038072
vt 0.687136 0.051371
vt 0.679072 0.051371
vt 0.687136 0.083118
vt 0.679072 0.083118
vn 0.000000 0.324840 0.945769
vn 0.000000 0.324840 0.945769
vn 0.000000 0.324840 0.945769
vn 0.000000 0.324840 0.945769
vn 0.000000 1.000000 0.000000
vn 0.000000 1.000000 0.000000
vn 0.000000 1.000000 0.000000
vn 0.000000 1.000000 0.000000
vn 0.000000 0.324840 -0.945769
vn 0.000000 0.324840 -0.945769
vn 0.000000 0.324840 -0.945769
vn 0.000000 0.324840 -0.945769
vn 0.000000 -1.000000 0.000000
vn 0.000000 -1.000000 0.000000
vn 0.000000 -1.000000 0.000000
vn 0.000000 -1.000000 0.000000
vn 1.000000 -0.000000 0.000000
vn 1.000000 -0.000000 0.000000
vn 1.000000 -0.000000 0.000000
vn 1.000000 -0.000000 0.000000
vn -1.000000 -0.000000 0.000000
vn -1.000000 -0.000000 0.000000
vn -1.000000 -0.000000 0.000000
vn -1.000000 -0.000000 0.000000
vn 0.000000 0.000000 1.000000
vn 0.000000 0.000000 1.000000
vn 0.000000 0.000000 1.000000
vn 0.000000 0.000000 1.000000
vn 1.000000 0.000000 0.000000
vn 1.000000 0.000000 0.000000
vn 1.000000 0.000000 0.000000
vn 1.000000 0.000000 0.000000
vn 0.000000 0.000000 -1.000000
vn 0.000000 0.000000 -1.000000
vn 0.000000 0.000000 -1.000000
vn 0.000000 0.000000 -1.000000
vn -1.000000 0.000000 0.000000
vn -1.000000 0.000000 0.000000
vn -1.000000 0.000000 0.000000
vn -1.000000 0.000000 0.000000
s off
g Roadblock_A
usemtl lambert14SG
f 1/1/1 2/2/2 4/3/3 3/4/4
f 9/7/5 10/8/6 11/9/7 12/10/8
f 5/11/9 6/12/10 8/13/11 7/14/12
f 7/17/13 8/18/14 2/19/15 1/20/16
f 2/21/17 8/22/18 6/23/19 4/24/20
f 7/27/21 1/28/22 3/29/23 5/30/24
f 3/4/25 4/3/26 10/5/27 9/6/28
f 4/24/29 6/23/30 11/25/31 10/26/32
f 6/12/33 5/11/34 12/15/35 11/16/36
f 5/30/37 3/29/38 9/31/39 12/32/40
