# This file uses centimeters as units for non-parametric coordinates.

mtllib Street_light.mtl
g default
v -1.673660 44.964658 23.010296
v 1.673660 44.964658 23.010296
v -1.673660 44.964658 33.478970
v 1.673660 44.964658 33.478970
v -1.673660 46.667600 33.478970
v 1.673660 46.667600 33.478970
v -1.673660 46.667600 23.010296
v 1.673660 46.667600 23.010296
v -0.672653 44.513120 24.099366
v 0.672653 44.513120 24.099366
v -0.672653 44.513120 32.389901
v 0.672653 44.513120 32.389901
v -0.672653 45.031522 32.389901
v 0.672653 45.031522 32.389901
v -0.672653 45.031522 24.099366
v 0.672653 45.031522 24.099366
v -0.347687 38.518919 -0.251503
v 0.347687 38.518919 -0.251503
v -0.347687 46.369306 16.217924
v 0.347687 46.369306 16.217924
v -0.347687 47.260603 15.793076
v 0.347687 47.260603 15.793076
v -0.347687 39.410215 -0.676351
v 0.347687 39.410215 -0.676351
v -0.418640 46.195661 -2.621666
v 0.418640 46.195661 -2.621666
v -0.418640 46.195661 32.724724
v 0.418640 46.195661 32.724724
v -0.418640 47.493559 32.724724
v 0.418640 47.493559 32.724724
v -0.418640 47.493559 -2.621666
v 0.418640 47.493559 -2.621666
v -0.797684 14.808668 0.878521
v 0.797684 14.808668 0.878521
v -0.797684 50.155058 0.878521
v 0.797684 50.155058 0.878521
v -0.797684 50.155058 -0.928074
v 0.797684 50.155058 -0.928074
v -0.797684 14.808668 -0.928074
v 0.797684 14.808668 -0.928074
v -1.870056 -0.000948 1.998621
v 1.870056 -0.000948 1.998621
v -1.870056 17.475095 1.998621
v 1.870056 17.475095 1.998621
v -1.870056 17.475095 -2.048174
v 1.870056 17.475095 -2.048174
v -1.870056 -0.000948 -2.048174
v 1.870056 -0.000948 -2.048174
vt 0.081992 0.228997
vt 0.088512 0.228997
vt 0.081992 0.235517
vt 0.088512 0.235517
vt 0.081992 0.242036
vt 0.088512 0.242036
vt 0.081992 0.248556
vt 0.088512 0.248556
vt 0.081992 0.255076
vt 0.088512 0.255076
vt 0.095032 0.228997
vt 0.095032 0.235517
vt 0.075473 0.228997
vt 0.075473 0.235517
vt 0.151268 0.232872
vt 0.158343 0.232872
vt 0.158343 0.238013
vt 0.151268 0.238013
vt 0.158343 0.243154
vt 0.151268 0.243154
vt 0.158343 0.248296
vt 0.151268 0.248296
vt 0.158343 0.253437
vt 0.151268 0.253437
vt 0.165418 0.232872
vt 0.165418 0.238013
vt 0.144193 0.232872
vt 0.144193 0.238013
vt 0.013557 0.230200
vt 0.019490 0.230200
vt 0.019490 0.236133
vt 0.013557 0.236133
vt 0.019490 0.242066
vt 0.013557 0.242066
vt 0.019490 0.247999
vt 0.013557 0.247999
vt 0.019490 0.253931
vt 0.013557 0.253931
vt 0.025423 0.230200
vt 0.025423 0.236133
vt 0.007625 0.230200
vt 0.007625 0.236133
vt 0.013557 0.230200
vt 0.019490 0.230200
vt 0.019490 0.236133
vt 0.013557 0.236133
vt 0.019490 0.242066
vt 0.013557 0.242066
vt 0.019490 0.247999
vt 0.013557 0.247999
vt 0.019490 0.253931
vt 0.013557 0.253931
vt 0.025423 0.230200
vt 0.025423 0.236133
vt 0.007625 0.230200
vt 0.007625 0.236133
vt 0.013557 0.230200
vt 0.019490 0.230200
vt 0.019490 0.236133
vt 0.013557 0.236133
vt 0.019490 0.242066
vt 0.013557 0.242066
vt 0.019490 0.247999
vt 0.013557 0.247999
vt 0.019490 0.253931
vt 0.013557 0.253931
vt 0.025423 0.230200
vt 0.025423 0.236133
vt 0.007625 0.230200
vt 0.007625 0.236133
vt 0.013557 0.230200
vt 0.019490 0.230200
vt 0.019490 0.236133
vt 0.013557 0.236133
vt 0.019490 0.242066
vt 0.013557 0.242066
vt 0.019490 0.247999
vt 0.013557 0.247999
vt 0.019490 0.253931
vt 0.013557 0.253931
vt 0.025423 0.230200
vt 0.025423 0.236133
vt 0.007625 0.230200
vt 0.007625 0.236133
vn 0.000000 -1.000000 0.000000
vn 0.000000 -1.000000 0.000000
vn 0.000000 -1.000000 0.000000
vn 0.000000 -1.000000 0.000000
vn 0.000000 0.000000 1.000000
vn 0.000000 0.000000 1.000000
vn 0.000000 0.000000 1.000000
vn 0.000000 0.000000 1.000000
vn 0.000000 1.000000 0.000000
vn 0.000000 1.000000 0.000000
vn 0.000000 1.000000 0.000000
vn 0.000000 1.000000 0.000000
vn 0.000000 0.000000 -1.000000
vn 0.000000 0.000000 -1.000000
vn 0.000000 0.000000 -1.000000
vn 0.000000 0.000000 -1.000000
vn 1.000000 0.000000 0.000000
vn 1.000000 0.000000 0.000000
vn 1.000000 0.000000 0.000000
vn 1.000000 0.000000 0.000000
vn -1.000000 0.000000 0.000000
vn -1.000000 0.000000 0.000000
vn -1.000000 0.000000 0.000000
vn -1.000000 0.000000 0.000000
vn 0.000000 -1.000000 0.000000
vn 0.000000 -1.000000 0.000000
vn 0.000000 -1.000000 0.000000
vn 0.000000 -1.000000 0.000000
vn 0.000000 0.000000 1.000000
vn 0.000000 0.000000 1.000000
vn 0.000000 0.000000 1.000000
vn 0.000000 0.000000 1.000000
vn 0.000000 1.000000 0.000000
vn 0.000000 1.000000 0.000000
vn 0.000000 1.000000 0.000000
vn 0.000000 1.000000 0.000000
vn 0.000000 0.000000 -1.000000
vn 0.000000 0.000000 -1.000000
vn 0.000000 0.000000 -1.000000
vn 0.000000 0.000000 -1.000000
vn 1.000000 0.000000 0.000000
vn 1.000000 0.000000 0.000000
vn 1.000000 0.000000 0.000000
vn 1.000000 0.000000 0.000000
vn -1.000000 0.000000 0.000000
vn -1.000000 0.000000 0.000000
vn -1.000000 0.000000 0.000000
vn -1.000000 0.000000 0.000000
vn 0.000000 -0.902694 0.430283
vn 0.000000 -0.902694 0.430283
vn 0.000000 -0.902694 0.430283
vn 0.000000 -0.902694 0.430283
vn 0.000000 0.430289 0.902691
vn 0.000000 0.430289 0.902691
vn 0.000000 0.430289 0.902691
vn 0.000000 0.430289 0.902691
vn 0.000000 0.902694 -0.430283
vn 0.000000 0.902694 -0.430283
vn 0.000000 0.902694 -0.430283
vn 0.000000 0.902694 -0.430283
vn 0.000000 -0.430289 -0.902691
vn 0.000000 -0.430289 -0.902691
vn 0.000000 -0.430289 -0.902691
vn 0.000000 -0.430289 -0.902691
vn 1.000000 0.000000 0.000000
vn 1.000000 0.000000 0.000000
vn 1.000000 0.000000 0.000000
vn 1.000000 0.000000 0.000000
vn -1.000000 0.000000 0.000000
vn -1.000000 0.000000 0.000000
vn -1.000000 0.000000 0.000000
vn -1.000000 0.000000 0.000000
vn 0.000000 -1.000000 0.000000
vn 0.000000 -1.000000 0.000000
vn 0.000000 -1.000000 0.000000
vn 0.000000 -1.000000 0.000000
vn 0.000000 0.000000 1.000000
vn 0.000000 0.000000 1.000000
vn 0.000000 0.000000 1.000000
vn 0.000000 0.000000 1.000000
vn 0.000000 1.000000 0.000000
vn 0.000000 1.000000 0.000000
vn 0.000000 1.000000 0.000000
vn 0.000000 1.000000 0.000000
vn 0.000000 0.000000 -1.000000
vn 0.000000 0.000000 -1.000000
vn 0.000000 0.000000 -1.000000
vn 0.000000 0.000000 -1.000000
vn 1.000000 0.000000 0.000000
vn 1.000000 0.000000 0.000000
vn 1.000000 0.000000 0.000000
vn 1.000000 0.000000 0.000000
vn -1.000000 0.000000 0.000000
vn -1.000000 0.000000 0.000000
vn -1.000000 0.000000 0.000000
vn -1.000000 0.000000 0.000000
vn 0.000000 0.000000 1.000000
vn 0.000000 0.000000 1.000000
vn 0.000000 0.000000 1.000000
vn 0.000000 0.000000 1.000000
vn 0.000000 1.000000 0.000000
vn 0.000000 1.000000 0.000000
vn 0.000000 1.000000 0.000000
vn 0.000000 1.000000 0.000000
vn 0.000000 0.000000 -1.000000
vn 0.000000 0.000000 -1.000000
vn 0.000000 0.000000 -1.000000
vn 0.000000 0.000000 -1.000000
vn 0.000000 -1.000000 0.000000
vn 0.000000 -1.000000 0.000000
vn 0.000000 -1.000000 0.000000
vn 0.000000 -1.000000 0.000000
vn 1.000000 0.000000 0.000000
vn 1.000000 0.000000 0.000000
vn 1.000000 0.000000 0.000000
vn 1.000000 0.000000 0.000000
vn -1.000000 0.000000 0.000000
vn -1.000000 0.000000 0.000000
vn -1.000000 0.000000 0.000000
vn -1.000000 0.000000 0.000000
vn 0.000000 0.000000 1.000000
vn 0.000000 0.000000 1.000000
vn 0.000000 0.000000 1.000000
vn 0.000000 0.000000 1.000000
vn 0.000000 1.000000 0.000000
vn 0.000000 1.000000 0.000000
vn 0.000000 1.000000 0.000000
vn 0.000000 1.000000 0.000000
vn 0.000000 0.000000 -1.000000
vn 0.000000 0.000000 -1.000000
vn 0.000000 0.000000 -1.000000
vn 0.000000 0.000000 -1.000000
vn 0.000000 -1.000000 0.000000
vn 0.000000 -1.000000 0.000000
vn 0.000000 -1.000000 0.000000
vn 0.000000 -1.000000 0.000000
vn 1.000000 0.000000 0.000000
vn 1.000000 0.000000 0.000000
vn 1.000000 0.000000 0.000000
vn 1.000000 0.000000 0.000000
vn -1.000000 0.000000 0.000000
vn -1.000000 0.000000 0.000000
vn -1.000000 0.000000 0.000000
vn -1.000000 0.000000 0.000000
s off
g Street_light
usemtl initialShadingGroup
f 1/1/1 2/2/2 4/4/3 3/3/4
f 3/3/5 4/4/6 6/6/7 5/5/8
f 5/5/9 6/6/10 8/8/11 7/7/12
f 7/7/13 8/8/14 2/10/15 1/9/16
f 2/2/17 8/11/18 6/12/19 4/4/20
f 7/13/21 1/1/22 3/3/23 5/14/24
f 9/15/25 10/16/26 12/17/27 11/18/28
f 11/18/29 12/17/30 14/19/31 13/20/32
f 13/20/33 14/19/34 16/21/35 15/22/36
f 15/22/37 16/21/38 10/23/39 9/24/40
f 10/16/41 16/25/42 14/26/43 12/17/44
f 15/27/45 9/15/46 11/18/47 13/28/48
f 17/29/49 18/30/50 20/31/51 19/32/52
f 19/32/53 20/31/54 22/33/55 21/34/56
f 21/34/57 22/33/58 24/35/59 23/36/60
f 23/36/61 24/35/62 18/37/63 17/38/64
f 18/30/65 24/39/66 22/40/67 20/31/68
f 23/41/69 17/29/70 19/32/71 21/42/72
f 25/43/73 26/44/74 28/45/75 27/46/76
f 27/46/77 28/45/78 30/47/79 29/48/80
f 29/48/81 30/47/82 32/49/83 31/50/84
f 31/50/85 32/49/86 26/51/87 25/52/88
f 26/44/89 32/53/90 30/54/91 28/45/92
f 31/55/93 25/43/94 27/46/95 29/56/96
f 33/57/97 34/58/98 36/59/99 35/60/100
f 35/60/101 36/59/102 38/61/103 37/62/104
f 37/62/105 38/61/106 40/63/107 39/64/108
f 39/64/109 40/63/110 34/65/111 33/66/112
f 34/58/113 40/67/114 38/68/115 36/59/116
f 39/69/117 33/57/118 35/60/119 37/70/120
f 41/71/121 42/72/122 44/73/123 43/74/124
f 43/74/125 44/73/126 46/75/127 45/76/128
f 45/76/129 46/75/130 48/77/131 47/78/132
f 47/78/133 48/77/134 42/79/135 41/80/136
f 42/72/137 48/81/138 46/82/139 44/73/140
f 47/83/141 41/71/142 43/74/143 45/84/144
