# This file uses centimeters as units for non-parametric coordinates.

mtllib tube_A.mtl
g default
v 3.045132 -14.150488 -1.758108
v 1.015041 -14.150488 -1.758112
v 0.000000 -14.150488 0.000000
v 1.015041 -14.150488 1.758109
v 3.045132 -14.150488 1.758112
v 4.060175 -14.150488 0.000000
v 3.045132 0.000000 -1.758108
v 1.015041 0.000000 -1.758112
v 0.000000 0.000000 0.000000
v 1.015041 0.000000 1.758109
v 3.045132 0.000000 1.758112
v 4.060175 0.000000 0.000000
v 3.045132 -5.396860 1.758112
v 1.015041 -5.396860 1.758109
v 0.000000 -5.396860 0.000000
v 1.015041 -5.396860 -1.758112
v 3.045132 -5.396860 -1.758108
v 4.060175 -5.396860 0.000000
v 3.045132 -7.085803 1.758112
v 1.015041 -7.085803 1.758109
v 0.000000 -7.085803 0.000000
v 1.015041 -7.085803 -1.758112
v 3.045132 -7.085803 -1.758108
v 4.060175 -7.085803 0.000000
v 3.432743 -7.085803 2.429472
v 0.627429 -7.085803 2.429469
v 3.432743 -5.396860 2.429472
v 0.627429 -5.396860 2.429469
v -0.775223 -7.085803 0.000000
v -0.775223 -5.396860 0.000000
v 0.627433 -7.085803 -2.429472
v 0.627433 -5.396860 -2.429472
v 3.432743 -7.085803 -2.429469
v 3.432743 -5.396860 -2.429469
v 4.835395 -7.085803 0.000000
v 4.835395 -5.396860 0.000000
v 3.157428 -14.950822 -1.758108
v 1.076266 -15.682928 -1.758112
v 0.122447 -16.030122 0.000000
v 1.076266 -15.682928 1.758109
v 3.157428 -14.950822 1.758112
v 4.111243 -14.739426 0.000000
v 3.669883 -15.731429 -1.637152
v 2.403385 -17.135757 -1.832660
v 1.450911 -17.770021 0.000000
v 2.403385 -17.135757 1.832658
v 3.669883 -15.731429 1.637159
v 4.303202 -15.230921 0.000002
v 6.447581 -16.187276 -1.598084
v 6.447654 -17.838811 -1.822954
v 6.447639 -18.896266 0.000000
v 6.447654 -17.838814 1.822954
v 6.447581 -16.187270 1.598093
v 6.447547 -15.419823 0.000003
v 4.826065 -16.103992 1.615642
v 5.015266 -15.423543 0.000003
v 4.826065 -16.103996 -1.615634
v 4.358336 -17.784266 -1.827314
v 4.104667 -18.804745 0.000000
v 4.358333 -17.784266 1.827314
v 6.441538 -16.357718 -1.363891
v 6.450530 -17.718758 -1.577440
v 6.456887 -18.611772 0.000000
v 6.450530 -17.718758 1.577440
v 6.441538 -16.357711 1.363900
v 6.438952 -15.716318 0.000003
v 3.551856 -16.330064 -1.393963
v 3.560765 -17.696976 -1.565448
v 3.567543 -18.552450 0.000003
v 3.560765 -17.696980 1.565453
v 3.551856 -16.330049 1.393977
v 3.549779 -15.645243 0.000007
vt 0.152540 0.236033
vt 0.153322 0.236033
vt 0.154104 0.236033
vt 0.154885 0.236033
vt 0.155667 0.236033
vt 0.156449 0.236033
vt 0.157231 0.236033
vt 0.152540 0.242966
vt 0.153322 0.242966
vt 0.154104 0.242966
vt 0.154885 0.242966
vt 0.155667 0.242966
vt 0.156449 0.242966
vt 0.157231 0.242966
vt 0.155667 0.240322
vt 0.154885 0.240322
vt 0.154104 0.240322
vt 0.153322 0.240322
vt 0.157231 0.240322
vt 0.152540 0.240322
vt 0.156449 0.240322
vt 0.155667 0.239494
vt 0.154885 0.239494
vt 0.154104 0.239494
vt 0.153322 0.239494
vt 0.157231 0.239494
vt 0.152540 0.239494
vt 0.156449 0.239494
vt 0.154885 0.239494
vt 0.155667 0.239494
vt 0.155667 0.240322
vt 0.154885 0.240322
vt 0.154104 0.239494
vt 0.154104 0.240322
vt 0.153322 0.239494
vt 0.153322 0.240322
vt 0.152540 0.239494
vt 0.152540 0.240322
vt 0.156449 0.239494
vt 0.157231 0.239494
vt 0.157231 0.240322
vt 0.156449 0.240322
vt 0.145505 0.230270
vt 0.164266 0.230270
vt 0.164266 0.248712
vt 0.145505 0.248712
vt 0.145505 0.230270
vt 0.164266 0.230270
vt 0.164266 0.248712
vt 0.145505 0.248712
vt 0.145505 0.230270
vt 0.164266 0.230270
vt 0.164266 0.248712
vt 0.145505 0.248712
vt 0.145505 0.230270
vt 0.164266 0.230270
vt 0.164266 0.248712
vt 0.145505 0.248712
vt 0.145505 0.230270
vt 0.164266 0.230270
vt 0.164266 0.248712
vt 0.145505 0.248712
vt 0.145505 0.230270
vt 0.164266 0.230270
vt 0.164266 0.248712
vt 0.145505 0.248712
vt 0.145505 0.230270
vt 0.164266 0.230270
vt 0.164266 0.248712
vt 0.145505 0.248712
vt 0.145505 0.230270
vt 0.164266 0.230270
vt 0.164266 0.248712
vt 0.145505 0.248712
vt 0.145505 0.230270
vt 0.164266 0.230270
vt 0.164266 0.248712
vt 0.145505 0.248712
vt 0.145505 0.230270
vt 0.164266 0.230270
vt 0.164266 0.248712
vt 0.145505 0.248712
vt 0.145505 0.230270
vt 0.164266 0.230270
vt 0.164266 0.248712
vt 0.145505 0.248712
vt 0.145505 0.230270
vt 0.164266 0.230270
vt 0.164266 0.248712
vt 0.145505 0.248712
vt 0.145505 0.230270
vt 0.164266 0.230270
vt 0.164266 0.248712
vt 0.145505 0.248712
vt 0.145505 0.230270
vt 0.164266 0.230270
vt 0.164266 0.248712
vt 0.145505 0.248712
vt 0.145505 0.230270
vt 0.164266 0.230270
vt 0.164266 0.248712
vt 0.145505 0.248712
vt 0.145505 0.230270
vt 0.164266 0.230270
vt 0.164266 0.248712
vt 0.145505 0.248712
vt 0.145505 0.230270
vt 0.164266 0.230270
vt 0.164266 0.248712
vt 0.145505 0.248712
vt 0.145505 0.230270
vt 0.164266 0.230270
vt 0.164266 0.248712
vt 0.145505 0.248712
vt 0.164266 0.240427
vt 0.145505 0.240427
vt 0.164266 0.240427
vt 0.145505 0.240427
vt 0.164266 0.240427
vt 0.145505 0.240427
vt 0.164266 0.240427
vt 0.145505 0.240427
vt 0.164266 0.240427
vt 0.145505 0.240427
vt 0.164266 0.240427
vt 0.145505 0.240427
vt 0.145505 0.230270
vt 0.164266 0.230270
vt 0.164266 0.248712
vt 0.145505 0.248712
vt 0.145505 0.230270
vt 0.164266 0.230270
vt 0.164266 0.248712
vt 0.145505 0.248712
vt 0.145505 0.230270
vt 0.164266 0.230270
vt 0.164266 0.248712
vt 0.145505 0.248712
vt 0.145505 0.230270
vt 0.164266 0.230270
vt 0.164266 0.248712
vt 0.145505 0.248712
vt 0.145505 0.230270
vt 0.164266 0.230270
vt 0.164266 0.248712
vt 0.145505 0.248712
vt 0.145505 0.230270
vt 0.164266 0.230270
vt 0.164266 0.248712
vt 0.145505 0.248712
vt 0.145505 0.230270
vt 0.164266 0.230270
vt 0.164266 0.248712
vt 0.145505 0.248712
vt 0.145505 0.230270
vt 0.164266 0.230270
vt 0.164266 0.248712
vt 0.145505 0.248712
vt 0.145505 0.230270
vt 0.164266 0.230270
vt 0.164266 0.248712
vt 0.145505 0.248712
vt 0.145505 0.230270
vt 0.164266 0.230270
vt 0.164266 0.248712
vt 0.145505 0.248712
vt 0.145505 0.230270
vt 0.164266 0.230270
vt 0.164266 0.248712
vt 0.145505 0.248712
vt 0.145505 0.230270
vt 0.164266 0.230270
vt 0.164266 0.248712
vt 0.145505 0.248712
vn 0.000002 0.000000 -1.000000
vn 0.000002 0.000000 -1.000000
vn 0.000002 0.000000 -1.000000
vn 0.000002 0.000000 -1.000000
vn -0.868059 -0.023422 -0.495908
vn -0.868059 -0.023422 -0.495908
vn -0.866027 0.000000 -0.499998
vn -0.866027 0.000000 -0.499998
vn -0.868059 -0.023422 0.495909
vn -0.868059 -0.023422 0.495909
vn -0.866026 0.000000 0.499999
vn -0.866026 0.000000 0.499999
vn -0.000001 -0.000000 1.000000
vn -0.000001 -0.000000 1.000000
vn -0.000002 0.000000 1.000000
vn -0.000002 0.000000 1.000000
vn 0.866835 0.051050 0.495975
vn 0.866835 0.051050 0.495975
vn 0.866026 0.000000 0.499999
vn 0.866026 0.000000 0.499999
vn 0.866834 0.051050 -0.495976
vn 0.866834 0.051050 -0.495976
vn 0.866026 0.000000 -0.500000
vn 0.866026 0.000000 -0.500000
vn -0.000002 0.000000 1.000000
vn -0.000002 0.000000 1.000000
vn -0.000002 0.000000 1.000000
vn -0.000002 0.000000 1.000000
vn -0.866026 0.000000 0.499999
vn -0.866026 0.000000 0.499999
vn -0.866026 0.000000 0.499999
vn -0.866026 0.000000 0.499999
vn -0.866027 0.000000 -0.499998
vn -0.866027 0.000000 -0.499998
vn -0.866027 0.000000 -0.499998
vn -0.866027 0.000000 -0.499998
vn 0.000002 0.000000 -1.000000
vn 0.000002 0.000000 -1.000000
vn 0.000002 0.000000 -1.000000
vn 0.000002 0.000000 -1.000000
vn 0.866025 0.000000 -0.500000
vn 0.866025 0.000000 -0.500000
vn 0.866025 0.000000 -0.500000
vn 0.866025 0.000000 -0.500000
vn 0.866026 0.000000 0.499999
vn 0.866026 0.000000 0.499999
vn 0.866026 0.000000 0.499999
vn 0.866026 0.000000 0.499999
vn -0.000001 0.000000 1.000000
vn -0.000001 0.000000 1.000000
vn -0.000001 0.000000 1.000000
vn -0.000001 0.000000 1.000000
vn -0.866026 0.000000 0.499999
vn -0.866026 0.000000 0.499999
vn -0.866026 0.000000 0.499999
vn -0.866026 0.000000 0.499999
vn -0.866026 0.000000 -0.500000
vn -0.866026 0.000000 -0.500000
vn -0.866026 0.000000 -0.500000
vn -0.866026 0.000000 -0.500000
vn 0.000001 0.000000 -1.000000
vn 0.000001 0.000000 -1.000000
vn 0.000001 0.000000 -1.000000
vn 0.000001 0.000000 -1.000000
vn 0.866026 0.000000 -0.499999
vn 0.866026 0.000000 -0.499999
vn 0.866026 0.000000 -0.499999
vn 0.866026 0.000000 -0.499999
vn 0.866026 0.000000 0.499999
vn 0.866026 0.000000 0.499999
vn 0.866026 0.000000 0.499999
vn 0.866026 0.000000 0.499999
vn 0.000000 -1.000000 -0.000000
vn 0.000000 -1.000000 -0.000000
vn 0.000000 -1.000000 -0.000000
vn 0.000000 -1.000000 -0.000000
vn 0.000000 1.000000 -0.000000
vn 0.000000 1.000000 0.000000
vn 0.000000 1.000000 0.000000
vn 0.000000 1.000000 -0.000000
vn 0.000000 -1.000000 -0.000000
vn 0.000000 -1.000000 -0.000000
vn 0.000000 1.000000 0.000000
vn 0.000000 1.000000 0.000000
vn 0.000000 -1.000000 0.000000
vn 0.000000 -1.000000 0.000000
vn 0.000000 1.000000 0.000000
vn 0.000000 1.000000 0.000000
vn 0.000000 -1.000000 0.000000
vn 0.000000 -1.000000 0.000000
vn 0.000000 1.000000 0.000000
vn 0.000000 1.000000 0.000000
vn 0.000000 -1.000000 0.000000
vn 0.000000 -1.000000 0.000000
vn 0.000000 1.000000 -0.000000
vn 0.000000 1.000000 -0.000000
vn 0.023466 0.008947 -0.999685
vn 0.023466 0.008947 -0.999685
vn -0.791984 -0.324203 -0.517353
vn -0.791984 -0.324203 -0.517353
vn -0.791983 -0.324203 0.517354
vn -0.791983 -0.324203 0.517354
vn 0.023463 0.008946 0.999685
vn 0.023463 0.008946 0.999685
vn 0.839683 0.257325 0.478244
vn 0.839683 0.257325 0.478244
vn 0.839683 0.257323 -0.478244
vn 0.839683 0.257323 -0.478244
vn 0.045284 0.062417 -0.997022
vn 0.045284 0.062417 -0.997022
vn -0.475410 -0.723482 -0.500558
vn -0.475410 -0.723482 -0.500558
vn -0.475410 -0.723482 0.500558
vn -0.475410 -0.723482 0.500558
vn 0.045281 0.062414 0.997023
vn 0.045281 0.062414 0.997023
vn 0.514432 0.733883 0.443594
vn 0.514432 0.733883 0.443594
vn 0.514434 0.733881 -0.443595
vn 0.514434 0.733881 -0.443595
vn 0.027088 0.117570 -0.992695
vn 0.027088 0.117570 -0.992695
vn -0.162265 -0.856576 -0.489844
vn -0.162265 -0.856576 -0.489844
vn -0.162265 -0.856576 0.489844
vn -0.162265 -0.856576 0.489844
vn 0.027087 0.117565 0.992696
vn 0.027087 0.117565 0.992696
vn 0.146166 0.903210 0.403543
vn 0.146166 0.903210 0.403543
vn 0.146168 0.903209 -0.403545
vn 0.146168 0.903209 -0.403545
vn 0.026097 0.910852 0.411907
vn 0.026097 0.910852 0.411907
vn 0.026097 0.910851 -0.411910
vn 0.026097 0.910851 -0.411910
vn 0.010626 0.128441 -0.991660
vn 0.010626 0.128441 -0.991660
vn -0.028113 -0.867871 -0.495993
vn -0.028113 -0.867871 -0.495993
vn -0.028113 -0.867871 0.495993
vn -0.028113 -0.867871 0.495993
vn 0.010625 0.128435 0.991661
vn 0.010625 0.128435 0.991661
vn 0.999946 -0.009685 -0.003661
vn 0.999886 -0.011465 0.009781
vn 0.999886 -0.011465 0.009781
vn 0.999946 -0.009685 -0.003661
vn 0.999771 -0.021386 -0.000000
vn 0.999771 -0.021386 -0.000000
vn 0.999946 -0.009686 0.003661
vn 0.999946 -0.009686 0.003661
vn 0.999887 -0.011465 -0.009781
vn 0.999887 -0.011465 -0.009781
vn 0.999689 -0.024944 0.000000
vn 0.999689 -0.024944 0.000000
vn -0.004293 -0.139785 0.990173
vn -0.004293 -0.139785 0.990173
vn -0.004293 -0.139785 0.990173
vn -0.004293 -0.139785 0.990173
vn 0.013272 0.873816 0.486076
vn 0.013272 0.873816 0.486076
vn 0.013272 0.873816 0.486076
vn 0.013272 0.873816 0.486076
vn 0.013271 0.873816 -0.486075
vn 0.013271 0.873816 -0.486075
vn 0.013271 0.873816 -0.486075
vn 0.013271 0.873816 -0.486075
vn -0.004295 -0.139777 -0.990174
vn -0.004295 -0.139777 -0.990174
vn -0.004295 -0.139777 -0.990174
vn -0.004295 -0.139777 -0.990174
vn -0.017651 -0.901085 -0.433282
vn -0.017651 -0.901085 -0.433282
vn -0.017651 -0.901085 -0.433282
vn -0.017651 -0.901085 -0.433282
vn -0.017649 -0.901082 0.433289
vn -0.017649 -0.901082 0.433289
vn -0.017649 -0.901082 0.433289
vn -0.017649 -0.901082 0.433289
s 1
g tube_A
usemtl lambert14SG
f 1/1/1 2/2/2 22/25/3 23/27/4
s 2
f 2/2/5 3/3/6 21/24/7 22/25/8
s 3
f 3/3/9 4/4/10 20/23/11 21/24/12
s 4
f 4/4/13 5/5/14 19/22/15 20/23/16
s 5
f 5/5/17 6/6/18 24/28/19 19/22/20
s 6
f 6/6/21 1/7/22 23/26/23 24/28/24
s off
f 14/16/25 13/15/26 11/12/27 10/11/28
f 15/17/29 14/16/30 10/11/31 9/10/32
f 16/18/33 15/17/34 9/10/35 8/9/36
f 17/20/37 16/18/38 8/9/39 7/8/40
f 18/21/41 17/19/42 7/14/43 12/13/44
f 13/15/45 18/21/46 12/13/47 11/12/48
f 26/29/49 25/30/50 27/31/51 28/32/52
f 29/33/53 26/29/54 28/32/55 30/34/56
f 31/35/57 29/33/58 30/34/59 32/36/60
f 33/37/61 31/35/62 32/36/63 34/38/64
f 35/39/65 33/40/66 34/41/67 36/42/68
f 25/30/69 35/39/70 36/42/71 27/31/72
s 7
f 20/23/73 19/22/74 25/30/75 26/29/76
s 8
f 13/15/77 14/16/78 28/32/79 27/31/80
s 7
f 21/24/81 20/23/73 26/29/76 29/33/82
s 8
f 14/16/78 15/17/83 30/34/84 28/32/79
s 7
f 22/25/85 21/24/81 29/33/82 31/35/86
s 8
f 15/17/83 16/18/87 32/36/88 30/34/84
s 7
f 23/27/89 22/25/85 31/35/86 33/37/90
s 8
f 16/18/87 17/20/91 34/38/92 32/36/88
s 7
f 24/28/93 23/26/89 33/40/90 35/39/94
s 8
f 17/19/91 18/21/95 36/42/96 34/41/92
s 7
f 19/22/74 24/28/93 35/39/94 25/30/75
s 8
f 18/21/95 13/15/77 27/31/80 36/42/96
s 1
f 2/43/2 1/44/1 37/45/97 38/46/98
s 2
f 3/47/6 2/48/5 38/49/99 39/50/100
s 3
f 4/51/10 3/52/9 39/53/101 40/54/102
s 4
f 5/55/14 4/56/13 40/57/103 41/58/104
s 5
f 6/59/18 5/60/17 41/61/105 42/62/106
s 6
f 1/63/22 6/64/21 42/65/107 37/66/108
s 1
f 38/67/98 37/68/97 43/69/109 44/70/110
s 2
f 39/71/100 38/72/99 44/73/111 45/74/112
s 3
f 40/75/102 39/76/101 45/77/113 46/78/114
s 4
f 41/79/104 40/80/103 46/81/115 47/82/116
s 5
f 42/83/106 41/84/105 47/85/117 48/86/118
s 6
f 37/87/108 42/88/107 48/89/119 43/90/120
s 1
f 44/91/110 43/92/109 57/119/121 58/122/122
s 2
f 45/95/112 44/96/111 58/121/123 59/124/124
s 3
f 46/99/114 45/100/113 59/123/125 60/126/126
s 4
f 47/103/116 46/104/115 60/125/127 55/116/128
s 5
f 48/107/118 47/108/117 55/115/129 56/118/130
s 6
f 43/111/120 48/112/119 56/117/131 57/120/132
s 5
f 56/118/130 55/115/129 53/109/133 54/110/134
s 6
f 57/120/132 56/117/131 54/113/135 49/114/136
s 1
f 58/122/122 57/119/121 49/93/137 50/94/138
s 2
f 59/124/124 58/121/123 50/97/139 51/98/140
s 3
f 60/126/126 59/123/125 51/101/141 52/102/142
s 4
f 55/116/128 60/125/127 52/105/143 53/106/144
s 9
f 50/127/145 49/128/146 61/129/147 62/130/148
f 51/131/149 50/132/145 62/133/148 63/134/150
f 52/135/151 51/136/149 63/137/150 64/138/152
f 53/139/153 52/140/151 64/141/152 65/142/154
f 54/143/155 53/144/153 65/145/154 66/146/156
f 49/147/146 54/148/155 66/149/156 61/150/147
s off
f 62/151/157 61/152/158 67/153/159 68/154/160
f 63/155/161 62/156/162 68/157/163 69/158/164
f 64/159/165 63/160/166 69/161/167 70/162/168
f 65/163/169 64/164/170 70/165/171 71/166/172
f 66/167/173 65/168/174 71/169/175 72/170/176
f 61/171/177 66/172/178 72/173/179 67/174/180
