# This file uses centimeters as units for non-parametric coordinates.

mtllib tube_B.mtl
g default
v 3.045138 0.000000 -1.758109
v 1.015046 0.000000 -1.758112
v 0.000000 0.000000 0.000000
v 1.015045 0.000000 1.758109
v 3.045137 0.000000 1.758112
v 4.060183 0.000000 0.000000
v 3.045138 14.150488 -1.758109
v 1.015046 14.150488 -1.758112
v 0.000000 14.150488 0.000000
v 1.015045 14.150488 1.758109
v 3.045137 14.150488 1.758112
v 4.060183 14.150488 0.000000
v 3.045137 8.753628 1.758112
v 1.015045 8.753628 1.758109
v 0.000000 8.753628 0.000000
v 1.015046 8.753628 -1.758112
v 3.045138 8.753628 -1.758109
v 4.060183 8.753628 0.000000
v 3.045137 7.064687 1.758112
v 1.015045 7.064687 1.758109
v 0.000000 7.064687 0.000000
v 1.015046 7.064687 -1.758112
v 3.045138 7.064687 -1.758109
v 4.060183 7.064687 0.000000
v 3.432747 7.064687 2.429472
v 0.627435 7.064687 2.429469
v 3.432747 8.753628 2.429472
v 0.627435 8.753628 2.429469
v -0.775220 7.064687 0.000000
v -0.775220 8.753628 0.000000
v 0.627437 7.064687 -2.429472
v 0.627437 8.753628 -2.429472
v 3.432748 7.064687 -2.429469
v 3.432748 8.753628 -2.429469
v 4.835403 7.064687 0.000000
v 4.835403 8.753628 0.000000
vt 0.152540 0.236033
vt 0.153322 0.236033
vt 0.154104 0.236033
vt 0.154885 0.236033
vt 0.155667 0.236033
vt 0.156449 0.236033
vt 0.157231 0.236033
vt 0.152540 0.242966
vt 0.153322 0.242966
vt 0.154104 0.242966
vt 0.154885 0.242966
vt 0.155667 0.242966
vt 0.156449 0.242966
vt 0.157231 0.242966
vt 0.155667 0.240322
vt 0.154885 0.240322
vt 0.154104 0.240322
vt 0.153322 0.240322
vt 0.157231 0.240322
vt 0.152540 0.240322
vt 0.156449 0.240322
vt 0.155667 0.239494
vt 0.154885 0.239494
vt 0.154104 0.239494
vt 0.153322 0.239494
vt 0.157231 0.239494
vt 0.152540 0.239494
vt 0.156449 0.239494
vt 0.154885 0.239494
vt 0.155667 0.239494
vt 0.155667 0.240322
vt 0.154885 0.240322
vt 0.154104 0.239494
vt 0.154104 0.240322
vt 0.153322 0.239494
vt 0.153322 0.240322
vt 0.152540 0.239494
vt 0.152540 0.240322
vt 0.156449 0.239494
vt 0.157231 0.239494
vt 0.157231 0.240322
vt 0.156449 0.240322
vn 0.000002 0.000000 -1.000000
vn 0.000002 0.000000 -1.000000
vn 0.000002 0.000000 -1.000000
vn 0.000002 0.000000 -1.000000
vn -0.866025 0.000000 -0.500000
vn -0.866025 0.000000 -0.500000
vn -0.866025 0.000000 -0.500000
vn -0.866025 0.000000 -0.500000
vn -0.866025 0.000000 0.500000
vn -0.866025 0.000000 0.500000
vn -0.866025 0.000000 0.500000
vn -0.866025 0.000000 0.500000
vn -0.000002 0.000000 1.000000
vn -0.000002 0.000000 1.000000
vn -0.000002 0.000000 1.000000
vn -0.000002 0.000000 1.000000
vn 0.866026 0.000000 0.500000
vn 0.866026 0.000000 0.500000
vn 0.866026 0.000000 0.500000
vn 0.866026 0.000000 0.500000
vn 0.866025 0.000000 -0.500000
vn 0.866025 0.000000 -0.500000
vn 0.866025 0.000000 -0.500000
vn 0.866025 0.000000 -0.500000
vn -0.000002 0.000000 1.000000
vn -0.000002 0.000000 1.000000
vn -0.000002 0.000000 1.000000
vn -0.000002 0.000000 1.000000
vn -0.866025 0.000000 0.500000
vn -0.866025 0.000000 0.500000
vn -0.866025 0.000000 0.500000
vn -0.866025 0.000000 0.500000
vn -0.866026 0.000000 -0.500000
vn -0.866026 0.000000 -0.500000
vn -0.866026 0.000000 -0.500000
vn -0.866026 0.000000 -0.500000
vn 0.000002 0.000000 -1.000000
vn 0.000002 0.000000 -1.000000
vn 0.000002 0.000000 -1.000000
vn 0.000002 0.000000 -1.000000
vn 0.866025 0.000000 -0.500000
vn 0.866025 0.000000 -0.500000
vn 0.866025 0.000000 -0.500000
vn 0.866025 0.000000 -0.500000
vn 0.866026 0.000000 0.500000
vn 0.866026 0.000000 0.500000
vn 0.866026 0.000000 0.500000
vn 0.866026 0.000000 0.500000
vn -0.000001 0.000000 1.000000
vn -0.000001 0.000000 1.000000
vn -0.000001 0.000000 1.000000
vn -0.000001 0.000000 1.000000
vn -0.866025 0.000000 0.500000
vn -0.866025 0.000000 0.500000
vn -0.866025 0.000000 0.500000
vn -0.866025 0.000000 0.500000
vn -0.866025 0.000000 -0.500000
vn -0.866025 0.000000 -0.500000
vn -0.866025 0.000000 -0.500000
vn -0.866025 0.000000 -0.500000
vn 0.000001 0.000000 -1.000000
vn 0.000001 0.000000 -1.000000
vn 0.000001 0.000000 -1.000000
vn 0.000001 0.000000 -1.000000
vn 0.866025 0.000000 -0.500000
vn 0.866025 0.000000 -0.500000
vn 0.866025 0.000000 -0.500000
vn 0.866025 0.000000 -0.500000
vn 0.866025 0.000000 0.500000
vn 0.866025 0.000000 0.500000
vn 0.866025 0.000000 0.500000
vn 0.866025 0.000000 0.500000
vn 0.000000 -1.000000 0.000000
vn 0.000000 -1.000000 0.000000
vn 0.000000 -1.000000 0.000000
vn 0.000000 -1.000000 0.000000
vn 0.000000 1.000000 0.000000
vn 0.000000 1.000000 -0.000000
vn 0.000000 1.000000 -0.000000
vn 0.000000 1.000000 0.000000
vn 0.000000 -1.000000 0.000000
vn 0.000000 -1.000000 0.000000
vn 0.000000 1.000000 -0.000000
vn 0.000000 1.000000 -0.000000
vn 0.000000 -1.000000 0.000000
vn 0.000000 -1.000000 0.000000
vn 0.000000 1.000000 -0.000000
vn 0.000000 1.000000 -0.000000
vn 0.000000 -1.000000 0.000000
vn 0.000000 -1.000000 0.000000
vn 0.000000 1.000000 -0.000000
vn 0.000000 1.000000 -0.000000
vn 0.000000 -1.000000 0.000000
vn 0.000000 -1.000000 0.000000
vn 0.000000 1.000000 0.000000
vn 0.000000 1.000000 0.000000
s off
g tube_B
usemtl lambert14SG
f 1/1/1 2/2/2 22/25/3 23/27/4
f 2/2/5 3/3/6 21/24/7 22/25/8
f 3/3/9 4/4/10 20/23/11 21/24/12
f 4/4/13 5/5/14 19/22/15 20/23/16
f 5/5/17 6/6/18 24/28/19 19/22/20
f 6/6/21 1/7/22 23/26/23 24/28/24
f 14/16/25 13/15/26 11/12/27 10/11/28
f 15/17/29 14/16/30 10/11/31 9/10/32
f 16/18/33 15/17/34 9/10/35 8/9/36
f 17/20/37 16/18/38 8/9/39 7/8/40
f 18/21/41 17/19/42 7/14/43 12/13/44
f 13/15/45 18/21/46 12/13/47 11/12/48
f 26/29/49 25/30/50 27/31/51 28/32/52
f 29/33/53 26/29/54 28/32/55 30/34/56
f 31/35/57 29/33/58 30/34/59 32/36/60
f 33/37/61 31/35/62 32/36/63 34/38/64
f 35/39/65 33/40/66 34/41/67 36/42/68
f 25/30/69 35/39/70 36/42/71 27/31/72
s 1
f 20/23/73 19/22/74 25/30/75 26/29/76
s 2
f 13/15/77 14/16/78 28/32/79 27/31/80
s 1
f 21/24/81 20/23/73 26/29/76 29/33/82
s 2
f 14/16/78 15/17/83 30/34/84 28/32/79
s 1
f 22/25/85 21/24/81 29/33/82 31/35/86
s 2
f 15/17/83 16/18/87 32/36/88 30/34/84
s 1
f 23/27/89 22/25/85 31/35/86 33/37/90
s 2
f 16/18/87 17/20/91 34/38/92 32/36/88
s 1
f 24/28/93 23/26/89 33/40/90 35/39/94
s 2
f 17/19/91 18/21/95 36/42/96 34/41/92
s 1
f 19/22/74 24/28/93 35/39/94 25/30/75
s 2
f 18/21/95 13/15/77 27/31/80 36/42/96
