# This file uses centimeters as units for non-parametric coordinates.

mtllib gun.mtl
g default
v -4.771489 0.648657 0.543773
v 0.473033 0.648657 0.543773
v -4.947415 1.638527 0.543773
v 0.297107 1.638527 0.543773
v -4.947415 1.638527 -0.543773
v 0.297107 1.638527 -0.543773
v -4.771489 0.648657 -0.543773
v 0.473033 0.648657 -0.543773
v -1.069603 1.638527 0.543773
v -1.069603 1.638527 -0.543773
v -0.893677 0.648657 -0.543773
v -0.893677 0.648657 0.543773
v -0.485040 -1.161258 -0.543773
v -0.485040 -1.161258 0.543773
v 0.881670 -1.161258 -0.543773
v 0.881670 -1.161258 0.543773
vt 0.018929 0.237120
vt 0.018528 0.237120
vt 0.018929 0.236719
vt 0.018528 0.236719
vt 0.018929 0.236317
vt 0.018528 0.236317
vt 0.018929 0.235916
vt 0.018528 0.235916
vt 0.018929 0.235515
vt 0.018528 0.235515
vt 0.018126 0.237120
vt 0.018126 0.236719
vt 0.019330 0.237120
vt 0.019330 0.236719
vt 0.018615 0.236719
vt 0.018615 0.236317
vt 0.018615 0.235916
vt 0.018615 0.237120
vt 0.018615 0.235515
vt 0.018615 0.235515
vt 0.018615 0.235916
vt 0.018528 0.235916
vt 0.018528 0.235515
vn 0.000000 0.000000 1.000000
vn 0.000000 0.000000 1.000000
vn 0.000000 0.000000 1.000000
vn 0.000000 0.000000 1.000000
vn 0.000000 1.000000 0.000000
vn 0.000000 1.000000 0.000000
vn 0.000000 1.000000 0.000000
vn 0.000000 1.000000 0.000000
vn 0.000000 0.000000 -1.000000
vn 0.000000 0.000000 -1.000000
vn 0.000000 0.000000 -1.000000
vn 0.000000 0.000000 -1.000000
vn 0.000000 -1.000000 0.000000
vn 0.000000 -1.000000 0.000000
vn 0.000000 -1.000000 0.000000
vn 0.000000 -1.000000 0.000000
vn 0.978891 0.204381 0.000000
vn 0.978891 0.204381 0.000000
vn 0.984571 0.174984 0.000000
vn 0.984571 0.174984 0.000000
vn -0.984571 -0.174984 0.000000
vn -0.984571 -0.174984 0.000000
vn -0.984571 -0.174984 0.000000
vn -0.984571 -0.174984 0.000000
vn 0.000000 1.000000 0.000000
vn 0.000000 1.000000 0.000000
vn 0.000000 0.000000 -1.000000
vn 0.000000 0.000000 -1.000000
vn 0.000000 -1.000000 0.000000
vn 0.000000 -1.000000 0.000000
vn 0.000000 -1.000000 0.000000
vn 0.000000 -1.000000 0.000000
vn 0.000000 0.000000 1.000000
vn 0.000000 0.000000 1.000000
vn -0.975447 -0.220233 0.000000
vn -0.975447 -0.220233 0.000000
vn -0.975447 -0.220233 0.000000
vn -0.975447 -0.220233 0.000000
vn 0.000000 0.000000 -1.000000
vn 0.000000 0.000000 -1.000000
vn 0.975447 0.220233 0.000000
vn 0.975447 0.220233 0.000000
vn 0.000000 0.000000 1.000000
vn 0.000000 0.000000 1.000000
s 1
g Gun
usemtl lambert14SG
f 1/1/1 12/18/2 9/15/3 3/3/4
s 2
f 3/3/5 9/15/6 10/16/7 5/5/8
s 3
f 5/5/9 10/16/10 11/17/11 7/7/12
s off
f 7/7/13 11/17/14 12/19/15 1/9/16
s 4
f 2/2/17 8/11/18 6/12/19 4/4/20
s off
f 7/13/21 1/1/22 3/3/23 5/14/24
s 2
f 9/15/6 4/4/25 6/6/26 10/16/7
s 3
f 11/17/11 10/16/10 6/6/27 8/8/28
s off
f 14/20/29 13/21/30 15/22/31 16/23/32
s 1
f 9/15/3 12/18/2 2/2/33 4/4/34
s off
f 12/19/35 11/17/36 13/21/37 14/20/38
s 3
f 11/17/11 8/8/28 15/22/39 13/21/40
s 4
f 8/8/18 2/10/17 16/23/41 15/22/42
s 1
f 2/10/33 12/19/2 14/20/43 16/23/44
