# This file uses centimeters as units for non-parametric coordinates.

mtllib knife.mtl
g default
v -0.799694 1.429196 0.760282
v 0.799694 1.429196 0.760282
v -0.799694 1.700692 0.760282
v 0.799694 1.700692 0.760282
v -0.799694 1.700692 -0.760282
v 0.799694 1.700692 -0.760282
v -0.799694 1.429196 -0.760282
v 0.799694 1.429196 -0.760282
v -0.484218 1.544960 0.135427
v 0.273393 1.544960 0.135427
v -0.484218 1.544960 -0.135427
v 0.273393 1.544960 -0.135427
v 0.442312 1.544960 0.000000
v -0.483239 8.096533 0.000001
v 0.272771 7.284939 0.000001
v 0.441333 7.103983 0.000000
v -0.488611 -1.650189 0.175030
v 0.436589 -1.650189 0.175030
v -0.488611 1.500036 0.175030
v 0.436589 1.500036 0.175030
v -0.488611 1.500036 -0.175030
v 0.436589 1.500036 -0.175030
v -0.488611 -1.650189 -0.175030
v 0.436589 -1.650189 -0.175030
vt 0.086979 0.237239
vt 0.088154 0.237239
vt 0.086979 0.238413
vt 0.088154 0.238413
vt 0.086979 0.239588
vt 0.088154 0.239588
vt 0.086979 0.240762
vt 0.088154 0.240762
vt 0.086979 0.241936
vt 0.088154 0.241936
vt 0.089328 0.237239
vt 0.089328 0.238413
vt 0.085805 0.237239
vt 0.085805 0.238413
vt 0.152681 0.240762
vt 0.151507 0.240762
vt 0.151507 0.239000
vt 0.153073 0.238805
vt 0.152681 0.241936
vt 0.151507 0.241936
vt 0.150333 0.237239
vt 0.151507 0.237239
vt 0.152681 0.237239
vt 0.153856 0.237239
vt 0.153268 0.237239
vt 0.153268 0.238413
vt 0.053096 0.237239
vt 0.054270 0.237239
vt 0.054270 0.238413
vt 0.053096 0.238413
vt 0.053096 0.239588
vt 0.054270 0.239588
vt 0.054270 0.240762
vt 0.053096 0.240762
vt 0.054270 0.241936
vt 0.053096 0.241936
vt 0.055445 0.237239
vt 0.055445 0.238413
vt 0.051921 0.237239
vt 0.051921 0.238413
vn 0.000000 0.000000 1.000000
vn 0.000000 0.000000 1.000000
vn 0.000000 0.000000 1.000000
vn 0.000000 0.000000 1.000000
vn 0.000000 1.000000 0.000000
vn 0.000000 1.000000 0.000000
vn 0.000000 1.000000 0.000000
vn 0.000000 1.000000 0.000000
vn 0.000000 0.000000 -1.000000
vn 0.000000 0.000000 -1.000000
vn 0.000000 0.000000 -1.000000
vn 0.000000 0.000000 -1.000000
vn 0.000000 -1.000000 0.000000
vn 0.000000 -1.000000 0.000000
vn 0.000000 -1.000000 0.000000
vn 0.000000 -1.000000 0.000000
vn 1.000000 0.000000 0.000000
vn 1.000000 0.000000 0.000000
vn 1.000000 0.000000 0.000000
vn 1.000000 0.000000 0.000000
vn -1.000000 0.000000 0.000000
vn -1.000000 0.000000 0.000000
vn -1.000000 0.000000 0.000000
vn -1.000000 0.000000 0.000000
vn 0.011811 0.022029 -0.999688
vn 0.011811 0.022029 -0.999688
vn 0.011811 0.022029 -0.999688
vn 0.011811 0.022029 -0.999688
vn 0.000000 -1.000000 0.000000
vn 0.000000 -1.000000 0.000000
vn 0.000000 -1.000000 0.000000
vn 0.000000 -1.000000 0.000000
vn -1.000000 0.000150 0.000000
vn -1.000000 0.000150 0.000000
vn -1.000000 0.000150 0.000000
vn 0.000000 -1.000000 0.000000
vn 0.000000 -1.000000 0.000000
vn 0.000000 -1.000000 0.000000
vn 0.377539 0.011151 -0.925927
vn 0.377539 0.011151 -0.925927
vn 0.377539 0.011151 -0.925927
vn 0.377539 0.011151 -0.925927
vn 0.011811 0.022028 0.999688
vn 0.011811 0.022028 0.999688
vn 0.011811 0.022028 0.999688
vn 0.011811 0.022028 0.999688
vn 0.377539 0.011151 0.925927
vn 0.377539 0.011151 0.925927
vn 0.377539 0.011151 0.925927
vn 0.377539 0.011151 0.925927
vn 0.000000 0.000000 1.000000
vn 0.000000 0.000000 1.000000
vn 0.000000 0.000000 1.000000
vn 0.000000 0.000000 1.000000
vn 0.000000 0.000000 -1.000000
vn 0.000000 0.000000 -1.000000
vn 0.000000 0.000000 -1.000000
vn 0.000000 0.000000 -1.000000
vn 0.000000 -1.000000 0.000000
vn 0.000000 -1.000000 0.000000
vn 0.000000 -1.000000 0.000000
vn 0.000000 -1.000000 0.000000
vn 1.000000 0.000000 0.000000
vn 1.000000 0.000000 0.000000
vn 1.000000 0.000000 0.000000
vn 1.000000 0.000000 0.000000
vn -1.000000 0.000000 0.000000
vn -1.000000 0.000000 0.000000
vn -1.000000 0.000000 0.000000
vn -1.000000 0.000000 0.000000
s off
g knife
usemtl lambert14SG
f 1/1/1 2/2/2 4/4/3 3/3/4
f 3/3/5 4/4/6 6/6/7 5/5/8
f 5/5/9 6/6/10 8/8/11 7/7/12
f 7/7/13 8/8/14 2/10/15 1/9/16
f 2/2/17 8/11/18 6/12/19 4/4/20
f 7/13/21 1/1/22 3/3/23 5/14/24
f 12/15/25 11/16/26 14/17/27 15/18/28
f 11/16/29 12/15/30 10/19/31 9/20/32
f 11/21/33 9/22/34 14/17/35
f 10/23/36 12/24/37 13/25/38
f 13/25/39 12/24/40 15/18/41 16/26/42
f 10/23/43 15/18/44 14/17/45 9/22/46
f 13/25/47 16/26/48 15/18/49 10/23/50
f 17/27/51 18/28/52 20/29/53 19/30/54
f 21/31/55 22/32/56 24/33/57 23/34/58
f 23/34/59 24/33/60 18/35/61 17/36/62
f 18/28/63 24/37/64 22/38/65 20/29/66
f 23/39/67 17/27/68 19/30/69 21/40/70
