# This file uses centimeters as units for non-parametric coordinates.

mtllib sword.mtl
g default
v -1.467987 1.627620 0.380291
v 1.467987 1.627620 0.380291
v -1.467987 1.899116 0.380291
v 1.467987 1.899116 0.380291
v -1.467987 1.899116 -0.380291
v 1.467987 1.899116 -0.380291
v -1.467987 1.627620 -0.380291
v 1.467987 1.627620 -0.380291
v -0.647072 1.743384 0.135427
v 0.365341 1.743384 0.135427
v -0.647072 1.743384 -0.135427
v 0.365341 1.743384 -0.135427
v 0.591072 1.743384 0.000000
v -0.410744 17.425597 0.000001
v 0.215183 16.614001 0.000001
v 0.354744 16.433047 0.000000
v -0.407730 -2.962244 0.175030
v 0.338211 -2.962244 0.175030
v -0.407730 1.698460 0.175030
v 0.338211 1.698460 0.175030
v -0.407730 1.698460 -0.175030
v 0.338211 1.698460 -0.175030
v -0.407730 -2.962244 -0.175030
v 0.338211 -2.962244 -0.175030
vt 0.086979 0.237239
vt 0.088154 0.237239
vt 0.086979 0.238413
vt 0.088154 0.238413
vt 0.086979 0.239588
vt 0.088154 0.239588
vt 0.086979 0.240762
vt 0.088154 0.240762
vt 0.086979 0.241936
vt 0.088154 0.241936
vt 0.089328 0.237239
vt 0.089328 0.238413
vt 0.085805 0.237239
vt 0.085805 0.238413
vt 0.104191 0.208072
vt 0.097987 0.208072
vt 0.097987 0.206310
vt 0.104191 0.206114
vt 0.104191 0.209246
vt 0.097987 0.209246
vt 0.094377 0.204548
vt 0.097987 0.204548
vt 0.103207 0.204548
vt 0.105207 0.204548
vt 0.105012 0.204548
vt 0.104191 0.205723
vt 0.053096 0.237239
vt 0.054270 0.237239
vt 0.054270 0.238413
vt 0.053096 0.238413
vt 0.053096 0.239588
vt 0.054270 0.239588
vt 0.054270 0.240762
vt 0.053096 0.240762
vt 0.054270 0.241936
vt 0.053096 0.241936
vt 0.055445 0.237239
vt 0.055445 0.238413
vt 0.051921 0.237239
vt 0.051921 0.238413
vn 0.000000 0.000000 1.000000
vn 0.000000 0.000000 1.000000
vn 0.000000 0.000000 1.000000
vn 0.000000 0.000000 1.000000
vn 0.000000 1.000000 0.000000
vn 0.000000 1.000000 0.000000
vn 0.000000 1.000000 0.000000
vn 0.000000 1.000000 0.000000
vn 0.000000 0.000000 -1.000000
vn 0.000000 0.000000 -1.000000
vn 0.000000 0.000000 -1.000000
vn 0.000000 0.000000 -1.000000
vn 0.000000 -1.000000 0.000000
vn 0.000000 -1.000000 0.000000
vn 0.000000 -1.000000 0.000000
vn 0.000000 -1.000000 0.000000
vn 1.000000 0.000000 0.000000
vn 1.000000 0.000000 0.000000
vn 1.000000 0.000000 0.000000
vn 1.000000 0.000000 0.000000
vn -1.000000 0.000000 0.000000
vn -1.000000 0.000000 0.000000
vn -1.000000 0.000000 0.000000
vn -1.000000 0.000000 0.000000
vn 0.004386 0.008852 -0.999951
vn 0.004386 0.008852 -0.999951
vn 0.004386 0.008852 -0.999951
vn 0.004386 0.008852 -0.999951
vn 0.000000 -1.000000 0.000000
vn 0.000000 -1.000000 0.000000
vn 0.000000 -1.000000 0.000000
vn 0.000000 -1.000000 0.000000
vn -0.999887 0.015068 0.000000
vn -0.999887 0.015068 0.000000
vn -0.999887 0.015068 0.000000
vn 0.000000 -1.000000 0.000000
vn 0.000000 -1.000000 0.000000
vn 0.000000 -1.000000 0.000000
vn 0.351469 0.008884 -0.936157
vn 0.351469 0.008884 -0.936157
vn 0.351469 0.008884 -0.936157
vn 0.351469 0.008884 -0.936157
vn 0.004385 0.008852 0.999951
vn 0.004385 0.008852 0.999951
vn 0.004385 0.008852 0.999951
vn 0.004385 0.008852 0.999951
vn 0.351469 0.008884 0.936157
vn 0.351469 0.008884 0.936157
vn 0.351469 0.008884 0.936157
vn 0.351469 0.008884 0.936157
vn 0.000000 0.000000 1.000000
vn 0.000000 0.000000 1.000000
vn 0.000000 0.000000 1.000000
vn 0.000000 0.000000 1.000000
vn 0.000000 0.000000 -1.000000
vn 0.000000 0.000000 -1.000000
vn 0.000000 0.000000 -1.000000
vn 0.000000 0.000000 -1.000000
vn 0.000000 -1.000000 0.000000
vn 0.000000 -1.000000 0.000000
vn 0.000000 -1.000000 0.000000
vn 0.000000 -1.000000 0.000000
vn 1.000000 0.000000 0.000000
vn 1.000000 0.000000 0.000000
vn 1.000000 0.000000 0.000000
vn 1.000000 0.000000 0.000000
vn -1.000000 0.000000 0.000000
vn -1.000000 0.000000 0.000000
vn -1.000000 0.000000 0.000000
vn -1.000000 0.000000 0.000000
s off
g Sword
usemtl lambert14SG
f 1/1/1 2/2/2 4/4/3 3/3/4
f 3/3/5 4/4/6 6/6/7 5/5/8
f 5/5/9 6/6/10 8/8/11 7/7/12
f 7/7/13 8/8/14 2/10/15 1/9/16
f 2/2/17 8/11/18 6/12/19 4/4/20
f 7/13/21 1/1/22 3/3/23 5/14/24
f 12/15/25 11/16/26 14/17/27 15/18/28
f 11/16/29 12/15/30 10/19/31 9/20/32
f 11/21/33 9/22/34 14/17/35
f 10/23/36 12/24/37 13/25/38
f 13/25/39 12/24/40 15/18/41 16/26/42
f 10/23/43 15/18/44 14/17/45 9/22/46
f 13/25/47 16/26/48 15/18/49 10/23/50
f 17/27/51 18/28/52 20/29/53 19/30/54
f 21/31/55 22/32/56 24/33/57 23/34/58
f 23/34/59 24/33/60 18/35/61 17/36/62
f 18/28/63 24/37/64 22/38/65 20/29/66
f 23/39/67 17/27/68 19/30/69 21/40/70
