# This file uses centimeters as units for non-parametric coordinates.

mtllib house2_A.mtl
g default
v -52.755268 0.000061 28.139091
v 52.755264 0.000061 28.139091
v -52.755268 103.735687 28.139091
v 52.755264 103.735687 28.139091
v -52.755268 103.735687 -30.274634
v 52.755264 103.735687 -30.274634
v -52.755268 0.000061 -30.274634
v 52.755264 0.000061 -30.274634
v -52.755268 40.302516 -30.274634
v -52.755268 40.302516 28.139091
v 52.755264 40.302516 28.139091
v 52.755264 40.302516 -30.274634
v -52.755268 55.363719 28.139089
v -52.755268 55.363719 -30.274634
v 52.755264 55.363719 -30.274634
v 52.755264 55.363719 28.139089
v -16.984589 40.302516 28.139091
v -16.984589 55.363719 28.139089
v -16.984589 103.735687 28.139091
v -16.984589 103.735687 -30.274634
v -16.984589 55.363719 -30.274634
v -16.984589 40.302516 -30.274634
v -16.984589 0.000061 -30.274634
v -16.984589 0.000061 28.139091
v 15.821907 40.302516 28.139091
v 15.821907 55.363719 28.139089
v 15.821907 103.735687 28.139091
v 15.821907 103.735687 -30.274634
v 15.821907 55.363719 -30.274634
v 15.821907 40.302516 -30.274634
v 15.821907 0.000061 -30.274634
v 15.821907 0.000061 28.139091
v -52.755268 100.107070 28.139091
v -52.755268 100.107070 -30.274627
v -16.984589 100.107070 -30.274634
v 15.821907 100.107070 -30.274634
v 52.755264 100.107070 -30.274627
v 52.755264 100.107070 28.139091
v 15.821907 100.107070 28.139091
v -16.984589 100.107070 28.139091
v -55.831558 100.107070 31.215381
v -55.831558 100.107070 -33.350921
v -55.831558 103.735687 31.215381
v -55.831558 103.735687 -33.350921
v -16.984589 103.735687 -36.427215
v -16.984589 100.107070 -36.427215
v 15.821907 100.107070 -36.427215
v 15.821907 103.735687 -36.427215
v 55.831558 100.107078 -33.350921
v 55.831558 103.735702 -33.350921
v 55.831558 100.107078 31.215381
v 55.831558 103.735702 31.215381
v 15.821907 100.107070 34.291669
v 15.821907 103.735687 34.291669
v -16.984589 100.107070 34.291669
v -16.984589 103.735687 34.291669
v -54.615177 40.302516 34.567306
v -16.984589 40.302516 36.427215
v -16.984589 55.363719 36.427215
v -54.615177 55.363719 34.567302
v -54.615177 55.363719 -32.134543
v -16.984589 55.363719 -33.994452
v -16.984589 40.302516 -33.994452
v -54.615177 40.302516 -32.134543
v 54.615173 40.302516 34.567306
v 54.615173 40.302516 -32.134543
v 54.615173 55.363719 -32.134543
v 54.615173 55.363719 34.567302
v 15.821907 40.302516 36.427215
v 15.821907 55.363719 36.427215
v 15.821907 55.363719 -33.994452
v 15.821907 40.302516 -33.994452
v -16.984589 0.000061 24.152387
v -16.984589 40.302516 24.152387
v 15.821907 0.000061 24.152387
v 15.821907 40.302516 24.152387
v -54.579933 0.000061 30.564130
v 55.079498 0.000060 30.564130
v -54.579933 2.414630 30.564130
v 55.079498 2.414630 30.564130
v -54.579933 2.414630 -33.712916
v 55.079498 2.414630 -33.712916
v -54.579933 0.000061 -33.712916
v 55.079498 0.000060 -33.712916
vt 0.929005 0.543606
vt 0.949236 0.543606
vt 0.949236 0.602948
vt 0.929005 0.602948
vt 0.929005 0.602948
vt 0.949236 0.602948
vt 0.949236 0.543606
vt 0.929005 0.543606
vt 0.930530 0.583898
vt 0.949342 0.583898
vt 0.949342 0.583898
vt 0.930530 0.583898
vt 0.966596 0.583898
vt 0.966596 0.583898
vt 0.986020 0.583898
vt 0.986020 0.583898
vt 0.928912 0.563179
vt 0.928912 0.563179
vt 0.928912 0.583898
vt 0.928912 0.583898
vt 0.949342 0.583898
vt 0.949342 0.563179
vt 0.966596 0.563179
vt 0.966596 0.583898
vt 0.987731 0.543606
vt 0.987731 0.543606
vt 0.987731 0.602948
vt 0.987731 0.602948
vt 0.966874 0.543606
vt 0.966874 0.602948
vt 0.966874 0.602948
vt 0.966874 0.543606
vt 0.930005 0.543606
vt 0.949236 0.543606
vt 0.949236 0.602948
vt 0.930005 0.602948
vt 0.930005 0.602948
vt 0.949236 0.602948
vt 0.949236 0.543606
vt 0.930005 0.543606
vt 0.488534 0.543029
vt 0.706842 0.543029
vt 0.706842 0.693650
vt 0.488534 0.693650
vt 0.011827 0.542679
vt 0.145511 0.542678
vt 0.145512 0.693299
vt 0.011827 0.693299
vt 0.488534 0.543029
vt 0.706842 0.543029
vt 0.706842 0.693650
vt 0.488534 0.693650
vt 0.916106 0.543198
vt 0.916106 0.681203
vt 0.748888 0.681203
vt 0.748888 0.543198
vt 0.916106 0.803810
vt 0.748888 0.803810
vt 0.916106 0.937519
vt 0.748888 0.937519
vt 0.488534 0.714281
vt 0.706842 0.714281
vt 0.706842 0.881499
vt 0.488534 0.881499
vt 0.916106 0.543198
vt 0.916106 0.681203
vt 0.748888 0.681203
vt 0.748888 0.543198
vt 0.916106 0.803810
vt 0.748888 0.803810
vt 0.916106 0.937519
vt 0.748888 0.937519
vt 0.488534 0.714281
vt 0.706842 0.714281
vt 0.706842 0.881499
vt 0.488534 0.881499
vt 0.014787 0.718459
vt 0.148471 0.718458
vt 0.148471 0.885676
vt 0.014787 0.885676
vt 0.271078 0.718459
vt 0.271078 0.885676
vt 0.409107 0.718459
vt 0.409107 0.885676
vt 0.174923 0.693483
vt 0.174923 0.542862
vt 0.297530 0.542862
vt 0.297530 0.693483
vt 0.329070 0.693226
vt 0.329069 0.542605
vt 0.467099 0.542605
vt 0.467099 0.693226
vt 0.987638 0.563179
vt 0.987638 0.583899
vt 0.987638 0.563179
vt 0.987638 0.583899
vt 0.966596 0.583898
vt 0.966596 0.563179
vt 0.949342 0.583898
vt 0.949342 0.563179
vt 0.930530 0.563179
vt 0.930530 0.563179
vt 0.949342 0.563179
vt 0.966596 0.563179
vt 0.986020 0.563179
vt 0.986020 0.563179
vt 0.966596 0.563179
vt 0.949342 0.563179
vt 0.314170 0.542605
vt 0.314170 0.693226
vt 0.160411 0.542678
vt 0.160411 0.693299
vt 0.966874 0.543606
vt 0.949236 0.543606
vt 0.966874 0.543606
vt 0.966874 0.602948
vt 0.966874 0.602948
vt 0.966874 0.543606
vt 0.986731 0.602948
vt 0.986731 0.602948
vt 0.986731 0.543606
vt 0.986731 0.543606
vt 0.936868 0.551242
vt 0.980702 0.551242
vt 0.980702 0.551242
vt 0.936868 0.551242
vt 0.980702 0.595075
vt 0.936868 0.595075
vt 0.980702 0.595075
vt 0.936868 0.595075
vn -0.049365 0.000000 0.998781
vn -0.024690 0.000000 0.999695
vn -0.024690 0.000000 0.999695
vn -0.049365 0.000000 0.998781
vn 0.000000 1.000000 0.000000
vn 0.000000 1.000000 0.000000
vn 0.000000 1.000000 -0.000000
vn 0.000000 1.000000 -0.000000
vn -0.049365 0.000000 -0.998781
vn -0.024690 0.000000 -0.999695
vn -0.024690 0.000000 -0.999695
vn -0.049365 0.000000 -0.998781
vn 1.000000 0.000000 0.000000
vn 1.000000 0.000000 0.000000
vn 1.000000 0.000000 0.000000
vn 1.000000 0.000000 0.000000
vn -1.000000 0.000000 0.000000
vn -1.000000 0.000000 0.000000
vn -1.000000 0.000000 0.000000
vn -1.000000 0.000000 0.000000
vn -1.000000 0.000000 0.000000
vn -1.000000 0.000000 0.000000
vn -1.000000 0.000000 0.000000
vn -1.000000 0.000000 0.000000
vn 0.000000 0.000000 1.000000
vn 0.000000 0.000000 1.000000
vn 0.000000 0.000000 1.000000
vn 0.000000 0.000000 1.000000
vn 1.000000 0.000000 0.000000
vn 1.000000 0.000000 0.000000
vn 1.000000 0.000000 0.000000
vn 1.000000 0.000000 0.000000
vn 0.000000 0.000000 -1.000000
vn 0.000000 0.000000 -1.000000
vn 0.000000 0.000000 -1.000000
vn 0.000000 0.000000 -1.000000
vn -1.000000 0.000000 0.000000
vn -1.000000 0.000000 0.000000
vn -1.000000 0.000000 0.000000
vn -1.000000 0.000000 0.000000
vn -0.000000 0.000000 -1.000000
vn -0.000000 0.000000 -1.000000
vn -0.000000 0.000000 -1.000000
vn -0.000000 0.000000 -1.000000
vn 1.000000 0.000000 0.000000
vn 1.000000 0.000000 0.000000
vn 1.000000 0.000000 0.000000
vn 1.000000 0.000000 0.000000
vn 0.000000 -0.000000 1.000000
vn 0.000000 -0.000000 1.000000
vn 0.000000 -0.000000 1.000000
vn 0.000000 -0.000000 1.000000
vn 0.023951 0.000000 0.999713
vn 0.023951 0.000000 0.999713
vn 0.000000 -0.000000 1.000000
vn 0.000000 -0.000000 1.000000
vn -0.000000 1.000000 -0.000001
vn -0.000000 1.000000 0.000001
vn 0.000000 0.000000 -1.000000
vn 0.000000 0.000000 -1.000000
vn 0.023951 0.000000 -0.999713
vn 0.023951 0.000000 -0.999713
vn 0.000000 0.000000 -1.000000
vn 0.000000 0.000000 -1.000000
vn 0.000000 0.000000 1.000000
vn 0.000000 0.000000 1.000000
vn 0.000000 0.000000 1.000000
vn 0.000000 0.000000 1.000000
vn 0.047889 0.000000 0.998853
vn 0.047889 0.000000 0.998853
vn 0.000000 -0.000000 1.000000
vn 0.000000 -0.000000 1.000000
vn -0.000002 1.000000 -0.000001
vn -0.000002 1.000000 0.000001
vn 0.000000 0.000000 -1.000000
vn 0.000000 0.000000 -1.000000
vn 0.047889 0.000000 -0.998853
vn 0.047889 0.000000 -0.998853
vn 0.000000 0.000000 -1.000000
vn 0.000000 0.000000 -1.000000
vn 0.000000 0.000000 1.000000
vn 0.000000 0.000000 1.000000
vn 0.000000 0.000000 1.000000
vn 0.000000 0.000000 1.000000
vn -1.000000 0.000000 0.000000
vn -1.000000 0.000000 0.000000
vn -1.000000 0.000000 0.000000
vn -1.000000 0.000000 0.000000
vn -0.078943 0.000000 -0.996879
vn -0.039502 0.000000 -0.999220
vn -0.039502 0.000000 -0.999220
vn -0.078943 0.000000 -0.996879
vn 0.038359 0.000000 -0.999264
vn 0.038359 0.000000 -0.999264
vn 0.076662 0.000000 -0.997057
vn 0.076662 0.000000 -0.997057
vn 1.000000 0.000000 0.000000
vn 1.000000 0.000000 0.000000
vn 1.000000 0.000000 0.000000
vn 1.000000 0.000000 0.000000
vn 0.038359 0.000000 0.999264
vn 0.038359 0.000000 0.999264
vn 0.076662 0.000000 0.997057
vn 0.076662 0.000000 0.997057
vn -0.039502 0.000000 0.999220
vn -0.039502 0.000000 0.999220
vn -0.078943 0.000000 0.996879
vn -0.078943 0.000000 0.996879
vn 0.000000 -1.000000 0.000000
vn 0.000000 -1.000000 0.000000
vn 0.000000 -1.000000 0.000000
vn 0.000000 -1.000000 0.000000
vn 0.000000 1.000000 -0.000000
vn 0.000000 1.000000 0.000000
vn 0.000000 1.000000 -0.000000
vn 0.000000 -1.000000 0.000000
vn 0.000000 -1.000000 0.000000
vn 0.000000 -1.000000 -0.000000
vn 0.000000 -1.000000 -0.000000
vn -0.000000 1.000000 0.000001
vn 0.000001 -1.000000 -0.000000
vn 0.000001 -1.000000 -0.000000
vn -0.000003 1.000000 0.000001
vn 0.000001 -1.000000 0.000001
vn 0.000001 -1.000000 0.000001
vn -0.000003 1.000000 -0.000001
vn 0.000000 -1.000000 0.000001
vn 0.000000 -1.000000 0.000001
vn -0.000000 1.000000 -0.000001
vn 0.000000 -1.000000 0.000000
vn 0.000000 -1.000000 0.000000
vn 0.000000 1.000000 0.000000
vn 0.000000 -1.000000 -0.000000
vn 0.000000 -1.000000 -0.000000
vn 0.000000 -1.000000 -0.000000
vn 0.000000 -1.000000 -0.000000
vn 0.000000 1.000000 0.000000
vn 0.000000 1.000000 0.000000
vn 0.000000 1.000000 0.000000
vn 0.000000 1.000000 0.000000
vn 0.000000 1.000000 0.000000
vn 0.000000 1.000000 0.000000
vn 0.000000 1.000000 0.000000
vn 0.000000 1.000000 0.000000
vn 0.000000 -1.000000 0.000000
vn 0.000000 -1.000000 0.000000
vn 0.000000 -1.000000 0.000000
vn 0.000000 -1.000000 0.000000
vn 0.000000 -1.000000 0.000000
vn 0.000000 -1.000000 0.000000
vn 0.000000 -1.000000 0.000000
vn 0.000000 -1.000000 0.000000
vn 0.000000 1.000000 0.000000
vn 0.000000 1.000000 0.000000
vn 0.000000 1.000000 0.000000
vn 0.000000 1.000000 0.000000
vn 0.000000 -1.000000 0.000000
vn 0.000000 -1.000000 0.000000
vn 0.000000 1.000000 0.000000
vn 0.000000 1.000000 0.000000
vn 0.000000 1.000000 0.000000
vn 0.000000 1.000000 0.000000
vn 0.000000 -1.000000 0.000000
vn 0.000000 -1.000000 0.000000
vn 1.000000 0.000000 0.000000
vn 1.000000 0.000000 0.000000
vn 1.000000 0.000000 0.000000
vn 1.000000 0.000000 0.000000
vn -1.000000 0.000000 0.000000
vn -1.000000 0.000000 0.000000
vn -1.000000 0.000000 0.000000
vn -1.000000 0.000000 0.000000
vn 0.000000 -1.000000 0.000000
vn 0.000000 -1.000000 0.000000
vn 0.000000 0.000000 1.000000
vn 0.000000 0.000000 1.000000
vn 0.000000 0.000000 1.000000
vn 0.000000 0.000000 1.000000
vn 0.000000 1.000000 0.000000
vn 0.000000 1.000000 0.000000
vn 0.000000 1.000000 0.000000
vn 0.000000 1.000000 0.000000
vn 0.000000 0.000000 -1.000000
vn 0.000000 0.000000 -1.000000
vn 0.000000 0.000000 -1.000000
vn 0.000000 0.000000 -1.000000
vn -0.000000 -1.000000 0.000000
vn -0.000000 -1.000000 0.000000
vn -0.000000 -1.000000 0.000000
vn -0.000000 -1.000000 0.000000
vn 1.000000 0.000000 0.000000
vn 1.000000 0.000000 0.000000
vn 1.000000 0.000000 0.000000
vn 1.000000 0.000000 0.000000
vn -1.000000 0.000000 0.000000
vn -1.000000 0.000000 0.000000
vn -1.000000 0.000000 0.000000
vn -1.000000 0.000000 0.000000
s 1
g house2_A
usemtl lambert6SG
f 57/1/1 58/2/2 59/3/3 60/4/4
s 2
f 3/9/5 19/10/6 20/11/7 5/12/8
s 3
f 61/5/9 62/6/10 63/7/11 64/8/12
s off
f 65/25/13 66/26/14 67/27/15 68/28/16
f 64/8/17 57/1/18 60/4/19 61/5/20
f 7/41/21 1/42/22 10/43/23 9/44/24
f 1/45/25 24/46/26 17/47/27 10/48/28
f 2/49/29 8/50/30 12/51/31 11/52/32
s 4
f 9/53/33 22/54/34 23/55/35 7/56/36
s off
f 14/61/37 13/62/38 33/63/39 34/64/40
s 5
f 34/65/41 35/66/42 21/67/43 14/68/44
s off
f 16/73/45 15/74/46 37/75/47 38/76/48
s 6
f 13/77/49 18/78/50 40/79/51 33/80/52
s 1
f 58/2/2 69/29/53 70/30/54 59/3/3
s 6
f 40/79/51 18/78/50 26/81/55 39/82/56
s 2
f 20/11/7 19/10/6 27/13/57 28/14/58
s 5
f 21/67/43 35/66/42 36/69/59 29/70/60
s 3
f 63/7/11 62/6/10 71/31/61 72/32/62
s 4
f 23/55/35 22/54/34 30/57/63 31/58/64
s off
f 74/85/65 73/86/66 75/87/67 76/88/68
s 1
f 69/29/53 65/25/69 68/28/70 70/30/54
s 6
f 39/82/56 26/81/55 16/83/71 38/84/72
s 2
f 28/14/58 27/13/57 4/15/73 6/16/74
s 5
f 29/70/60 36/69/59 37/71/75 15/72/76
s 3
f 72/32/62 71/31/61 67/27/77 66/26/78
s 4
f 31/58/64 30/57/63 12/59/79 8/60/80
s off
f 25/89/81 32/90/82 2/91/83 11/92/84
f 42/17/85 41/18/86 43/19/87 44/20/88
s 7
f 44/20/89 45/21/90 46/22/91 42/17/92
f 47/23/93 46/22/91 45/21/90 48/24/94
f 49/93/95 47/23/93 48/24/94 50/94/96
s off
f 51/95/97 49/93/98 50/94/99 52/96/100
s 8
f 54/97/101 53/98/102 51/95/103 52/96/104
f 56/99/105 55/100/106 53/98/102 54/97/101
f 41/18/107 55/100/106 56/99/105 43/19/108
s 9
f 34/101/109 33/102/110 41/18/111 42/17/112
s 2
f 3/9/5 5/12/8 44/20/113 43/19/114
f 5/12/8 20/11/7 45/21/115 44/20/113
s 9
f 35/103/116 34/101/109 42/17/112 46/22/117
f 36/104/118 35/103/116 46/22/117 47/23/119
s 2
f 20/11/7 28/14/58 48/24/120 45/21/115
s 9
f 37/105/121 36/104/118 47/23/119 49/93/122
s 2
f 28/14/58 6/16/74 50/94/123 48/24/120
s 9
f 38/106/124 37/105/121 49/93/122 51/95/125
s 2
f 6/16/74 4/15/73 52/96/126 50/94/123
s 9
f 39/107/127 38/106/124 51/95/125 53/98/128
s 2
f 4/15/73 27/13/57 54/97/129 52/96/126
s 9
f 40/108/130 39/107/127 53/98/128 55/100/131
s 2
f 27/13/57 19/10/6 56/99/132 54/97/129
s 9
f 33/102/110 40/108/130 55/100/131 41/18/111
s 2
f 19/10/6 3/9/5 43/19/114 56/99/132
s 10
f 10/33/133 17/34/134 58/2/135 57/1/136
s 11
f 18/35/137 13/36/138 60/4/139 59/3/140
f 14/37/141 21/38/142 62/6/143 61/5/144
s 10
f 22/39/145 9/40/146 64/8/147 63/7/148
f 11/122/149 12/121/150 66/26/151 65/25/152
s 11
f 15/120/153 16/119/154 68/28/155 67/27/156
s 10
f 9/40/146 10/33/133 57/1/136 64/8/147
s 11
f 13/36/138 14/37/141 61/5/144 60/4/139
s 10
f 17/34/134 25/118/157 69/29/158 58/2/135
s 11
f 26/117/159 18/35/137 59/3/140 70/30/160
f 21/38/142 29/116/161 71/31/162 62/6/143
s 10
f 30/115/163 22/39/145 63/7/148 72/32/164
f 25/118/157 11/122/149 65/25/152 69/29/158
s 11
f 16/119/154 26/117/159 70/30/160 68/28/155
f 29/116/161 15/120/153 67/27/156 71/31/162
s 10
f 12/121/150 30/115/163 72/32/164 66/26/151
s off
f 17/47/165 24/46/166 73/111/167 74/112/168
f 32/90/169 25/89/170 76/110/171 75/109/172
s 10
f 25/118/157 17/34/134 74/114/173 76/113/174
s off
f 77/123/175 78/124/176 80/125/177 79/126/178
f 79/126/179 80/125/180 82/127/181 81/128/182
f 81/128/183 82/127/184 84/129/185 83/130/186
f 83/130/187 84/129/188 78/124/189 77/123/190
f 78/124/191 84/129/192 82/127/193 80/125/194
f 83/130/195 77/123/196 79/126/197 81/128/198
