# This file uses centimeters as units for non-parametric coordinates.

mtllib house7_A.mtl
g default
v -136.062988 43.184251 -48.927479
v -136.062988 29.883287 -48.927479
v -134.835083 29.883287 -48.927402
v -134.835083 43.184251 -48.927402
v -134.810547 29.883287 17.636849
v -134.810547 43.184251 17.636849
v -124.570313 43.184251 28.837255
v -124.570313 29.883287 28.837255
v -124.572083 29.883287 27.238789
v -124.572083 43.184251 27.238789
v -8.196533 29.883287 27.238812
v -8.196533 43.184251 27.238812
v 22.602539 29.883287 27.238778
v 22.602539 43.184251 27.238778
v -136.054932 29.883287 17.638542
v -136.054932 43.184251 17.638542
v -136.060181 29.883287 28.837428
v -136.060181 43.184251 28.837428
v -134.810547 0.001398 17.636849
v -136.054932 0.001398 17.638542
v -134.835083 0.001398 -48.927402
v -136.062988 0.001398 -48.927479
v 123.668823 29.883287 27.238767
v 123.668823 43.184251 27.238767
v 123.669006 29.883287 28.837255
v 123.669006 43.184251 28.837255
v 135.159119 29.883287 28.837428
v 135.159119 43.184251 28.837262
v 135.159119 29.883287 17.639812
v 135.159119 43.184251 17.639812
v 134.092896 29.883287 17.637695
v 134.092896 43.184251 17.637695
v 134.072021 29.883287 -48.927341
v 134.072021 43.184251 -48.927341
v 135.159119 29.883287 -48.927357
v 135.159119 43.184251 -48.927357
v 123.668091 43.184255 -58.739582
v 123.668091 29.883287 -58.739582
v -124.571899 29.883287 -58.744068
v -124.571899 43.184251 -58.744068
v -124.573486 29.883287 -60.063473
v -124.573486 43.184251 -60.063473
v 135.159119 29.883287 -60.063465
v 135.159119 43.184251 -60.063465
v 123.669189 29.883287 -60.059490
v 123.669189 43.184251 -60.059490
v -136.053223 29.883287 -60.063473
v -136.053223 43.184251 -60.063473
v 123.668091 0.001398 -58.739582
v -124.571899 0.001398 -58.744068
v 123.669189 0.001398 -60.059490
v -8.196533 0.001398 27.238812
v -7.715942 0.001398 21.536187
v -7.715942 29.883287 21.536187
v -124.572083 0.001398 27.238789
v -124.570313 0.001398 28.837255
v -124.573486 0.001398 -60.063473
v 135.159119 0.001398 -48.927357
v 135.159119 0.001398 -60.063465
v 134.072021 0.001398 -48.927341
v 134.092896 0.001398 17.637695
v 22.122009 29.883287 21.532850
v 135.159119 0.001398 17.639812
v 135.159119 0.001398 28.837428
v 123.669006 0.001398 28.837255
v 123.668823 0.001398 27.238767
v 22.602539 0.001398 27.238778
v 22.122009 0.001398 21.532850
v -136.060181 0.001398 28.837428
v -136.053223 0.001398 -60.063473
v 123.669189 65.002000 -60.059490
v 135.159119 65.002000 -60.063465
v 123.668091 65.002008 -58.739582
v -136.062988 65.002000 -48.927479
v -136.053223 65.002000 -60.063473
v -124.571899 65.002000 -58.744068
v -124.573486 65.002000 -60.063473
v -134.835083 65.002000 -48.927402
v -134.810547 65.002000 17.636849
v -136.054932 65.002000 17.638542
v -124.570313 65.002000 28.837255
v -136.060181 65.002000 28.837428
v 135.159119 65.002000 17.639812
v 135.159119 65.002000 28.837262
v 134.092896 65.002000 17.637695
v 134.072021 65.002000 -48.927341
v 135.159119 65.002000 -48.927357
v -124.572083 65.002000 27.238789
v -8.196533 65.002000 27.238812
v 22.602539 65.002000 27.238778
v 123.668823 65.002000 27.238767
v 123.669006 65.002000 28.837255
v -141.740417 63.951894 33.727776
v 141.740417 63.951891 33.727779
v -141.740417 76.677286 33.727776
v 141.740417 76.677286 33.727779
v -141.740417 76.677286 -66.187366
v 141.740417 76.677286 -66.187366
v -141.740417 63.951894 -66.187366
v 141.740417 63.951891 -66.187366
v -37.543640 34.145784 66.187366
v 50.830994 34.145784 66.187366
v -37.543640 40.336092 66.187366
v 50.830994 40.336092 66.187366
v -37.543640 40.336092 22.929968
v 50.830994 40.336092 22.929968
v -37.543640 34.145784 22.929968
v 50.830994 34.145784 22.929968
v 39.238586 0.041194 62.228008
v 46.868164 0.041194 62.228008
v 39.238586 36.371629 62.228008
v 46.868164 36.371629 62.228008
v 39.238586 36.371629 56.158424
v 46.868164 36.371629 56.158424
v 39.238586 0.041194 56.158424
v 46.868164 0.041194 56.158424
v -34.897644 0.041194 62.228008
v -27.268005 0.041194 62.228008
v -34.897644 36.371629 62.228008
v -27.268005 36.371629 62.228008
v -34.897644 36.371629 56.158424
v -27.268005 36.371629 56.158424
v -34.897644 0.041194 56.158424
v -27.268005 0.041194 56.158424
vt 0.344212 0.106467
vt 0.801148 0.244033
vt 0.851488 0.244033
vt 0.344212 0.024549
vt 0.363902 0.024549
vt 0.363902 0.106467
vt 0.808547 0.355949
vt 0.842702 0.355960
vt 0.850572 0.323613
vt 0.800677 0.323613
vt 0.777130 0.421404
vt 0.784140 0.421404
vt 0.408955 0.024549
vt 0.851488 0.312933
vt 0.428645 0.024549
vt 0.777130 0.336968
vt 0.428645 0.106467
vt 0.408955 0.106467
vt 0.784140 0.336968
vt 0.801148 0.312933
vt 0.732624 0.306371
vt 0.725967 0.306371
vt 0.725967 0.242514
vt 0.732624 0.242514
vt 0.732624 0.336968
vt 0.725967 0.336968
vt 0.732624 0.421404
vt 0.725967 0.421404
vt 0.784140 0.306371
vt 0.777130 0.306371
vt 0.777130 0.242514
vt 0.784140 0.242514
vt 0.784140 0.336968
vt 0.777130 0.336968
vt 0.784140 0.421403
vt 0.777130 0.421403
vt 0.777130 0.306371
vt 0.777130 0.242514
vt 0.784140 0.242514
vt 0.784140 0.306371
vt 0.784140 0.336968
vt 0.777130 0.336968
vt 0.784140 0.421404
vt 0.777130 0.421404
vt 0.777130 0.306371
vt 0.777130 0.242514
vt 0.784140 0.242514
vt 0.784140 0.306371
vt 0.784140 0.336968
vt 0.777130 0.336968
vt 0.784140 0.421404
vt 0.777130 0.421404
vt 0.725967 0.306371
vt 0.725967 0.242514
vt 0.732624 0.242514
vt 0.732624 0.306371
vt 0.732624 0.336968
vt 0.725967 0.336968
vt 0.732624 0.421404
vt 0.725967 0.421404
vt 0.732624 0.306371
vt 0.732624 0.242514
vt 0.754621 0.242514
vt 0.754621 0.306371
vt 0.754621 0.336968
vt 0.732624 0.336968
vt 0.754621 0.421404
vt 0.732624 0.421404
vt 0.725967 0.306371
vt 0.725967 0.242514
vt 0.732624 0.242514
vt 0.732624 0.306371
vt 0.732624 0.242514
vt 0.725967 0.336968
vt 0.732624 0.306371
vt 0.725967 0.421404
vt 0.754621 0.242514
vt 0.777130 0.242514
vt 0.777130 0.306371
vt 0.754621 0.306371
vt 0.754621 0.421404
vt 0.754621 0.306371
vt 0.777130 0.421404
vt 0.754621 0.242514
vt 0.754621 0.242514
vt 0.777130 0.242514
vt 0.777130 0.306371
vt 0.754621 0.306371
vt 0.725967 0.336968
vt 0.754621 0.336968
vt 0.732624 0.336968
vt 0.754621 0.421404
vt 0.732624 0.242514
vt 0.754621 0.242514
vt 0.754621 0.306371
vt 0.732624 0.306371
vt 0.725967 0.421404
vt 0.732624 0.306371
vt 0.732624 0.421404
vt 0.732624 0.242514
vt 0.754621 0.242514
vt 0.777130 0.242514
vt 0.777130 0.306371
vt 0.754621 0.306371
vt 0.754621 0.336968
vt 0.754621 0.336968
vt 0.754621 0.242514
vt 0.754621 0.421404
vt 0.732624 0.242514
vt 0.725967 0.242514
vt 0.725967 0.306371
vt 0.732624 0.306371
vt 0.754621 0.336968
vt 0.777130 0.336968
vt 0.754621 0.421404
vt 0.754621 0.306371
vt 0.777130 0.306371
vt 0.777130 0.242514
vt 0.784140 0.242514
vt 0.784140 0.306371
vt 0.908221 0.106521
vt 0.725739 0.106521
vt 0.725739 0.024602
vt 0.908221 0.024602
vt 0.908221 0.142985
vt 0.725739 0.142985
vt 0.908221 0.202796
vt 0.725739 0.202796
vt 0.025181 0.327353
vt 0.025181 0.245435
vt 0.705709 0.245434
vt 0.705709 0.327353
vt 0.705709 0.363816
vt 0.025181 0.363817
vt 0.705709 0.423628
vt 0.025181 0.423628
vt 0.025179 0.106467
vt 0.025179 0.024549
vt 0.725739 0.202796
vt 0.908221 0.202796
vt 0.344212 0.142931
vt 0.025179 0.142931
vt 0.725739 0.142985
vt 0.428645 0.142931
vt 0.344212 0.202742
vt 0.025179 0.202742
vt 0.705710 0.106467
vt 0.705710 0.142931
vt 0.428645 0.202742
vt 0.705710 0.202742
vt 0.908221 0.142985
vt 0.705710 0.024549
vt 0.725739 0.106521
vt 0.725739 0.024602
vt 0.908221 0.024602
vt 0.908221 0.106521
vt 0.868663 0.263142
vt 0.901933 0.263142
vt 0.901933 0.263142
vt 0.868663 0.263142
vt 0.901933 0.276515
vt 0.868663 0.276515
vt 0.901933 0.276515
vt 0.868663 0.276515
vt 0.862745 0.246499
vt 0.907913 0.246499
vt 0.907913 0.246499
vt 0.862745 0.246499
vt 0.907913 0.292102
vt 0.862745 0.292102
vt 0.907913 0.292102
vt 0.862745 0.292102
vt 0.862745 0.246499
vt 0.907913 0.246499
vt 0.907913 0.246499
vt 0.862745 0.246499
vt 0.907913 0.292102
vt 0.862745 0.292102
vt 0.907913 0.292102
vt 0.862745 0.292102
vt 0.862745 0.246499
vt 0.907913 0.246499
vt 0.907913 0.246499
vt 0.862745 0.246499
vt 0.907913 0.292102
vt 0.862745 0.292102
vt 0.907913 0.292102
vt 0.862745 0.292102
vn -0.001360 0.000000 -0.999999
vn -0.001360 0.000000 -0.999999
vn -0.001360 0.000000 -0.999999
vn -0.001360 0.000000 -0.999999
vn -1.000000 0.000000 0.000369
vn -1.000000 0.000000 0.000369
vn -1.000000 0.000000 0.000369
vn -1.000000 0.000000 0.000369
vn -0.000067 0.000000 1.000000
vn -0.000067 0.000000 1.000000
vn -0.000067 0.000000 1.000000
vn -0.000067 0.000000 1.000000
vn 0.000018 0.000000 -1.000000
vn 0.000018 0.000000 -1.000000
vn 0.000018 0.000000 -1.000000
vn 0.000018 0.000000 -1.000000
vn -1.000000 0.000000 -0.000832
vn -1.000000 0.000000 -0.000832
vn -1.000000 0.000000 -0.000832
vn -1.000000 0.000000 -0.000832
vn 0.996468 0.000000 0.083978
vn 0.996468 0.000000 0.083978
vn 0.996468 0.000000 0.083978
vn 0.996468 0.000000 0.083978
vn -0.000000 0.000000 1.000000
vn -0.000000 0.000000 1.000000
vn -0.000000 0.000000 1.000000
vn -0.000000 0.000000 1.000000
vn 0.999999 0.000000 -0.001107
vn 0.999999 0.000000 -0.001107
vn 0.999999 0.000000 -0.001107
vn 0.999999 0.000000 -0.001107
vn 0.999999 0.000000 -0.001203
vn 0.999999 0.000000 -0.001203
vn 0.999999 0.000000 -0.001203
vn 0.999999 0.000000 -0.001203
vn 1.000000 0.000000 0.000000
vn 1.000000 0.000000 0.000000
vn 1.000000 0.000000 0.000000
vn 1.000000 0.000000 0.000000
vn 0.000015 0.000000 1.000000
vn 0.000015 0.000000 1.000000
vn 0.000015 0.000000 1.000000
vn 0.000015 0.000000 1.000000
vn 1.000000 0.000000 -0.000314
vn 1.000000 0.000000 -0.000314
vn 1.000000 0.000000 -0.000314
vn 1.000000 0.000000 -0.000314
vn 0.000000 -1.000000 0.000000
vn 0.000000 -1.000000 0.000000
vn 0.000000 -1.000000 0.000000
vn 0.000000 -1.000000 0.000000
vn -0.000346 0.000000 -1.000000
vn -0.000346 0.000000 -1.000000
vn -0.000346 0.000000 -1.000000
vn -0.000346 0.000000 -1.000000
vn 0.000000 0.000000 1.000000
vn 0.000000 0.000000 1.000000
vn 0.000000 0.000000 1.000000
vn 0.000000 0.000000 1.000000
vn -0.996473 0.000000 0.083919
vn -0.996473 0.000000 0.083919
vn -0.996473 0.000000 0.083919
vn -0.996473 0.000000 0.083919
vn 0.000112 0.000000 1.000000
vn 0.000112 0.000000 1.000000
vn 0.000112 0.000000 1.000000
vn 0.000112 0.000000 1.000000
vn 0.000015 0.000000 1.000000
vn 0.000015 0.000000 1.000000
vn 0.000015 0.000000 1.000000
vn 0.000015 0.000000 1.000000
vn -1.000000 0.000000 -0.000469
vn -1.000000 0.000000 -0.000469
vn -1.000000 0.000000 -0.000469
vn -1.000000 0.000000 -0.000469
vn -1.000000 0.000000 -0.000877
vn -1.000000 0.000000 -0.000877
vn -1.000000 0.000000 -0.000877
vn -1.000000 0.000000 -0.000877
vn 0.000000 0.000000 -1.000000
vn 0.000000 0.000000 -1.000000
vn 0.000000 0.000000 -1.000000
vn 0.000000 0.000000 -1.000000
vn -0.000061 0.000000 1.000000
vn -0.000061 0.000000 1.000000
vn -0.000064 0.000000 1.000000
vn -0.000064 0.000000 1.000000
vn -1.000000 0.000000 0.000369
vn -1.000000 0.000000 0.000369
vn -1.000000 0.000000 0.000369
vn -1.000000 0.000000 0.000369
vn -0.001360 0.000000 -0.999999
vn -0.001360 0.000000 -0.999999
vn -0.001360 0.000000 -0.999999
vn -0.001360 0.000000 -0.999999
vn 0.000018 0.000000 -1.000000
vn 0.000018 0.000000 -1.000000
vn 0.000018 0.000000 -1.000000
vn 0.000018 0.000000 -1.000000
vn 0.999999 0.000000 -0.001203
vn 0.999999 0.000000 -0.001203
vn 0.999999 0.000000 -0.001203
vn 0.999999 0.000000 -0.001203
vn -1.000000 0.000000 -0.000832
vn -1.000000 0.000000 -0.000832
vn -1.000000 0.000000 -0.000832
vn -1.000000 0.000000 -0.000832
vn 0.000000 0.000000 -1.000000
vn 0.000000 0.000000 -1.000000
vn 0.000000 0.000000 -1.000000
vn 0.000000 0.000000 -1.000000
vn -1.000000 0.000000 -0.000877
vn -1.000000 0.000000 -0.000877
vn -1.000000 0.000000 -0.000877
vn -1.000000 0.000000 -0.000877
vn 0.001986 0.000000 -0.999998
vn 0.001986 0.000000 -0.999998
vn 0.001986 0.000000 -0.999998
vn 0.001986 0.000000 -0.999998
vn 1.000000 0.000000 0.000000
vn 1.000000 0.000000 0.000000
vn 1.000000 0.000000 0.000000
vn 1.000000 0.000000 0.000000
vn -0.000015 0.000000 1.000000
vn -0.000015 0.000000 1.000000
vn -0.000015 0.000000 1.000000
vn -0.000015 0.000000 1.000000
vn -1.000000 0.000000 0.000115
vn -1.000000 0.000000 0.000115
vn -1.000000 0.000000 0.000115
vn -1.000000 0.000000 0.000115
vn 0.999999 0.000000 -0.001107
vn 0.999999 0.000000 -0.001107
vn 0.999999 0.000000 -0.001107
vn 0.999999 0.000000 -0.001107
vn -0.000000 0.000000 1.000000
vn 0.000000 0.000000 1.000000
vn -0.000000 0.000000 1.000000
vn -0.000000 0.000000 1.000000
vn 0.000001 0.000000 1.000000
vn 0.000001 0.000000 1.000000
vn 0.000001 0.000000 1.000000
vn -1.000000 0.000000 -0.000469
vn -1.000000 0.000000 -0.000469
vn -1.000000 0.000000 -0.000469
vn -1.000000 0.000000 -0.000469
vn 0.000015 0.000000 1.000000
vn 0.000015 0.000000 1.000000
vn 0.000015 0.000000 1.000000
vn 0.000015 0.000000 1.000000
vn 0.000000 0.000000 1.000000
vn 0.000000 0.000000 1.000000
vn 0.000000 0.000000 1.000000
vn -1.000000 0.000000 0.000115
vn -1.000000 0.000000 0.000115
vn -1.000000 0.000000 0.000115
vn -1.000000 0.000000 0.000115
vn -0.000008 0.000006 1.000000
vn -0.000004 0.000003 1.000000
vn -0.000004 0.000003 1.000000
vn -0.000008 0.000006 1.000000
vn 0.001985 0.000000 -0.999998
vn 0.001985 0.000000 -0.999998
vn 0.001985 0.000000 -0.999998
vn 0.001985 0.000000 -0.999998
vn 1.000000 0.000000 -0.000314
vn 1.000000 0.000000 -0.000314
vn 1.000000 0.000000 -0.000314
vn 1.000000 0.000000 -0.000314
vn 0.000013 0.000000 1.000000
vn 0.000011 0.000000 1.000000
vn 0.000011 0.000000 1.000000
vn 0.000013 0.000000 1.000000
vn 1.000000 0.000000 0.000000
vn 1.000000 0.000000 0.000000
vn 1.000000 0.000000 0.000000
vn 1.000000 0.000000 0.000000
vn -0.000346 0.000000 -1.000000
vn -0.000346 0.000000 -1.000000
vn -0.000346 0.000000 -1.000000
vn -0.000346 0.000000 -1.000000
vn 1.000000 0.000000 0.000000
vn 1.000000 0.000000 0.000000
vn 1.000000 0.000000 0.000000
vn 1.000000 0.000000 0.000000
vn -0.000346 0.000000 -1.000000
vn -0.000346 0.000000 -1.000000
vn -1.000000 0.000000 -0.000832
vn -1.000000 0.000000 -0.000832
vn -1.000000 0.000000 -0.000877
vn -1.000000 0.000000 -0.000877
vn 0.000018 0.000000 -1.000000
vn 0.000018 0.000000 -1.000000
vn 0.999999 0.000000 -0.001203
vn 0.999999 0.000000 -0.001203
vn 0.000000 0.000000 -1.000000
vn 0.000000 0.000000 -1.000000
vn -0.000059 0.000000 1.000000
vn -0.000059 0.000000 1.000000
vn -1.000000 0.000000 0.000369
vn -1.000000 0.000000 0.000369
vn -0.001361 0.000000 -0.999999
vn -0.001361 0.000000 -0.999999
vn 0.000015 0.000000 1.000000
vn 0.000015 0.000000 1.000000
vn 1.000000 0.000000 0.000000
vn 1.000000 0.000000 0.000000
vn 1.000000 0.000000 -0.000314
vn 1.000000 0.000000 -0.000314
vn 0.000010 0.000000 1.000000
vn 0.000010 0.000000 1.000000
vn 1.000000 0.000000 0.000000
vn 1.000000 0.000000 0.000000
vn 0.999999 0.000000 -0.001107
vn 0.999999 0.000000 -0.001107
vn 0.000000 0.000000 1.000000
vn -0.000000 0.000000 1.000000
vn 0.000001 0.000000 1.000000
vn 0.000000 0.000000 1.000000
vn -1.000000 0.000000 0.000115
vn -1.000000 0.000000 0.000115
vn -0.000001 0.000000 1.000000
vn -0.000001 0.000000 1.000000
vn 0.001985 0.000000 -0.999998
vn 0.001985 0.000000 -0.999998
vn -1.000000 0.000000 -0.000469
vn -1.000000 0.000000 -0.000469
vn -0.000000 0.000000 1.000000
vn -0.000000 0.000000 1.000000
vn -0.000000 0.000000 1.000000
vn -0.000000 0.000000 1.000000
vn 0.000000 1.000000 0.000000
vn 0.000000 1.000000 0.000000
vn 0.000000 1.000000 0.000000
vn 0.000000 1.000000 0.000000
vn 0.000000 0.000000 -1.000000
vn 0.000000 0.000000 -1.000000
vn 0.000000 0.000000 -1.000000
vn 0.000000 0.000000 -1.000000
vn -0.000000 -1.000000 0.000000
vn -0.000000 -1.000000 0.000000
vn -0.000000 -1.000000 0.000000
vn -0.000000 -1.000000 0.000000
vn 1.000000 0.000000 0.000000
vn 1.000000 0.000000 0.000000
vn 1.000000 0.000000 0.000000
vn 1.000000 0.000000 0.000000
vn -1.000000 0.000000 0.000000
vn -1.000000 0.000000 0.000000
vn -1.000000 0.000000 0.000000
vn -1.000000 0.000000 0.000000
vn 0.000000 0.000000 1.000000
vn 0.000000 0.000000 1.000000
vn 0.000000 0.000000 1.000000
vn 0.000000 0.000000 1.000000
vn 0.000000 1.000000 0.000000
vn 0.000000 1.000000 0.000000
vn 0.000000 1.000000 0.000000
vn 0.000000 1.000000 0.000000
vn 0.000000 0.000000 -1.000000
vn 0.000000 0.000000 -1.000000
vn 0.000000 0.000000 -1.000000
vn 0.000000 0.000000 -1.000000
vn 0.000000 -1.000000 0.000000
vn 0.000000 -1.000000 0.000000
vn 0.000000 -1.000000 0.000000
vn 0.000000 -1.000000 0.000000
vn 1.000000 0.000000 0.000000
vn 1.000000 0.000000 0.000000
vn 1.000000 0.000000 0.000000
vn 1.000000 0.000000 0.000000
vn -1.000000 0.000000 0.000000
vn -1.000000 0.000000 0.000000
vn -1.000000 0.000000 0.000000
vn -1.000000 0.000000 0.000000
vn 0.000000 0.000000 1.000000
vn 0.000000 0.000000 1.000000
vn 0.000000 0.000000 1.000000
vn 0.000000 0.000000 1.000000
vn 0.000000 1.000000 0.000000
vn 0.000000 1.000000 0.000000
vn 0.000000 1.000000 0.000000
vn 0.000000 1.000000 0.000000
vn 0.000000 0.000000 -1.000000
vn 0.000000 0.000000 -1.000000
vn 0.000000 0.000000 -1.000000
vn 0.000000 0.000000 -1.000000
vn 0.000000 -1.000000 0.000000
vn 0.000000 -1.000000 0.000000
vn 0.000000 -1.000000 0.000000
vn 0.000000 -1.000000 0.000000
vn 1.000000 0.000000 0.000000
vn 1.000000 0.000000 0.000000
vn 1.000000 0.000000 0.000000
vn 1.000000 0.000000 0.000000
vn -1.000000 0.000000 0.000000
vn -1.000000 0.000000 0.000000
vn -1.000000 0.000000 0.000000
vn -1.000000 0.000000 0.000000
vn 0.000000 0.000000 1.000000
vn 0.000000 0.000000 1.000000
vn 0.000000 0.000000 1.000000
vn 0.000000 0.000000 1.000000
vn 0.000000 1.000000 0.000000
vn 0.000000 1.000000 0.000000
vn 0.000000 1.000000 0.000000
vn 0.000000 1.000000 0.000000
vn 0.000000 0.000000 -1.000000
vn 0.000000 0.000000 -1.000000
vn 0.000000 0.000000 -1.000000
vn 0.000000 0.000000 -1.000000
vn 0.000000 -1.000000 0.000000
vn 0.000000 -1.000000 0.000000
vn 0.000000 -1.000000 0.000000
vn 0.000000 -1.000000 0.000000
vn 1.000000 0.000000 0.000000
vn 1.000000 0.000000 0.000000
vn 1.000000 0.000000 0.000000
vn 1.000000 0.000000 0.000000
vn -1.000000 0.000000 0.000000
vn -1.000000 0.000000 0.000000
vn -1.000000 0.000000 0.000000
vn -1.000000 0.000000 0.000000
s off
g house7_A
usemtl lambert11SG
f 15/21/1 5/22/2 19/23/3 20/24/4
f 5/121/5 3/122/6 21/123/7 19/124/8
f 3/29/9 2/30/10 22/31/11 21/32/12
f 38/129/13 49/130/14 50/131/15 39/132/16
f 45/37/17 51/38/18 49/39/19 38/40/20
f 11/1/21 52/4/22 53/5/23 54/6/24
f 9/137/25 55/138/26 52/4/27 11/1/28
f 8/45/29 56/46/30 55/47/31 9/48/32
f 39/53/33 50/54/34 57/55/35 41/56/36
f 35/61/37 58/62/38 59/63/39 43/64/40
f 33/69/41 60/70/42 58/71/43 35/72/44
f 31/153/45 61/154/46 60/155/47 33/156/48
f 54/7/49 62/8/50 13/9/51 11/10/52
f 59/77/53 51/78/54 45/79/55 43/80/56
f 67/15/57 66/152/58 23/147/59 13/17/60
f 68/13/61 67/15/62 13/17/63 62/18/64
f 53/2/65 68/3/66 62/14/67 54/20/68
f 69/85/69 56/86/70 8/87/71 17/88/72
f 20/93/73 69/94/74 17/95/75 15/96/76
f 70/101/77 22/102/78 2/103/79 47/104/80
f 57/109/81 70/101/82 47/104/83 41/112/84
s 1
f 4/33/85 1/34/86 2/30/87 3/29/88
s 2
f 6/125/89 4/126/90 3/122/91 5/121/92
s 3
f 16/25/93 6/26/94 5/22/95 15/21/96
s 4
f 40/133/97 37/134/98 38/129/99 39/132/100
s 5
f 42/57/101 40/58/102 39/53/103 41/56/104
s 6
f 37/41/105 46/42/106 45/37/107 38/40/108
s 7
f 48/113/109 42/57/110 41/112/111 47/104/112
s 8
f 1/34/113 48/106/114 47/104/115 2/103/116
s off
f 29/117/117 63/118/118 61/119/119 31/120/120
f 27/116/121 64/107/122 63/118/123 29/117/124
f 25/75/125 65/73/126 64/84/127 27/82/128
f 23/111/129 66/110/130 65/100/131 25/98/132
s 9
f 9/48/133 10/49/134 7/50/135 8/45/136
s 10
f 11/1/137 12/141/138 10/142/139 9/137/140
f 13/17/141 14/144/142 12/141/138 11/1/143
s 12
f 17/95/144 18/90/145 16/25/146 15/96/147
s 13
f 8/87/148 7/50/149 18/90/150 17/88/151
s 10
f 23/147/152 24/148/153 14/144/142 13/17/154
s 15
f 25/98/155 26/91/156 24/89/157 23/111/158
s 16
f 27/82/159 28/105/160 26/91/161 25/75/162
s 17
f 31/120/163 32/19/164 30/16/165 29/117/166
s 18
f 33/156/167 34/151/168 32/143/169 31/153/170
s 19
f 35/72/171 36/66/172 34/74/173 33/69/174
s 20
f 43/64/175 44/65/176 36/66/177 35/61/178
s 21
f 45/79/179 46/42/180 44/65/181 43/80/182
s 22
f 28/105/183 27/116/184 29/117/185 30/114/186
s 21
f 44/65/181 46/42/180 71/44/187 72/67/188
s 6
f 46/42/106 37/41/105 73/43/189 71/44/190
s 8
f 48/106/114 1/34/113 74/36/191 75/108/192
s 4
f 37/134/98 40/133/97 76/135/193 73/136/194
s 5
f 40/58/102 42/57/101 77/59/195 76/60/196
s 7
f 42/57/110 48/113/109 75/115/197 77/59/198
s 1
f 1/34/86 4/33/85 78/35/199 74/36/200
s 2
f 4/126/90 6/125/89 79/127/201 78/128/202
s 3
f 6/26/94 16/25/93 80/27/203 79/28/204
s 13
f 18/90/150 7/50/149 81/52/205 82/92/206
s 22
f 28/105/183 30/114/186 83/83/207 84/81/208
s 18
f 32/143/169 34/151/168 86/140/209 85/139/210
s 19
f 34/74/173 36/66/172 87/68/211 86/76/212
s 20
f 36/66/177 44/65/176 72/67/213 87/68/214
s 9
f 7/50/135 10/49/134 88/51/215 81/52/216
s 10
f 10/142/139 12/141/138 89/145/217 88/146/218
f 12/141/138 14/144/142 90/149/219 89/145/217
f 14/144/142 24/148/153 91/150/220 90/149/219
s 15
f 24/89/157 26/91/156 92/99/221 91/97/222
s 16
f 26/91/161 28/105/160 84/81/223 92/99/224
s 17
f 30/16/165 32/19/164 85/12/225 83/11/226
s 12
f 16/25/146 18/90/145 82/92/227 80/27/228
s off
f 93/157/229 94/158/230 96/159/231 95/160/232
f 95/160/233 96/159/234 98/161/235 97/162/236
f 97/162/237 98/161/238 100/163/239 99/164/240
f 99/164/241 100/163/242 94/158/243 93/157/244
f 94/158/245 100/163/246 98/161/247 96/159/248
f 99/164/249 93/157/250 95/160/251 97/162/252
f 101/165/253 102/166/254 104/167/255 103/168/256
f 103/168/257 104/167/258 106/169/259 105/170/260
f 105/170/261 106/169/262 108/171/263 107/172/264
f 107/172/265 108/171/266 102/166/267 101/165/268
f 102/166/269 108/171/270 106/169/271 104/167/272
f 107/172/273 101/165/274 103/168/275 105/170/276
f 109/173/277 110/174/278 112/175/279 111/176/280
f 111/176/281 112/175/282 114/177/283 113/178/284
f 113/178/285 114/177/286 116/179/287 115/180/288
f 115/180/289 116/179/290 110/174/291 109/173/292
f 110/174/293 116/179/294 114/177/295 112/175/296
f 115/180/297 109/173/298 111/176/299 113/178/300
f 117/181/301 118/182/302 120/183/303 119/184/304
f 119/184/305 120/183/306 122/185/307 121/186/308
f 121/186/309 122/185/310 124/187/311 123/188/312
f 123/188/313 124/187/314 118/182/315 117/181/316
f 118/182/317 124/187/318 122/185/319 120/183/320
f 123/188/321 117/181/322 119/184/323 121/186/324
