# This file uses centimeters as units for non-parametric coordinates.

mtllib house5_A.mtl
g default
v -39.586838 0.007595 27.704786
v 39.971359 0.007595 27.704786
v -39.586838 82.087918 27.704786
v 39.971359 82.087918 27.704786
v -39.586838 82.087918 -42.272353
v 39.971359 82.087918 -42.272353
v -39.586838 0.007595 -42.272353
v 39.971359 0.007595 -42.272353
v 7.526535 82.087918 27.704786
v 7.526535 82.087918 -42.272353
v 7.526535 0.007597 -42.272353
v 7.526535 0.007597 27.704786
v 33.143967 82.087918 -42.272353
v 33.143967 0.007595 -42.272353
v 33.143967 0.007595 27.704786
v 33.143967 82.087918 27.704786
v 7.526535 25.370373 27.704786
v -39.586838 25.370373 27.704786
v -39.586838 25.370373 -42.272353
v 7.526535 25.370373 -42.272353
v 33.143967 25.370373 -42.272353
v 39.971359 25.370373 -42.272353
v 39.971359 25.370373 27.704786
v 33.143967 25.370373 27.704786
v 7.526535 38.431240 27.704786
v -39.586838 38.431240 27.704786
v -39.586838 38.431240 -42.272353
v 7.526535 38.431240 -42.272353
v 33.143967 38.431240 -42.272353
v 39.971359 38.431240 -42.272353
v 39.971359 38.431240 27.704786
v 33.143967 38.431240 27.704786
v -15.801590 38.431240 27.704786
v -15.801590 25.370373 27.704786
v -15.801590 0.007597 27.704786
v -15.801590 0.007597 -42.272353
v -15.801590 25.370373 -42.272353
v -15.801590 38.431240 -42.272353
v -15.801590 82.087918 -42.272353
v -15.801590 82.087918 27.704786
v 33.143967 25.370373 24.581142
v 7.526535 25.370373 24.581142
v 7.526535 0.007597 24.581142
v 33.143967 0.007595 24.581142
v -36.144882 25.878935 42.833968
v 3.910690 25.878935 42.833968
v -36.144882 31.624943 42.833968
v 3.910690 31.624943 42.833968
v -36.144882 37.928524 26.487332
v 3.910690 37.928524 26.487332
v -36.144882 25.878935 26.487332
v 3.910690 25.878935 26.487332
v -37.365494 66.491764 37.457184
v -17.190842 66.491764 37.457184
v -37.365494 70.837147 37.457184
v -17.190842 70.837147 37.457184
v -37.365494 75.604184 25.638355
v -17.190842 75.604184 25.638355
v -37.365494 66.491764 25.638355
v -17.190842 66.491764 25.638355
v -14.096054 66.491764 37.457184
v 6.078629 66.491764 37.457184
v -14.096054 70.837147 37.457184
v 6.078629 70.837147 37.457184
v -14.096054 75.604184 25.638356
v 6.078629 75.604184 25.638356
v -14.096054 66.491764 25.638356
v 6.078629 66.491764 25.638356
v 10.390152 66.491764 37.457184
v 30.564865 66.491764 37.457184
v 10.390152 70.837147 37.457184
v 30.564865 70.837147 37.457184
v 10.390152 75.604184 25.638356
v 30.564865 75.604184 25.638356
v 10.390152 66.491764 25.638356
v 30.564865 66.491764 25.638356
v -42.675827 79.797947 29.755811
v 42.675827 79.797947 29.755811
v -42.675827 83.469746 29.755811
v 42.675827 83.469746 29.755811
v -42.675827 83.469746 -42.833968
v 42.675827 83.469746 -42.833968
v -42.675827 79.797947 -42.833968
v 42.675827 79.797947 -42.833968
vt 0.037619 0.032813
vt 0.266819 0.032813
vt 0.776284 0.101256
vt 0.711172 0.101256
vt 0.711172 0.030433
vt 0.776284 0.030433
vt 0.266819 0.103636
vt 0.037619 0.103636
vt 0.266819 0.032813
vt 0.037619 0.032813
vt 0.639669 0.101256
vt 0.639669 0.030433
vt 0.620613 0.101256
vt 0.620613 0.030433
vt 0.037619 0.103636
vt 0.266819 0.103636
vt 0.776284 0.137727
vt 0.711172 0.137727
vt 0.639669 0.137727
vt 0.620613 0.137727
vt 0.037619 0.140107
vt 0.266819 0.140107
vt 0.365506 0.033886
vt 0.266819 0.140107
vt 0.037619 0.140107
vt 0.711172 0.259633
vt 0.776284 0.259633
vt 0.639669 0.259633
vt 0.620613 0.259633
vt 0.266819 0.262013
vt 0.037619 0.262013
vt 0.426013 0.033886
vt 0.426013 0.104708
vt 0.365506 0.104708
vt 0.492457 0.104708
vt 0.842673 0.101256
vt 0.842673 0.030433
vt 0.842673 0.137727
vt 0.842673 0.259633
vt 0.492457 0.033886
vt 0.510166 0.033886
vt 0.510166 0.104708
vt 0.426013 0.141179
vt 0.365506 0.141179
vt 0.492457 0.141179
vt 0.510166 0.141179
vt 0.426013 0.263086
vt 0.365506 0.263086
vt 0.510166 0.263086
vt 0.492457 0.263086
vt 0.303814 0.141179
vt 0.303814 0.263086
vt 0.303814 0.104708
vt 0.303814 0.033886
vt 0.266819 0.262013
vt 0.037619 0.262013
vt 0.597111 0.102554
vt 0.543982 0.102554
vt 0.543982 0.041862
vt 0.597111 0.041862
vt 0.597904 0.121414
vt 0.543410 0.121414
vt 0.543410 0.110448
vt 0.597904 0.110448
vt 0.481492 0.033886
vt 0.481492 0.104708
vt 0.436978 0.033886
vt 0.436978 0.104708
vt 0.873377 0.038294
vt 0.979173 0.038294
vt 0.979173 0.079631
vt 0.873377 0.079631
vt 0.979173 0.124979
vt 0.873377 0.124979
vt 0.979173 0.038294
vt 0.873377 0.038294
vt 0.543242 0.152957
vt 0.596528 0.152957
vt 0.596528 0.184218
vt 0.543242 0.184218
vt 0.596528 0.218512
vt 0.543242 0.218512
vt 0.596528 0.152957
vt 0.543242 0.152957
vt 0.543242 0.152957
vt 0.596528 0.152957
vt 0.596528 0.184218
vt 0.543242 0.184218
vt 0.596528 0.218512
vt 0.543242 0.218512
vt 0.596528 0.152957
vt 0.543242 0.152957
vt 0.543242 0.152957
vt 0.596528 0.152957
vt 0.596528 0.184218
vt 0.543242 0.184218
vt 0.596528 0.218512
vt 0.543242 0.218512
vt 0.596528 0.152957
vt 0.543242 0.152957
vt 0.878896 0.152073
vt 0.975489 0.152073
vt 0.975489 0.152073
vt 0.878896 0.152073
vt 0.975489 0.248666
vt 0.878896 0.248666
vt 0.975489 0.248666
vt 0.878896 0.248666
vn 0.000000 0.000000 1.000000
vn 0.000000 0.000000 1.000000
vn 0.000000 0.000000 1.000000
vn 0.000000 0.000000 1.000000
vn 0.000000 0.000000 -1.000000
vn 0.000000 0.000000 -1.000000
vn 0.000000 0.000000 -1.000000
vn 0.000000 0.000000 -1.000000
vn 1.000000 0.000000 0.000000
vn 1.000000 0.000000 0.000000
vn 1.000000 0.000000 0.000000
vn 1.000000 0.000000 0.000000
vn -1.000000 0.000000 0.000000
vn -1.000000 0.000000 0.000000
vn -1.000000 0.000000 0.000000
vn -1.000000 0.000000 0.000000
vn 0.000000 0.000000 -1.000000
vn 0.000000 0.000000 -1.000000
vn 0.000000 0.000000 1.000000
vn 0.000000 0.000000 1.000000
vn 0.000000 0.000000 1.000000
vn 0.000000 0.000000 1.000000
vn 0.000000 0.000000 -1.000000
vn 0.000000 0.000000 -1.000000
vn 0.000000 0.000000 1.000000
vn 0.000000 0.000000 1.000000
vn 0.000000 0.000000 1.000000
vn 0.000000 0.000000 1.000000
vn 0.000000 0.000000 1.000000
vn 0.000000 0.000000 1.000000
vn -1.000000 0.000000 0.000000
vn -1.000000 0.000000 0.000000
vn 0.000000 0.000000 -1.000000
vn 0.000000 0.000000 -1.000000
vn 0.000000 0.000000 -1.000000
vn 0.000000 0.000000 -1.000000
vn 1.000000 0.000000 0.000000
vn 1.000000 0.000000 0.000000
vn 0.000000 0.000000 1.000000
vn 0.000000 0.000000 1.000000
vn 0.000000 0.000000 1.000000
vn 0.000000 0.000000 1.000000
vn -1.000000 0.000000 0.000000
vn -1.000000 0.000000 0.000000
vn 0.000000 0.000000 -1.000000
vn 0.000000 0.000000 -1.000000
vn 0.000000 0.000000 -1.000000
vn 0.000000 0.000000 -1.000000
vn 1.000000 0.000000 0.000000
vn 1.000000 0.000000 0.000000
vn 0.000000 0.000000 1.000000
vn 0.000000 0.000000 1.000000
vn 0.000000 0.000000 1.000000
vn 0.000000 0.000000 1.000000
vn 0.000000 0.000000 1.000000
vn 0.000000 0.000000 1.000000
vn 0.000000 0.000000 -1.000000
vn 0.000000 0.000000 -1.000000
vn 0.000000 0.000000 -1.000000
vn 0.000000 0.000000 -1.000000
vn 0.000000 -1.000000 0.000000
vn 0.000000 -1.000000 0.000000
vn 0.000000 -1.000000 0.000000
vn 0.000000 -1.000000 0.000000
vn 1.000000 0.000000 0.000000
vn 1.000000 0.000000 0.000000
vn 1.000000 0.000000 0.000000
vn 1.000000 0.000000 0.000000
vn -1.000000 0.000000 0.000000
vn -1.000000 0.000000 0.000000
vn -1.000000 0.000000 0.000000
vn -1.000000 0.000000 0.000000
vn 0.000000 0.000000 1.000000
vn 0.000000 0.000000 1.000000
vn 0.000000 0.000000 1.000000
vn 0.000000 0.000000 1.000000
vn 0.000000 0.933031 0.359795
vn 0.000000 0.933031 0.359795
vn 0.000000 0.933031 0.359795
vn 0.000000 0.933031 0.359795
vn 0.000000 0.000000 -1.000000
vn 0.000000 0.000000 -1.000000
vn 0.000000 0.000000 -1.000000
vn 0.000000 0.000000 -1.000000
vn 0.000000 -1.000000 0.000000
vn 0.000000 -1.000000 0.000000
vn 0.000000 -1.000000 0.000000
vn 0.000000 -1.000000 0.000000
vn 1.000000 0.000000 0.000000
vn 1.000000 0.000000 0.000000
vn 1.000000 0.000000 0.000000
vn 1.000000 0.000000 0.000000
vn -1.000000 0.000000 0.000000
vn -1.000000 0.000000 0.000000
vn -1.000000 0.000000 0.000000
vn -1.000000 0.000000 0.000000
vn 0.000000 0.000000 1.000000
vn 0.000000 0.000000 1.000000
vn 0.000000 0.000000 1.000000
vn 0.000000 0.000000 1.000000
vn 0.000000 0.927404 0.374061
vn 0.000000 0.927404 0.374061
vn 0.000000 0.927404 0.374061
vn 0.000000 0.927404 0.374061
vn 0.000000 0.000000 -1.000000
vn 0.000000 0.000000 -1.000000
vn 0.000000 0.000000 -1.000000
vn 0.000000 0.000000 -1.000000
vn 0.000000 -1.000000 0.000000
vn 0.000000 -1.000000 0.000000
vn 0.000000 -1.000000 0.000000
vn 0.000000 -1.000000 0.000000
vn 1.000000 0.000000 0.000000
vn 1.000000 0.000000 0.000000
vn 1.000000 0.000000 0.000000
vn 1.000000 0.000000 0.000000
vn -1.000000 0.000000 0.000000
vn -1.000000 0.000000 0.000000
vn -1.000000 0.000000 0.000000
vn -1.000000 0.000000 0.000000
vn 0.000000 0.000000 1.000000
vn 0.000000 0.000000 1.000000
vn 0.000000 0.000000 1.000000
vn 0.000000 0.000000 1.000000
vn 0.000000 0.927404 0.374061
vn 0.000000 0.927404 0.374061
vn 0.000000 0.927404 0.374061
vn 0.000000 0.927404 0.374061
vn 0.000000 0.000000 -1.000000
vn 0.000000 0.000000 -1.000000
vn 0.000000 0.000000 -1.000000
vn 0.000000 0.000000 -1.000000
vn 0.000000 -1.000000 0.000000
vn 0.000000 -1.000000 0.000000
vn 0.000000 -1.000000 0.000000
vn 0.000000 -1.000000 0.000000
vn 1.000000 0.000000 0.000000
vn 1.000000 0.000000 0.000000
vn 1.000000 0.000000 0.000000
vn 1.000000 0.000000 0.000000
vn -1.000000 0.000000 0.000000
vn -1.000000 0.000000 0.000000
vn -1.000000 0.000000 0.000000
vn -1.000000 0.000000 0.000000
vn 0.000000 0.000000 1.000000
vn 0.000000 0.000000 1.000000
vn 0.000000 0.000000 1.000000
vn 0.000000 0.000000 1.000000
vn 0.000000 0.927404 0.374062
vn 0.000000 0.927404 0.374062
vn 0.000000 0.927404 0.374062
vn 0.000000 0.927404 0.374062
vn 0.000000 0.000000 -1.000000
vn 0.000000 0.000000 -1.000000
vn 0.000000 0.000000 -1.000000
vn 0.000000 0.000000 -1.000000
vn 0.000000 -1.000000 0.000000
vn 0.000000 -1.000000 0.000000
vn 0.000000 -1.000000 0.000000
vn 0.000000 -1.000000 0.000000
vn 1.000000 0.000000 0.000000
vn 1.000000 0.000000 0.000000
vn 1.000000 0.000000 0.000000
vn 1.000000 0.000000 0.000000
vn -1.000000 0.000000 0.000000
vn -1.000000 0.000000 0.000000
vn -1.000000 0.000000 0.000000
vn -1.000000 0.000000 0.000000
vn 0.000000 0.000000 1.000000
vn 0.000000 0.000000 1.000000
vn 0.000000 0.000000 1.000000
vn 0.000000 0.000000 1.000000
vn 0.000000 1.000000 0.000000
vn 0.000000 1.000000 0.000000
vn 0.000000 1.000000 0.000000
vn 0.000000 1.000000 0.000000
vn 0.000000 0.000000 -1.000000
vn 0.000000 0.000000 -1.000000
vn 0.000000 0.000000 -1.000000
vn 0.000000 0.000000 -1.000000
vn 0.000000 -1.000000 0.000000
vn 0.000000 -1.000000 0.000000
vn 0.000000 -1.000000 0.000000
vn 0.000000 -1.000000 0.000000
vn 1.000000 0.000000 0.000000
vn 1.000000 0.000000 0.000000
vn 1.000000 0.000000 0.000000
vn 1.000000 0.000000 0.000000
vn -1.000000 0.000000 0.000000
vn -1.000000 0.000000 0.000000
vn -1.000000 0.000000 0.000000
vn -1.000000 0.000000 0.000000
s 1
g house5_A
usemtl lambert9SG
f 35/23/1 12/32/2 17/33/3 34/34/4
s 2
f 37/3/5 20/4/6 11/5/7 36/6/8
s 3
f 2/1/9 8/2/10 22/7/11 23/8/12
s 4
f 7/9/13 1/10/14 18/15/15 19/16/16
s 2
f 11/5/7 20/4/6 21/11/17 14/12/18
s off
f 41/57/19 42/58/20 43/59/21 44/60/22
s 2
f 14/12/18 21/11/17 22/13/23 8/14/24
s 1
f 24/35/25 15/40/26 2/41/27 23/42/28
f 34/34/4 17/33/3 25/43/29 33/44/30
s 4
f 19/16/16 18/15/15 26/21/31 27/22/32
s 2
f 38/17/33 28/18/34 20/4/6 37/3/5
f 21/11/17 20/4/6 28/18/34 29/19/35
f 22/13/23 21/11/17 29/19/35 30/20/36
s 3
f 23/8/12 22/7/11 30/24/37 31/25/38
s 1
f 32/45/39 24/35/25 23/42/28 31/46/40
f 32/45/39 25/43/29 17/33/3 24/35/25
f 33/44/30 25/43/29 9/47/41 40/48/42
s 4
f 5/30/43 27/22/32 26/21/31 3/31/44
s 2
f 10/26/45 28/18/34 38/17/33 39/27/46
f 13/28/47 29/19/35 28/18/34 10/26/45
f 6/29/48 30/20/36 29/19/35 13/28/47
s 3
f 31/25/38 30/24/37 6/55/49 4/56/50
s 1
f 32/45/39 31/46/40 4/49/51 16/50/52
f 25/43/29 32/45/39 16/50/52 9/47/41
f 26/51/53 33/44/30 40/48/42 3/52/54
f 18/53/55 34/34/4 33/44/30 26/51/53
f 1/54/56 35/23/1 34/34/4 18/53/55
s 2
f 19/36/57 37/3/5 36/6/8 7/37/58
f 27/38/59 38/17/33 37/3/5 19/36/57
f 38/17/33 27/38/59 5/39/60 39/27/46
s off
f 24/61/61 17/62/62 42/63/63 41/64/64
f 17/33/65 12/32/66 43/67/67 42/68/68
f 15/40/69 24/35/70 41/66/71 44/65/72
f 45/69/73 46/70/74 48/71/75 47/72/76
f 47/72/77 48/71/78 50/73/79 49/74/80
f 49/74/81 50/73/82 52/75/83 51/76/84
f 51/76/85 52/75/86 46/70/87 45/69/88
f 46/70/89 52/75/90 50/73/91 48/71/92
f 51/76/93 45/69/94 47/72/95 49/74/96
f 53/77/97 54/78/98 56/79/99 55/80/100
f 55/80/101 56/79/102 58/81/103 57/82/104
f 57/82/105 58/81/106 60/83/107 59/84/108
f 59/84/109 60/83/110 54/78/111 53/77/112
f 54/78/113 60/83/114 58/81/115 56/79/116
f 59/84/117 53/77/118 55/80/119 57/82/120
f 61/85/121 62/86/122 64/87/123 63/88/124
f 63/88/125 64/87/126 66/89/127 65/90/128
f 65/90/129 66/89/130 68/91/131 67/92/132
f 67/92/133 68/91/134 62/86/135 61/85/136
f 62/86/137 68/91/138 66/89/139 64/87/140
f 67/92/141 61/85/142 63/88/143 65/90/144
f 69/93/145 70/94/146 72/95/147 71/96/148
f 71/96/149 72/95/150 74/97/151 73/98/152
f 73/98/153 74/97/154 76/99/155 75/100/156
f 75/100/157 76/99/158 70/94/159 69/93/160
f 70/94/161 76/99/162 74/97/163 72/95/164
f 75/100/165 69/93/166 71/96/167 73/98/168
f 77/101/169 78/102/170 80/103/171 79/104/172
f 79/104/173 80/103/174 82/105/175 81/106/176
f 81/106/177 82/105/178 84/107/179 83/108/180
f 83/108/181 84/107/182 78/102/183 77/101/184
f 78/102/185 84/107/186 82/105/187 80/103/188
f 83/108/189 77/101/190 79/104/191 81/106/192
