# This file uses centimeters as units for non-parametric coordinates.

mtllib house6_C.mtl
g default
v -31.112732 32.929888 -17.828070
v -31.112732 22.262715 -17.828070
v -29.884827 22.262715 -17.827936
v -29.884827 32.929888 -17.827936
v -29.860352 22.262715 17.981907
v -29.860352 32.929888 17.981907
v -26.901611 32.929888 22.151729
v -26.901611 22.262715 22.151729
v -26.903503 22.262715 20.553263
v -26.903503 32.929888 20.553263
v -12.561401 22.262715 20.553286
v -12.561401 32.929888 20.553286
v 12.260498 22.262715 20.553252
v 12.260498 32.929888 20.553252
v -31.104736 22.262715 17.983958
v -31.104736 32.929888 17.983958
v -31.109924 22.262715 22.151902
v -31.109924 32.929888 22.151902
v -29.860352 0.000010 17.981907
v -31.104736 0.000010 17.983958
v -29.884827 0.000010 -17.827936
v -31.112732 0.000010 -17.828070
v 26.511780 22.262715 20.553241
v 26.511780 32.929888 20.553241
v 26.511963 22.262715 22.151729
v 26.511963 32.929888 22.151729
v 30.720337 22.262715 22.151902
v 30.720337 32.929888 22.151736
v 30.720337 22.262715 17.985496
v 30.720337 32.929888 17.985496
v 29.654114 22.262715 17.982933
v 29.654114 32.929888 17.982933
v 29.633240 22.262715 -17.827868
v 29.633240 32.929888 -17.827868
v 30.720337 22.262715 -17.827887
v 30.720337 32.929888 -17.827887
v 26.510986 32.929892 -20.608934
v 26.510986 22.262715 -20.608934
v -26.903320 22.262715 -20.613424
v -26.903320 32.929888 -20.613424
v -26.905029 22.262715 -21.932829
v -26.905029 32.929888 -21.932829
v 30.720337 22.262715 -21.932825
v 30.720337 32.929888 -21.932825
v 26.512146 22.262715 -21.928846
v 26.512146 32.929888 -21.928846
v -31.102966 22.262715 -21.932829
v -31.102966 32.929888 -21.932829
v 26.510986 0.000010 -20.608934
v -26.903320 0.000010 -20.613424
v 26.512146 0.000010 -21.928846
v -12.561401 0.000010 20.553286
v -8.646240 0.000010 10.711477
v -8.646240 22.262715 10.711477
v -26.903503 0.000010 20.553263
v -26.901611 0.000010 22.151729
v -26.905029 0.000010 -21.932829
v 30.720337 0.000010 -17.827887
v 30.720337 0.000010 -21.932825
v 29.633240 0.000010 -17.827868
v 29.654114 0.000010 17.982933
v 8.345398 22.262715 10.708140
v 30.720337 0.000010 17.985496
v 30.720337 0.000010 22.151902
v 26.511963 0.000010 22.151729
v 26.511780 0.000010 20.553241
v 12.260498 0.000010 20.553252
v 8.345398 0.000010 10.708140
v -31.109924 0.000010 22.151902
v -31.102966 0.000010 -21.932829
v 26.512146 62.366820 -21.928846
v 30.720337 62.366820 -21.932825
v 26.510986 62.366827 -20.608934
v -31.112732 62.366820 -17.828070
v -31.102966 62.366820 -21.932829
v -26.903320 62.366820 -20.613424
v -26.905029 62.366820 -21.932829
v -29.884827 62.366820 -17.827936
v -29.860352 62.366820 17.981907
v -31.104736 62.366820 17.983958
v -26.901611 62.366820 22.151729
v -31.109924 62.366820 22.151902
v 30.720337 62.366820 17.985496
v 30.720337 62.366820 22.151736
v 29.654114 62.366820 17.982933
v 29.633240 62.366820 -17.827868
v 30.720337 62.366820 -17.827887
v -26.903503 62.366820 20.553263
v -12.561401 62.366820 20.553286
v 12.260498 62.366820 20.553252
v 26.511780 62.366820 20.553241
v 26.511963 62.366820 22.151729
v -33.394409 62.203142 23.981268
v 33.394409 62.203142 23.981268
v -33.394409 64.469347 23.981268
v 33.394409 64.469347 23.981268
v -33.394409 64.469347 -23.981268
v 33.394409 64.469347 -23.981268
v -33.394409 62.203142 -23.981268
v 33.394409 62.203142 -23.981268
vt 0.594549 0.791329
vt 0.878644 0.680872
vt 0.952322 0.680872
vt 0.594549 0.680467
vt 0.648674 0.680467
vt 0.648674 0.791329
vt 0.889473 0.844671
vt 0.939463 0.844687
vt 0.950981 0.797344
vt 0.877954 0.797344
vt 0.527107 0.791329
vt 0.527107 0.680467
vt 0.846009 0.990418
vt 0.852509 0.990418
vt 0.711271 0.680467
vt 0.778285 0.680467
vt 0.952322 0.781713
vt 0.657146 0.680467
vt 0.846009 0.844414
vt 0.711271 0.791329
vt 0.657147 0.791329
vt 0.778285 0.791329
vt 0.852509 0.844414
vt 0.594549 0.844448
vt 0.527107 0.844448
vt 0.711271 0.844448
vt 0.778285 0.844448
vt 0.594549 0.991036
vt 0.527107 0.991036
vt 0.711271 0.991036
vt 0.778285 0.991036
vt 0.878644 0.781713
vt 0.329687 0.791733
vt 0.500933 0.791733
vt 0.500933 0.681881
vt 0.329687 0.681881
vt 0.329682 0.791733
vt 0.329682 0.681881
vt 0.048606 0.795583
vt 0.048606 0.687749
vt 0.294768 0.687749
vt 0.500933 0.681881
vt 0.500933 0.791733
vt 0.329687 0.844369
vt 0.500933 0.844369
vt 0.500933 0.844369
vt 0.329682 0.844369
vt 0.294768 0.795583
vt 0.294768 0.847251
vt 0.048606 0.847251
vt 0.294768 0.989834
vt 0.048606 0.989834
vt 0.329687 0.989622
vt 0.500933 0.989622
vt 0.500933 0.989622
vt 0.329682 0.989622
vt 0.804741 0.791506
vt 0.798569 0.791506
vt 0.798569 0.681085
vt 0.804741 0.681085
vt 0.804741 0.844414
vt 0.798569 0.844414
vt 0.804741 0.990418
vt 0.798569 0.990418
vt 0.852509 0.791505
vt 0.846009 0.791505
vt 0.846009 0.681085
vt 0.852509 0.681085
vt 0.852509 0.844413
vt 0.846009 0.844413
vt 0.852509 0.990417
vt 0.846009 0.990417
vt 0.846009 0.791506
vt 0.846009 0.681085
vt 0.852509 0.681085
vt 0.852509 0.791506
vt 0.852509 0.844414
vt 0.846009 0.844414
vt 0.852509 0.990418
vt 0.846009 0.990418
vt 0.846009 0.791506
vt 0.846009 0.681085
vt 0.852509 0.681085
vt 0.852509 0.791506
vt 0.852509 0.844414
vt 0.846009 0.844414
vt 0.852509 0.990418
vt 0.846009 0.990418
vt 0.798569 0.791506
vt 0.798569 0.681085
vt 0.804741 0.681085
vt 0.804741 0.791506
vt 0.804741 0.844413
vt 0.798569 0.844413
vt 0.804741 0.990417
vt 0.798569 0.990417
vt 0.804741 0.791506
vt 0.804741 0.681085
vt 0.825137 0.681085
vt 0.825137 0.791506
vt 0.825137 0.844414
vt 0.804741 0.844414
vt 0.825137 0.990418
vt 0.804741 0.990418
vt 0.798569 0.791506
vt 0.798569 0.681085
vt 0.804741 0.681085
vt 0.804741 0.791506
vt 0.804741 0.681085
vt 0.798569 0.844414
vt 0.804741 0.791506
vt 0.798569 0.990418
vt 0.825137 0.681085
vt 0.846009 0.681085
vt 0.846009 0.791506
vt 0.825137 0.791506
vt 0.825137 0.990418
vt 0.825137 0.791506
vt 0.846009 0.990418
vt 0.825137 0.681085
vt 0.825137 0.681085
vt 0.846009 0.681085
vt 0.846009 0.791506
vt 0.825137 0.791506
vt 0.798569 0.844414
vt 0.825137 0.844414
vt 0.804741 0.844414
vt 0.825137 0.990418
vt 0.804741 0.681085
vt 0.825137 0.681085
vt 0.825137 0.791506
vt 0.804741 0.791506
vt 0.798569 0.990418
vt 0.804741 0.791506
vt 0.804741 0.990418
vt 0.804741 0.681085
vt 0.825137 0.681085
vt 0.846009 0.681085
vt 0.846009 0.791505
vt 0.825137 0.791506
vt 0.825137 0.844414
vt 0.825137 0.844413
vt 0.825137 0.681085
vt 0.825137 0.990417
vt 0.804741 0.681085
vt 0.798569 0.681085
vt 0.798569 0.791506
vt 0.804741 0.791506
vt 0.825137 0.844413
vt 0.846009 0.844414
vt 0.825137 0.990417
vt 0.825137 0.791506
vt 0.846009 0.791506
vt 0.846009 0.681085
vt 0.852509 0.681085
vt 0.852509 0.791506
vt 0.889704 0.861399
vt 0.939227 0.861399
vt 0.939227 0.861399
vt 0.889704 0.861399
vt 0.939227 0.910922
vt 0.889704 0.910922
vt 0.939227 0.910922
vt 0.889704 0.910922
vn -0.001648 0.000000 -0.999999
vn -0.001648 0.000000 -0.999999
vn -0.001648 0.000000 -0.999999
vn -0.001648 0.000000 -0.999999
vn -1.000000 0.000000 0.000683
vn -1.000000 0.000000 0.000683
vn -1.000000 0.000000 0.000683
vn -1.000000 0.000000 0.000683
vn -0.000109 0.000000 1.000000
vn -0.000109 0.000000 1.000000
vn -0.000109 0.000000 1.000000
vn -0.000109 0.000000 1.000000
vn 0.000084 0.000000 -1.000000
vn 0.000084 0.000000 -1.000000
vn 0.000084 0.000000 -1.000000
vn 0.000084 0.000000 -1.000000
vn -1.000000 0.000000 -0.000879
vn -1.000000 0.000000 -0.000879
vn -1.000000 0.000000 -0.000879
vn -1.000000 0.000000 -0.000879
vn 0.929177 0.000000 0.369635
vn 0.929177 0.000000 0.369635
vn 0.929177 0.000000 0.369635
vn 0.929177 0.000000 0.369635
vn -0.000002 0.000000 1.000000
vn -0.000002 0.000000 1.000000
vn -0.000002 0.000000 1.000000
vn -0.000002 0.000000 1.000000
vn 0.999999 0.000000 -0.001184
vn 0.999999 0.000000 -0.001184
vn 0.999999 0.000000 -0.001184
vn 0.999999 0.000000 -0.001184
vn 0.999999 0.000000 -0.001295
vn 0.999999 0.000000 -0.001295
vn 0.999999 0.000000 -0.001295
vn 0.999999 0.000000 -0.001295
vn 1.000000 0.000000 0.000000
vn 1.000000 0.000000 0.000000
vn 1.000000 0.000000 0.000000
vn 1.000000 0.000000 0.000000
vn 0.000018 0.000000 1.000000
vn 0.000018 0.000000 1.000000
vn 0.000018 0.000000 1.000000
vn 0.000018 0.000000 1.000000
vn 1.000000 0.000000 -0.000583
vn 1.000000 0.000000 -0.000583
vn 1.000000 0.000000 -0.000583
vn 1.000000 0.000000 -0.000583
vn 0.000000 -1.000000 -0.000000
vn 0.000000 -1.000000 -0.000000
vn 0.000000 -1.000000 -0.000000
vn 0.000000 -1.000000 -0.000000
vn -0.000945 0.000000 -1.000000
vn -0.000945 0.000000 -1.000000
vn -0.000945 0.000000 -1.000000
vn -0.000945 0.000000 -1.000000
vn 0.000001 0.000000 1.000000
vn 0.000001 0.000000 1.000000
vn 0.000001 0.000000 1.000000
vn 0.000001 0.000000 1.000000
vn -0.929222 0.000000 0.369523
vn -0.929222 0.000000 0.369523
vn -0.929222 0.000000 0.369523
vn -0.929222 0.000000 0.369523
vn 0.000196 0.000000 1.000000
vn 0.000196 0.000000 1.000000
vn 0.000196 0.000000 1.000000
vn 0.000196 0.000000 1.000000
vn 0.000041 0.000000 1.000000
vn 0.000041 0.000000 1.000000
vn 0.000041 0.000000 1.000000
vn 0.000041 0.000000 1.000000
vn -0.999999 0.000000 -0.001245
vn -0.999999 0.000000 -0.001245
vn -0.999999 0.000000 -0.001245
vn -0.999999 0.000000 -0.001245
vn -0.999997 0.000000 -0.002379
vn -0.999997 0.000000 -0.002379
vn -0.999997 0.000000 -0.002379
vn -0.999997 0.000000 -0.002379
vn 0.000000 0.000000 -1.000000
vn 0.000000 0.000000 -1.000000
vn 0.000000 0.000000 -1.000000
vn 0.000000 0.000000 -1.000000
vn -0.000110 0.000000 1.000000
vn -0.000110 0.000000 1.000000
vn -0.000110 0.000000 1.000000
vn -0.000110 0.000000 1.000000
vn -1.000000 0.000000 0.000683
vn -1.000000 0.000000 0.000683
vn -1.000000 0.000000 0.000683
vn -1.000000 0.000000 0.000683
vn -0.001648 0.000000 -0.999999
vn -0.001648 0.000000 -0.999999
vn -0.001648 0.000000 -0.999999
vn -0.001648 0.000000 -0.999999
vn 0.000084 0.000000 -1.000000
vn 0.000084 0.000000 -1.000000
vn 0.000084 0.000000 -1.000000
vn 0.000084 0.000000 -1.000000
vn 0.999999 0.000000 -0.001295
vn 0.999999 0.000000 -0.001295
vn 0.999999 0.000000 -0.001295
vn 0.999999 0.000000 -0.001295
vn -1.000000 0.000000 -0.000879
vn -1.000000 0.000000 -0.000879
vn -1.000000 0.000000 -0.000879
vn -1.000000 0.000000 -0.000879
vn 0.000000 0.000000 -1.000000
vn 0.000000 0.000000 -1.000000
vn 0.000000 0.000000 -1.000000
vn 0.000000 0.000000 -1.000000
vn -0.999997 0.000000 -0.002379
vn -0.999997 0.000000 -0.002379
vn -0.999997 0.000000 -0.002379
vn -0.999997 0.000000 -0.002379
vn 0.002404 0.000000 -0.999997
vn 0.002404 0.000000 -0.999997
vn 0.002404 0.000000 -0.999997
vn 0.002404 0.000000 -0.999997
vn 1.000000 0.000000 0.000000
vn 1.000000 0.000000 0.000000
vn 1.000000 0.000000 0.000000
vn 1.000000 0.000000 0.000000
vn -0.000041 0.000000 1.000000
vn -0.000041 0.000000 1.000000
vn -0.000041 0.000000 1.000000
vn -0.000041 0.000000 1.000000
vn -1.000000 0.000000 0.000115
vn -1.000000 0.000000 0.000115
vn -1.000000 0.000000 0.000115
vn -1.000000 0.000000 0.000115
vn 0.999999 0.000000 -0.001184
vn 0.999999 0.000000 -0.001184
vn 0.999999 0.000000 -0.001184
vn 0.999999 0.000000 -0.001184
vn -0.000002 0.000000 1.000000
vn -0.000000 0.000000 1.000000
vn -0.000002 0.000000 1.000000
vn -0.000002 0.000000 1.000000
vn 0.000001 0.000000 1.000000
vn 0.000001 0.000000 1.000000
vn 0.000001 0.000000 1.000000
vn -0.999999 0.000000 -0.001245
vn -0.999999 0.000000 -0.001245
vn -0.999999 0.000000 -0.001245
vn -0.999999 0.000000 -0.001245
vn 0.000041 0.000000 1.000000
vn 0.000041 0.000000 1.000000
vn 0.000041 0.000000 1.000000
vn 0.000041 0.000000 1.000000
vn 0.000001 0.000000 1.000000
vn 0.000001 0.000000 1.000000
vn 0.000001 0.000000 1.000000
vn -1.000000 0.000000 0.000115
vn -1.000000 0.000000 0.000115
vn -1.000000 0.000000 0.000115
vn -1.000000 0.000000 0.000115
vn -0.000021 0.000008 1.000000
vn -0.000012 0.000004 1.000000
vn -0.000012 0.000004 1.000000
vn -0.000021 0.000008 1.000000
vn 0.002404 0.000000 -0.999997
vn 0.002404 0.000000 -0.999997
vn 0.002404 0.000000 -0.999997
vn 0.002404 0.000000 -0.999997
vn 1.000000 0.000000 -0.000583
vn 1.000000 0.000000 -0.000583
vn 1.000000 0.000000 -0.000583
vn 1.000000 0.000000 -0.000583
vn 0.000018 0.000000 1.000000
vn 0.000018 0.000000 1.000000
vn 0.000018 0.000000 1.000000
vn 0.000018 0.000000 1.000000
vn 1.000000 0.000000 0.000000
vn 1.000000 0.000000 0.000000
vn 1.000000 0.000000 0.000000
vn 1.000000 0.000000 0.000000
vn -0.000945 0.000000 -1.000000
vn -0.000945 0.000000 -1.000000
vn -0.000945 0.000000 -1.000000
vn -0.000945 0.000000 -1.000000
vn 1.000000 0.000000 0.000000
vn 1.000000 0.000000 0.000000
vn 1.000000 0.000000 0.000000
vn 1.000000 0.000000 0.000000
vn -0.000945 0.000000 -1.000000
vn -0.000945 0.000000 -1.000000
vn -1.000000 0.000000 -0.000879
vn -1.000000 0.000000 -0.000879
vn -0.999997 0.000000 -0.002379
vn -0.999997 0.000000 -0.002379
vn 0.000084 0.000000 -1.000000
vn 0.000084 0.000000 -1.000000
vn 0.999999 0.000000 -0.001295
vn 0.999999 0.000000 -0.001295
vn 0.000000 0.000000 -1.000000
vn 0.000000 0.000000 -1.000000
vn -0.000110 0.000000 1.000000
vn -0.000110 0.000000 1.000000
vn -1.000000 0.000000 0.000683
vn -1.000000 0.000000 0.000683
vn -0.001648 0.000000 -0.999999
vn -0.001648 0.000000 -0.999999
vn 0.000041 0.000000 1.000000
vn 0.000041 0.000000 1.000000
vn 1.000000 0.000000 0.000000
vn 1.000000 0.000000 0.000000
vn 1.000000 0.000000 -0.000583
vn 1.000000 0.000000 -0.000583
vn 0.000017 0.000000 1.000000
vn 0.000017 0.000000 1.000000
vn 1.000000 0.000000 0.000000
vn 1.000000 0.000000 0.000000
vn 0.999999 0.000000 -0.001184
vn 0.999999 0.000000 -0.001184
vn -0.000000 0.000000 1.000000
vn -0.000002 0.000000 1.000000
vn 0.000001 0.000000 1.000000
vn 0.000001 0.000000 1.000000
vn -1.000000 0.000000 0.000115
vn -1.000000 0.000000 0.000115
vn -0.000002 0.000000 1.000000
vn -0.000002 0.000000 1.000000
vn 0.002404 0.000000 -0.999997
vn 0.002404 0.000000 -0.999997
vn -0.999999 0.000000 -0.001245
vn -0.999999 0.000000 -0.001245
vn 0.000000 0.000000 1.000000
vn 0.000000 0.000000 1.000000
vn 0.000000 0.000000 1.000000
vn 0.000000 0.000000 1.000000
vn 0.000000 1.000000 0.000000
vn 0.000000 1.000000 0.000000
vn 0.000000 1.000000 0.000000
vn 0.000000 1.000000 0.000000
vn 0.000000 0.000000 -1.000000
vn 0.000000 0.000000 -1.000000
vn 0.000000 0.000000 -1.000000
vn 0.000000 0.000000 -1.000000
vn 0.000000 -1.000000 0.000000
vn 0.000000 -1.000000 0.000000
vn 0.000000 -1.000000 0.000000
vn 0.000000 -1.000000 0.000000
vn 1.000000 0.000000 0.000000
vn 1.000000 0.000000 0.000000
vn 1.000000 0.000000 0.000000
vn 1.000000 0.000000 0.000000
vn -1.000000 0.000000 0.000000
vn -1.000000 0.000000 0.000000
vn -1.000000 0.000000 0.000000
vn -1.000000 0.000000 0.000000
s off
g house6_C
usemtl lambert10SG
f 15/57/1 5/58/2 19/59/3 20/60/4
f 5/33/5 3/34/6 21/35/7 19/36/8
f 3/65/9 2/66/10 22/67/11 21/68/12
f 38/39/13 49/40/14 50/41/15 39/48/16
f 45/73/17 51/74/18 49/75/19 38/76/20
f 11/1/21 52/4/22 53/5/23 54/6/24
f 9/11/25 55/12/26 52/4/27 11/1/28
f 8/81/29 56/82/30 55/83/31 9/84/32
f 39/89/33 50/90/34 57/91/35 41/92/36
f 35/97/37 58/98/38 59/99/39 43/100/40
f 33/105/41 60/106/42 58/107/43 35/108/44
f 31/37/45 61/38/46 60/42/47 33/43/48
f 54/7/49 62/8/50 13/9/51 11/10/52
f 59/113/53 51/114/54 45/115/55 43/116/56
f 67/15/57 66/16/58 23/22/59 13/20/60
f 68/18/61 67/15/62 13/20/63 62/21/64
f 53/2/65 68/3/66 62/17/67 54/32/68
f 69/121/69 56/122/70 8/123/71 17/124/72
f 20/129/73 69/130/74 17/131/75 15/132/76
f 70/137/77 22/138/78 2/139/79 47/140/80
f 57/145/81 70/137/82 47/140/83 41/148/84
s 1
f 4/69/85 1/70/86 2/66/87 3/65/88
s 2
f 6/44/89 4/45/90 3/34/91 5/33/92
s 3
f 16/61/93 6/62/94 5/58/95 15/57/96
s 4
f 40/49/97 37/50/98 38/39/99 39/48/100
s 5
f 42/93/101 40/94/102 39/89/103 41/92/104
s 6
f 37/77/105 46/78/106 45/73/107 38/76/108
s 7
f 48/149/109 42/93/110 41/148/111 47/140/112
s 8
f 1/70/113 48/142/114 47/140/115 2/139/116
s off
f 29/153/117 63/154/118 61/155/119 31/156/120
f 27/152/121 64/143/122 63/154/123 29/153/124
f 25/111/125 65/109/126 64/120/127 27/118/128
f 23/147/129 66/146/130 65/136/131 25/134/132
s 9
f 9/84/133 10/85/134 7/86/135 8/81/136
s 10
f 11/1/137 12/24/138 10/25/139 9/11/140
f 13/20/141 14/26/142 12/24/138 11/1/143
s 12
f 17/131/144 18/126/145 16/61/146 15/132/147
s 13
f 8/123/148 7/86/149 18/126/150 17/124/151
s 10
f 23/22/152 24/27/153 14/26/142 13/20/154
s 15
f 25/134/155 26/127/156 24/125/157 23/147/158
s 16
f 27/118/159 28/141/160 26/127/161 25/111/162
s 17
f 31/156/163 32/23/164 30/19/165 29/153/166
s 18
f 33/43/167 34/46/168 32/47/169 31/37/170
s 19
f 35/108/171 36/102/172 34/110/173 33/105/174
s 20
f 43/100/175 44/101/176 36/102/177 35/97/178
s 21
f 45/115/179 46/78/180 44/101/181 43/116/182
s 22
f 28/141/183 27/152/184 29/153/185 30/150/186
s 21
f 44/101/181 46/78/180 71/80/187 72/103/188
s 6
f 46/78/106 37/77/105 73/79/189 71/80/190
s 8
f 48/142/114 1/70/113 74/72/191 75/144/192
s 4
f 37/50/98 40/49/97 76/51/193 73/52/194
s 5
f 40/94/102 42/93/101 77/95/195 76/96/196
s 7
f 42/93/110 48/149/109 75/151/197 77/95/198
s 1
f 1/70/86 4/69/85 78/71/199 74/72/200
s 2
f 4/45/90 6/44/89 79/53/201 78/54/202
s 3
f 6/62/94 16/61/93 80/63/203 79/64/204
s 13
f 18/126/150 7/86/149 81/88/205 82/128/206
s 22
f 28/141/183 30/150/186 83/119/207 84/117/208
s 18
f 32/47/169 34/46/168 86/55/209 85/56/210
s 19
f 34/110/173 36/102/172 87/104/211 86/112/212
s 20
f 36/102/177 44/101/176 72/103/213 87/104/214
s 9
f 7/86/135 10/85/134 88/87/215 81/88/216
s 10
f 10/25/139 12/24/138 89/28/217 88/29/218
f 12/24/138 14/26/142 90/30/219 89/28/217
f 14/26/142 24/27/153 91/31/220 90/30/219
s 15
f 24/125/157 26/127/156 92/135/221 91/133/222
s 16
f 26/127/161 28/141/160 84/117/223 92/135/224
s 17
f 30/19/165 32/23/164 85/14/225 83/13/226
s 12
f 16/61/146 18/126/145 82/128/227 80/63/228
s off
f 93/157/229 94/158/230 96/159/231 95/160/232
f 95/160/233 96/159/234 98/161/235 97/162/236
f 97/162/237 98/161/238 100/163/239 99/164/240
f 99/164/241 100/163/242 94/158/243 93/157/244
f 94/158/245 100/163/246 98/161/247 96/159/248
f 99/164/249 93/157/250 95/160/251 97/162/252
