# This file uses centimeters as units for non-parametric coordinates.

mtllib house3_A.mtl
g default
v -59.608582 0.014766 30.754767
v 59.608582 0.014766 30.754767
v -59.608582 204.633967 30.754767
v 59.608582 204.633967 30.754767
v -59.608582 204.633967 -51.172997
v 59.608582 204.633967 -51.172997
v -59.608582 0.014766 -51.172997
v 59.608582 0.014766 -51.172997
v -59.608582 41.295993 30.754767
v -59.608582 41.295993 -51.172997
v 59.608582 41.295993 -51.172997
v 59.608582 41.295993 30.754767
v -41.857742 41.295993 30.754767
v -41.857742 0.014766 30.754767
v -41.857742 0.014766 -51.172997
v -41.857742 41.295993 -51.172997
v -41.857742 204.633967 -51.172997
v -41.857742 204.633967 30.754767
v 1.724747 41.295993 30.754767
v 1.724747 0.014766 30.754767
v 1.724747 0.014766 -51.172997
v 1.724747 41.295993 -51.172997
v 1.724747 204.633967 -51.172997
v 1.724747 204.633967 30.754767
v 1.724747 8.014403 30.754767
v 59.608582 8.014403 30.754767
v 59.608582 8.014403 -51.172997
v 1.724747 8.014403 -51.172997
v -41.857742 8.014403 -51.172997
v -59.608582 8.014403 -51.172997
v -59.608582 8.014403 30.754767
v -41.857742 8.014403 30.754767
v -41.857742 0.014766 39.055408
v 1.724747 0.014766 39.055408
v 1.724747 8.014403 39.055408
v -41.857742 8.014403 39.055408
v -41.857742 0.000003 39.055408
v 1.724747 0.000003 39.055408
v 1.724747 3.604884 39.055408
v -41.857742 3.604884 39.055408
v -41.857742 0.000003 44.332351
v 1.724747 0.000003 44.332351
v 1.724747 3.604884 44.332351
v -41.857742 3.604884 44.332351
v -41.857742 8.014403 21.621928
v 1.724747 8.014403 21.621928
v 1.724747 41.295993 21.621928
v -41.857742 41.295993 21.621928
v 1.724747 13.135337 30.754767
v 59.608582 13.135337 30.754767
v 59.608582 13.135337 -51.172997
v 1.724747 13.135337 -51.172997
v -41.857742 13.135337 -51.172997
v -59.608582 13.135337 -51.172997
v -59.608582 13.135337 30.754767
v -41.857742 13.135337 30.754767
v -41.857742 13.135337 21.621928
v 1.724747 13.135337 21.621928
v -41.669662 42.651603 51.172997
v 1.963303 42.651603 51.172997
v -41.669662 44.768725 51.172997
v 1.963303 44.768725 51.172997
v -41.669662 44.768725 25.900801
v 1.963303 44.768725 25.900801
v -41.669662 42.651603 25.900801
v 1.963303 42.651603 25.900801
v 1.856171 0.060646 42.754581
v 13.392654 0.060646 42.754581
v 1.856171 13.378646 42.754581
v 13.392654 13.378646 42.754581
v 1.856171 13.378646 31.715309
v 13.392654 13.378646 31.715309
v 1.856171 0.060646 31.715309
v 13.392654 0.060646 31.715309
v 8.306870 12.021785 36.264453
v 7.031326 12.021785 36.264453
v 6.393555 12.021785 37.369100
v 7.031326 12.021785 38.473746
v 8.306870 12.021785 38.473746
v 8.944641 12.021785 37.369100
v 8.306870 25.550719 36.264453
v 7.031326 25.550719 36.264453
v 6.393555 25.550719 37.369100
v 7.031326 25.550719 38.473746
v 8.306870 25.550719 38.473746
v 8.944641 25.550719 37.369100
v 4.731171 20.954417 40.313155
v 10.521393 20.954417 40.313155
v 4.731171 28.988517 40.313155
v 10.521393 28.988517 40.313155
v 4.731171 28.988517 34.332794
v 10.521393 28.988517 34.332794
v 4.731171 20.954417 34.332794
v 10.521393 20.954417 34.332794
v 7.626297 19.548449 41.359717
v 7.626297 30.394484 41.359717
v 7.626297 30.394484 33.286232
v 7.626297 19.548449 33.286232
v 3.717911 24.971467 41.359717
v 11.534683 24.971467 41.359717
v 3.717911 30.394484 37.322975
v 11.534683 30.394484 37.322975
v 3.717911 24.971467 33.286232
v 11.534683 24.971467 33.286232
v 3.717911 19.548449 37.322975
v 11.534683 19.548449 37.322975
v 7.626297 24.971467 42.705298
v 7.626297 32.202159 37.322975
v 7.626297 24.971467 31.940650
v 7.626297 17.740775 37.322975
v 12.837479 24.971467 37.322975
v 2.415115 24.971467 37.322975
v -50.836853 20.954417 40.313155
v -45.046631 20.954417 40.313155
v -50.836853 28.988517 40.313155
v -45.046631 28.988517 40.313155
v -50.836853 28.988517 34.332794
v -45.046631 28.988517 34.332794
v -50.836853 20.954417 34.332794
v -45.046631 20.954417 34.332794
v -47.941727 19.548449 41.359717
v -47.941727 30.394484 41.359717
v -47.941727 30.394484 33.286232
v -47.941727 19.548449 33.286232
v -51.850113 24.971467 41.359717
v -44.033340 24.971467 41.359717
v -51.850113 30.394484 37.322975
v -44.033340 30.394484 37.322975
v -51.850113 24.971467 33.286232
v -44.033340 24.971467 33.286232
v -51.850113 19.548449 37.322975
v -44.033340 19.548449 37.322975
v -47.941727 24.971467 42.705298
v -47.941727 32.202159 37.322975
v -47.941727 24.971467 31.940650
v -47.941727 17.740775 37.322975
v -42.730545 24.971467 37.322975
v -53.152908 24.971467 37.322975
v -47.261154 12.021785 36.264453
v -48.536697 12.021785 36.264453
v -49.174469 12.021785 37.369100
v -48.536697 12.021785 38.473746
v -47.261154 12.021785 38.473746
v -46.623383 12.021785 37.369100
v -47.261154 25.550719 36.264453
v -48.536697 25.550719 36.264453
v -49.174469 25.550719 37.369100
v -48.536697 25.550719 38.473746
v -47.261154 25.550719 38.473746
v -46.623383 25.550719 37.369100
v -53.711853 0.060646 42.754581
v -42.175369 0.060646 42.754581
v -53.711853 13.378646 42.754581
v -42.175369 13.378646 42.754581
v -53.711853 13.378646 31.715309
v -42.175369 13.378646 31.715309
v -53.711853 0.060646 31.715309
v -42.175369 0.060646 31.715309
vt 0.512949 0.088205
vt 0.659765 0.088205
vt 0.795450 0.066291
vt 0.892048 0.066291
vt 0.892048 0.204803
vt 0.795450 0.204803
vt 0.659765 0.138509
vt 0.512949 0.138509
vt 0.659765 0.088205
vt 0.512949 0.088205
vt 0.512949 0.138509
vt 0.659765 0.138509
vt 0.382242 0.139777
vt 0.282930 0.139777
vt 0.512949 0.430287
vt 0.659765 0.430287
vt 0.771751 0.291644
vt 0.282930 0.089473
vt 0.693094 0.066291
vt 0.722718 0.066291
vt 0.698917 0.291644
vt 0.382242 0.089473
vt 0.722718 0.204803
vt 0.693094 0.204803
vt 0.139557 0.088205
vt 0.659765 0.430287
vt 0.382242 0.431555
vt 0.512949 0.430287
vt 0.282930 0.431555
vt 0.487473 0.139777
vt 0.512949 0.064767
vt 0.457017 0.139777
vt 0.659765 0.064767
vt 0.160089 0.088205
vt 0.783747 0.233236
vt 0.851017 0.233236
vt 0.851017 0.233236
vt 0.783747 0.233236
vt 0.851017 0.269423
vt 0.851017 0.269423
vt 0.160089 0.138509
vt 0.139557 0.138509
vt 0.698917 0.304562
vt 0.771751 0.304562
vt 0.084471 0.138509
vt 0.659765 0.079057
vt 0.457017 0.089473
vt 0.512949 0.079057
vt 0.487473 0.089473
vt 0.487473 0.431555
vt 0.659765 0.064767
vt 0.457017 0.431555
vt 0.512949 0.064767
vt 0.084471 0.088205
vt 0.104173 0.088205
vt 0.104173 0.138509
vt 0.139557 0.079057
vt 0.260521 0.088205
vt 0.260521 0.138509
vt 0.160089 0.079057
vt 0.160090 0.430287
vt 0.260521 0.430287
vt 0.053673 0.088205
vt 0.104173 0.079057
vt 0.084472 0.079057
vt 0.053673 0.138509
vt 0.084471 0.430287
vt 0.053673 0.430287
vt 0.698878 0.235180
vt 0.771172 0.235180
vt 0.771172 0.285485
vt 0.698878 0.285485
vt 0.160090 0.064767
vt 0.260521 0.064767
vt 0.260521 0.079057
vt 0.160090 0.079057
vt 0.053673 0.064767
vt 0.084471 0.064767
vt 0.084471 0.079057
vt 0.053673 0.079057
vt 0.698878 0.226033
vt 0.771172 0.226033
vt 0.512949 0.079057
vt 0.659765 0.079057
vt 0.382242 0.080325
vt 0.282930 0.080325
vt 0.282930 0.066035
vt 0.382242 0.066035
vt 0.457017 0.080325
vt 0.457017 0.066035
vt 0.487473 0.080325
vt 0.487473 0.066035
vt 0.851017 0.247300
vt 0.851017 0.247300
vt 0.783747 0.269423
vt 0.783747 0.247300
vt 0.783747 0.269423
vt 0.783747 0.247300
vt 0.783747 0.247300
vt 0.851017 0.247300
vt 0.851017 0.247300
vt 0.783747 0.247300
vt 0.851017 0.293765
vt 0.783747 0.293765
vt 0.788311 0.234993
vt 0.845672 0.234993
vt 0.845672 0.234993
vt 0.788311 0.234993
vt 0.845672 0.292353
vt 0.788311 0.292353
vt 0.788311 0.292353
vt 0.845672 0.292353
vt 0.787778 0.237804
vt 0.846413 0.237804
vt 0.846413 0.237804
vt 0.787778 0.237804
vt 0.846413 0.290501
vt 0.787778 0.290501
vt 0.846413 0.290501
vt 0.787778 0.290501
vt 0.868867 0.238225
vt 0.870339 0.238225
vt 0.870339 0.291582
vt 0.868867 0.291582
vt 0.871811 0.238225
vt 0.871811 0.291582
vt 0.873283 0.238225
vt 0.873283 0.291582
vt 0.874755 0.238225
vt 0.874755 0.291582
vt 0.876227 0.238225
vt 0.876227 0.291582
vt 0.877700 0.238225
vt 0.877700 0.291582
vt 0.917767 0.242203
vt 0.929900 0.248437
vt 0.934147 0.266248
vt 0.917767 0.266248
vt 0.929900 0.284060
vt 0.917767 0.290294
vt 0.905635 0.284060
vt 0.901388 0.266248
vt 0.905635 0.248437
vt 0.934147 0.290294
vt 0.917767 0.298309
vt 0.929900 0.284060
vt 0.917767 0.290294
vt 0.905635 0.284060
vt 0.901388 0.290294
vt 0.934147 0.266248
vt 0.917767 0.266248
vt 0.929900 0.248437
vt 0.917767 0.242203
vt 0.905635 0.248437
vt 0.901388 0.266248
vt 0.934147 0.242203
vt 0.917767 0.234188
vt 0.901388 0.242203
vt 0.939606 0.266248
vt 0.895929 0.266248
vt 0.917767 0.242203
vt 0.929900 0.248437
vt 0.934147 0.266248
vt 0.917767 0.266248
vt 0.929900 0.284060
vt 0.917767 0.290294
vt 0.905635 0.284060
vt 0.901388 0.266248
vt 0.905635 0.248437
vt 0.934147 0.290294
vt 0.917767 0.298309
vt 0.929900 0.284060
vt 0.917767 0.290294
vt 0.905635 0.284060
vt 0.901388 0.290294
vt 0.934147 0.266248
vt 0.917767 0.266248
vt 0.929900 0.248437
vt 0.917767 0.242203
vt 0.905635 0.248437
vt 0.901388 0.266248
vt 0.934147 0.242203
vt 0.917767 0.234188
vt 0.901388 0.242203
vt 0.939606 0.266248
vt 0.895929 0.266248
vt 0.868867 0.238225
vt 0.870339 0.238225
vt 0.870339 0.291582
vt 0.868867 0.291582
vt 0.871811 0.238225
vt 0.871811 0.291582
vt 0.873283 0.238225
vt 0.873283 0.291582
vt 0.874755 0.238225
vt 0.874755 0.291582
vt 0.876227 0.238225
vt 0.876227 0.291582
vt 0.877700 0.238225
vt 0.877700 0.291582
vt 0.787778 0.237804
vt 0.846413 0.237804
vt 0.846413 0.237804
vt 0.787778 0.237804
vt 0.846413 0.290501
vt 0.787778 0.290501
vt 0.846413 0.290501
vt 0.787778 0.290501
vn 0.000000 0.000000 1.000000
vn 0.000000 0.000000 1.000000
vn 0.000000 0.000000 1.000000
vn 0.000000 0.000000 1.000000
vn 0.000000 1.000000 0.000000
vn 0.000000 1.000000 0.000000
vn 0.000000 1.000000 0.000000
vn 0.000000 1.000000 0.000000
vn 0.000000 0.000000 -1.000000
vn 0.000000 0.000000 -1.000000
vn 0.000000 0.000000 -1.000000
vn 0.000000 0.000000 -1.000000
vn 1.000000 0.000000 0.000000
vn 1.000000 0.000000 0.000000
vn 1.000000 0.000000 0.000000
vn 1.000000 0.000000 0.000000
vn -1.000000 0.000000 0.000000
vn -1.000000 0.000000 0.000000
vn -1.000000 0.000000 0.000000
vn -1.000000 0.000000 0.000000
vn -1.000000 0.000000 0.000000
vn -1.000000 0.000000 0.000000
vn 0.000000 0.000000 -1.000000
vn 0.000000 0.000000 -1.000000
vn 1.000000 0.000000 0.000000
vn 1.000000 0.000000 0.000000
vn 0.000000 0.000000 1.000000
vn 0.000000 0.000000 1.000000
vn 0.000000 0.000000 1.000000
vn 0.000000 0.000000 1.000000
vn 0.000000 0.000000 1.000000
vn 0.000000 0.000000 1.000000
vn 0.000000 0.000000 -1.000000
vn 0.000000 0.000000 -1.000000
vn 0.000000 0.000000 -1.000000
vn 0.000000 0.000000 -1.000000
vn 0.000000 0.000000 -1.000000
vn 0.000000 0.000000 -1.000000
vn 0.000000 1.000000 0.000000
vn 0.000000 1.000000 0.000000
vn 0.000000 1.000000 0.000000
vn 0.000000 1.000000 0.000000
vn 0.000000 0.000000 1.000000
vn 0.000000 0.000000 1.000000
vn 0.000000 0.000000 1.000000
vn 0.000000 0.000000 1.000000
vn 0.000000 0.000000 1.000000
vn 0.000000 0.000000 1.000000
vn 0.000000 0.000000 1.000000
vn 0.000000 0.000000 1.000000
vn 0.000000 0.000000 1.000000
vn 0.000000 0.000000 1.000000
vn 1.000000 0.000000 0.000000
vn 1.000000 0.000000 0.000000
vn 1.000000 0.000000 0.000000
vn 1.000000 0.000000 0.000000
vn 0.000000 0.000000 -1.000000
vn 0.000000 0.000000 -1.000000
vn 0.000000 0.000000 -1.000000
vn 0.000000 0.000000 -1.000000
vn 0.000000 0.000000 -1.000000
vn 0.000000 0.000000 -1.000000
vn 0.000000 0.000000 -1.000000
vn 0.000000 0.000000 -1.000000
vn -1.000000 0.000000 0.000000
vn -1.000000 0.000000 0.000000
vn -1.000000 0.000000 0.000000
vn -1.000000 0.000000 0.000000
vn 0.000000 0.000000 1.000000
vn 0.000000 0.000000 1.000000
vn 0.000000 0.000000 1.000000
vn 0.000000 0.000000 1.000000
vn 0.000000 0.000000 1.000000
vn 0.000000 0.000000 1.000000
vn 0.000000 0.000000 1.000000
vn 0.000000 0.000000 1.000000
vn 1.000000 0.000000 0.000000
vn 1.000000 0.000000 0.000000
vn 1.000000 0.000000 0.000000
vn 1.000000 0.000000 0.000000
vn 0.000000 1.000000 0.000000
vn 0.000000 1.000000 0.000000
vn 0.000000 1.000000 0.000000
vn 0.000000 1.000000 0.000000
vn -1.000000 0.000000 0.000000
vn -1.000000 0.000000 0.000000
vn -1.000000 0.000000 0.000000
vn -1.000000 0.000000 0.000000
vn 0.000000 0.000000 1.000000
vn 0.000000 0.000000 1.000000
vn 0.000000 0.000000 1.000000
vn 0.000000 0.000000 1.000000
vn 1.000000 0.000000 0.000000
vn 1.000000 0.000000 0.000000
vn 1.000000 0.000000 0.000000
vn 1.000000 0.000000 0.000000
vn 0.000000 1.000000 0.000000
vn 0.000000 1.000000 0.000000
vn 0.000000 1.000000 0.000000
vn 0.000000 1.000000 0.000000
vn -1.000000 0.000000 0.000000
vn -1.000000 0.000000 0.000000
vn -1.000000 0.000000 0.000000
vn -1.000000 0.000000 0.000000
vn 0.000000 1.000000 0.000000
vn 0.000000 1.000000 0.000000
vn -1.000000 0.000000 0.000000
vn -1.000000 0.000000 0.000000
vn -1.000000 0.000000 0.000000
vn -1.000000 0.000000 0.000000
vn 0.000000 -1.000000 0.000000
vn 0.000000 -1.000000 0.000000
vn 0.000000 -1.000000 0.000000
vn 0.000000 -1.000000 0.000000
vn 1.000000 0.000000 0.000000
vn 1.000000 0.000000 0.000000
vn 1.000000 0.000000 0.000000
vn 1.000000 0.000000 0.000000
vn 1.000000 0.000000 0.000000
vn 1.000000 0.000000 0.000000
vn 0.000000 0.000000 1.000000
vn 0.000000 0.000000 1.000000
vn -1.000000 0.000000 0.000000
vn -1.000000 0.000000 0.000000
vn 0.000000 0.000000 1.000000
vn 0.000000 0.000000 1.000000
vn 0.000000 0.000000 1.000000
vn 0.000000 0.000000 1.000000
vn 0.000000 1.000000 0.000000
vn 0.000000 1.000000 0.000000
vn 0.000000 1.000000 0.000000
vn 0.000000 1.000000 0.000000
vn 0.000000 -1.000000 0.000000
vn 0.000000 -1.000000 0.000000
vn 0.000000 -1.000000 0.000000
vn 0.000000 -1.000000 0.000000
vn 1.000000 0.000000 0.000000
vn 1.000000 0.000000 0.000000
vn 1.000000 0.000000 0.000000
vn 1.000000 0.000000 0.000000
vn -1.000000 0.000000 0.000000
vn -1.000000 0.000000 0.000000
vn -1.000000 0.000000 0.000000
vn -1.000000 0.000000 0.000000
vn 0.000000 0.000000 1.000000
vn 0.000000 0.000000 1.000000
vn 0.000000 0.000000 1.000000
vn 0.000000 0.000000 1.000000
vn 0.000000 1.000000 0.000000
vn 0.000000 1.000000 0.000000
vn 0.000000 1.000000 0.000000
vn 0.000000 1.000000 0.000000
vn 0.000000 0.000000 -1.000000
vn 0.000000 0.000000 -1.000000
vn 0.000000 0.000000 -1.000000
vn 0.000000 0.000000 -1.000000
vn 0.000000 -1.000000 0.000000
vn 0.000000 -1.000000 0.000000
vn 0.000000 -1.000000 0.000000
vn 0.000000 -1.000000 0.000000
vn 1.000000 0.000000 0.000000
vn 1.000000 0.000000 0.000000
vn 1.000000 0.000000 0.000000
vn 1.000000 0.000000 0.000000
vn -1.000000 0.000000 0.000000
vn -1.000000 0.000000 0.000000
vn -1.000000 0.000000 0.000000
vn -1.000000 0.000000 0.000000
vn 0.499999 0.000000 -0.866026
vn -0.499999 0.000000 -0.866026
vn -0.499999 0.000000 -0.866026
vn 0.499999 0.000000 -0.866026
vn -1.000000 0.000000 0.000000
vn -1.000000 0.000000 0.000000
vn -0.499999 0.000000 0.866026
vn -0.499999 0.000000 0.866026
vn 0.499999 0.000000 0.866026
vn 0.499999 0.000000 0.866026
vn 1.000000 0.000000 0.000000
vn 1.000000 0.000000 0.000000
vn 0.000001 -0.625995 0.779827
vn 0.626899 -0.483156 0.611194
vn 0.715183 0.000000 0.698937
vn 0.000001 0.000000 1.000000
vn 0.626899 0.483156 0.611194
vn 0.000001 0.625996 0.779827
vn -0.626899 0.483156 0.611193
vn -0.715184 0.000000 0.698936
vn -0.626899 -0.483156 0.611193
vn 0.786802 0.617206 0.000000
vn -0.000000 1.000000 0.000000
vn 0.626899 0.483156 -0.611194
vn -0.000000 0.625995 -0.779827
vn -0.626900 0.483156 -0.611194
vn -0.786802 0.617205 -0.000000
vn 0.715183 -0.000000 -0.698937
vn 0.000001 -0.000000 -1.000000
vn 0.626899 -0.483156 -0.611194
vn 0.000000 -0.625995 -0.779827
vn -0.626900 -0.483156 -0.611194
vn -0.715184 0.000000 -0.698936
vn 0.786802 -0.617206 0.000000
vn -0.000000 -1.000000 0.000000
vn -0.786802 -0.617205 -0.000000
vn 1.000000 0.000000 0.000000
vn -1.000000 0.000000 0.000000
vn 0.000000 -0.625995 0.779827
vn 0.626899 -0.483155 0.611194
vn 0.715183 -0.000000 0.698937
vn 0.000001 -0.000000 1.000000
vn 0.626899 0.483155 0.611194
vn -0.000000 0.625995 0.779827
vn -0.626899 0.483155 0.611194
vn -0.715184 0.000000 0.698936
vn -0.626899 -0.483155 0.611194
vn 0.786802 0.617205 0.000000
vn -0.000000 1.000000 0.000000
vn 0.626899 0.483156 -0.611194
vn 0.000000 0.625996 -0.779826
vn -0.626899 0.483156 -0.611193
vn -0.786802 0.617205 0.000000
vn 0.715183 -0.000000 -0.698937
vn 0.000001 -0.000000 -1.000000
vn 0.626899 -0.483156 -0.611194
vn 0.000000 -0.625996 -0.779826
vn -0.626899 -0.483156 -0.611193
vn -0.715184 0.000000 -0.698936
vn 0.786802 -0.617205 0.000000
vn -0.000000 -1.000000 0.000000
vn -0.786802 -0.617205 0.000000
vn 1.000000 0.000000 0.000000
vn -1.000000 0.000000 0.000000
vn 0.499999 0.000000 -0.866026
vn -0.499999 0.000000 -0.866026
vn -0.499999 0.000000 -0.866026
vn 0.499999 0.000000 -0.866026
vn -1.000000 0.000000 0.000000
vn -1.000000 0.000000 0.000000
vn -0.499999 0.000000 0.866026
vn -0.499999 0.000000 0.866026
vn 0.499999 0.000000 0.866026
vn 0.499999 0.000000 0.866026
vn 1.000000 0.000000 0.000000
vn 1.000000 0.000000 0.000000
vn 0.000000 0.000000 1.000000
vn 0.000000 0.000000 1.000000
vn 0.000000 0.000000 1.000000
vn 0.000000 0.000000 1.000000
vn 0.000000 1.000000 0.000000
vn 0.000000 1.000000 0.000000
vn 0.000000 1.000000 0.000000
vn 0.000000 1.000000 0.000000
vn 0.000000 0.000000 -1.000000
vn 0.000000 0.000000 -1.000000
vn 0.000000 0.000000 -1.000000
vn 0.000000 0.000000 -1.000000
vn 0.000000 -1.000000 0.000000
vn 0.000000 -1.000000 0.000000
vn 0.000000 -1.000000 0.000000
vn 0.000000 -1.000000 0.000000
vn 1.000000 0.000000 0.000000
vn 1.000000 0.000000 0.000000
vn 1.000000 0.000000 0.000000
vn 1.000000 0.000000 0.000000
vn -1.000000 0.000000 0.000000
vn -1.000000 0.000000 0.000000
vn -1.000000 0.000000 0.000000
vn -1.000000 0.000000 0.000000
s 1
g house3_A
usemtl lambert7SG
f 49/34/1 50/58/2 12/59/3 19/41/4
s 2
f 24/3/5 4/4/6 6/5/7 23/6/8
s 3
f 22/13/9 11/14/10 51/18/11 52/22/12
s 4
f 50/1/13 51/2/14 11/7/15 12/8/16
s 5
f 54/9/17 55/10/18 9/11/19 10/12/20
f 10/12/20 9/11/19 3/15/21 5/16/22
s 3
f 23/27/23 6/29/24 11/14/10 22/13/9
s 4
f 12/8/16 11/7/15 6/26/25 4/28/26
s 1
f 24/61/27 19/41/4 12/59/3 4/62/28
f 55/63/29 56/54/30 13/45/31 9/66/32
s 3
f 10/30/33 16/32/34 53/47/35 54/49/36
f 5/50/37 17/52/38 16/32/34 10/30/33
s 2
f 3/19/39 18/20/40 17/23/41 5/24/42
s 1
f 9/66/32 13/45/31 18/67/43 3/68/44
s 8
f 57/69/45 58/70/46 47/71/47 48/72/48
s 3
f 16/32/34 22/13/9 52/22/12 53/47/35
f 17/52/38 23/27/23 22/13/9 16/32/34
s 2
f 18/20/40 24/3/5 23/6/8 17/23/41
s 1
f 18/67/43 13/45/31 19/41/4 24/61/27
f 20/73/49 2/74/50 26/75/51 25/76/52
s 4
f 2/31/53 8/33/54 27/46/55 26/48/56
s 3
f 28/85/57 27/86/58 8/87/59 21/88/60
f 29/89/61 28/85/57 21/88/60 15/90/62
f 30/91/63 29/89/61 15/90/62 7/92/64
s 5
f 7/51/65 1/53/66 31/83/67 30/84/68
s 1
f 1/77/69 14/78/70 32/79/71 31/80/72
s off
f 41/35/73 42/36/74 43/37/75 44/38/76
f 20/39/77 25/40/78 35/93/79 34/94/80
s 9
f 25/40/81 32/95/82 36/96/83 35/93/84
s off
f 32/95/85 14/97/86 33/98/87 36/96/88
f 35/93/89 36/96/90 40/99/91 39/100/92
f 38/101/93 39/100/94 43/37/95 42/36/96
f 39/100/97 40/99/98 44/38/99 43/37/100
f 40/99/101 37/102/102 41/35/103 44/38/104
s 9
f 32/95/82 25/40/81 46/103/105 45/104/106
s 10
f 58/25/107 49/34/108 19/41/109 47/42/110
s off
f 19/17/111 13/21/112 48/43/113 47/44/114
s 11
f 13/45/115 56/54/116 57/55/117 48/56/118
s 1
f 25/76/52 26/75/51 50/58/2 49/34/1
s 4
f 26/48/56 27/46/55 51/2/14 50/1/13
s 3
f 52/22/12 51/18/11 27/86/58 28/85/57
f 53/47/35 52/22/12 28/85/57 29/89/61
f 54/49/36 53/47/35 29/89/61 30/91/63
s 5
f 30/84/68 31/83/67 55/10/18 54/9/17
s 1
f 31/80/72 32/79/71 56/54/30 55/63/29
s 11
f 57/55/117 56/54/116 32/65/119 45/64/120
s 8
f 45/81/121 46/82/122 58/70/46 57/69/45
s 10
f 25/60/123 49/34/108 58/25/107 46/57/124
s off
f 59/105/125 60/106/126 62/107/127 61/108/128
f 61/108/129 62/107/130 64/109/131 63/110/132
f 65/111/133 66/112/134 60/106/135 59/105/136
f 60/106/137 66/112/138 64/109/139 62/107/140
f 65/111/141 59/105/142 61/108/143 63/110/144
f 67/113/145 68/114/146 70/115/147 69/116/148
f 69/116/149 70/115/150 72/117/151 71/118/152
f 71/118/153 72/117/154 74/119/155 73/120/156
f 73/120/157 74/119/158 68/114/159 67/113/160
f 68/114/161 74/119/162 72/117/163 70/115/164
f 73/120/165 67/113/166 69/116/167 71/118/168
s 12
f 75/121/169 76/122/170 82/123/171 81/124/172
f 76/122/170 77/125/173 83/126/174 82/123/171
f 77/125/173 78/127/175 84/128/176 83/126/174
f 78/127/175 79/129/177 85/130/178 84/128/176
f 79/129/177 80/131/179 86/132/180 85/130/178
f 80/131/179 75/133/169 81/134/172 86/132/180
s 13
f 95/135/181 88/136/182 100/137/183 107/138/184
f 100/137/183 90/139/185 96/140/186 107/138/184
f 96/140/186 89/141/187 99/142/188 107/138/184
f 99/142/188 87/143/189 95/135/181 107/138/184
f 96/140/186 90/139/185 102/144/190 108/145/191
f 102/144/190 92/146/192 97/147/193 108/145/191
f 97/147/193 91/148/194 101/149/195 108/145/191
f 101/149/195 89/141/187 96/140/186 108/145/191
f 97/147/193 92/146/192 104/150/196 109/151/197
f 104/150/196 94/152/198 98/153/199 109/151/197
f 98/153/199 93/154/200 103/155/201 109/151/197
f 103/155/201 91/148/194 97/147/193 109/151/197
f 98/153/199 94/152/198 106/156/202 110/157/203
f 106/156/202 88/136/182 95/135/181 110/157/203
f 95/135/181 87/143/189 105/158/204 110/157/203
f 105/158/204 93/154/200 98/153/199 110/157/203
f 106/156/202 94/152/198 104/150/196 111/159/205
f 104/150/196 92/146/192 102/144/190 111/159/205
f 102/144/190 90/139/185 100/137/183 111/159/205
f 100/137/183 88/136/182 106/156/202 111/159/205
f 105/158/204 87/143/189 99/142/188 112/160/206
f 99/142/188 89/141/187 101/149/195 112/160/206
f 101/149/195 91/148/194 103/155/201 112/160/206
f 103/155/201 93/154/200 105/158/204 112/160/206
s 14
f 121/161/207 114/162/208 126/163/209 133/164/210
f 126/163/209 116/165/211 122/166/212 133/164/210
f 122/166/212 115/167/213 125/168/214 133/164/210
f 125/168/214 113/169/215 121/161/207 133/164/210
f 122/166/212 116/165/211 128/170/216 134/171/217
f 128/170/216 118/172/218 123/173/219 134/171/217
f 123/173/219 117/174/220 127/175/221 134/171/217
f 127/175/221 115/167/213 122/166/212 134/171/217
f 123/173/219 118/172/218 130/176/222 135/177/223
f 130/176/222 120/178/224 124/179/225 135/177/223
f 124/179/225 119/180/226 129/181/227 135/177/223
f 129/181/227 117/174/220 123/173/219 135/177/223
f 124/179/225 120/178/224 132/182/228 136/183/229
f 132/182/228 114/162/208 121/161/207 136/183/229
f 121/161/207 113/169/215 131/184/230 136/183/229
f 131/184/230 119/180/226 124/179/225 136/183/229
f 132/182/228 120/178/224 130/176/222 137/185/231
f 130/176/222 118/172/218 128/170/216 137/185/231
f 128/170/216 116/165/211 126/163/209 137/185/231
f 126/163/209 114/162/208 132/182/228 137/185/231
f 131/184/230 113/169/215 125/168/214 138/186/232
f 125/168/214 115/167/213 127/175/221 138/186/232
f 127/175/221 117/174/220 129/181/227 138/186/232
f 129/181/227 119/180/226 131/184/230 138/186/232
s 15
f 139/187/233 140/188/234 146/189/235 145/190/236
f 140/188/234 141/191/237 147/192/238 146/189/235
f 141/191/237 142/193/239 148/194/240 147/192/238
f 142/193/239 143/195/241 149/196/242 148/194/240
f 143/195/241 144/197/243 150/198/244 149/196/242
f 144/197/243 139/199/233 145/200/236 150/198/244
s off
f 151/201/245 152/202/246 154/203/247 153/204/248
f 153/204/249 154/203/250 156/205/251 155/206/252
f 155/206/253 156/205/254 158/207/255 157/208/256
f 157/208/257 158/207/258 152/202/259 151/201/260
f 152/202/261 158/207/262 156/205/263 154/203/264
f 157/208/265 151/201/266 153/204/267 155/206/268
