# This file uses centimeters as units for non-parametric coordinates.

mtllib wall3.mtl
g default
v -52.248962 0.000229 0.000001
v 52.248962 0.000229 0.000001
v -52.248962 225.756348 -0.000149
v 52.248962 225.756348 -0.000149
vt 0.514918 0.538853
vt 0.724878 0.538853
vt 0.724878 0.992640
vt 0.514918 0.992640
vn 0.000000 0.000001 1.000000
vn 0.000000 0.000001 1.000000
vn 0.000000 0.000001 1.000000
vn 0.000000 0.000001 1.000000
s off
g wall3 polySurface157
usemtl lambert19SG
f 1/1/1 2/2/2 4/3/3 3/4/4
