# This file uses centimeters as units for non-parametric coordinates.

mtllib wall6.mtl
g default
v -52.248962 0.000229 0.000001
v 52.248962 0.000229 0.000001
v -52.248962 225.756348 -0.000149
v 52.248962 225.756348 -0.000149
vt 0.268868 0.031149
vt 0.478829 0.031149
vt 0.478829 0.484936
vt 0.268868 0.484936
vn 0.000000 0.000001 1.000000
vn 0.000000 0.000001 1.000000
vn 0.000000 0.000001 1.000000
vn 0.000000 0.000001 1.000000
s off
g wall6 polySurface157
usemtl lambert19SG
f 1/1/1 2/2/2 4/3/3 3/4/4
