# This file uses centimeters as units for non-parametric coordinates.

mtllib wall_night3.mtl
g default
v -52.248962 -0.000335 -0.000594
v 52.248962 -0.000335 -0.000594
v -52.248962 225.755783 0.000594
v 52.248962 225.755783 0.000594
vt 0.514918 0.538853
vt 0.724878 0.538853
vt 0.724878 0.992640
vt 0.514918 0.992640
vn 0.000000 -0.000005 1.000000
vn 0.000000 -0.000005 1.000000
vn 0.000000 -0.000005 1.000000
vn 0.000000 -0.000005 1.000000
s off
g wall_night3 polySurface158
usemtl lambert18SG
f 1/1/1 2/2/2 4/3/3 3/4/4
