# This file uses centimeters as units for non-parametric coordinates.

mtllib warehouse_7.mtl
g default
v 15.268684 -0.001569 15.772408
v 15.268684 -0.001569 -17.857750
v 15.268684 28.170203 15.772408
v 15.268684 28.170203 -17.857750
v -15.268700 28.170203 15.772408
v -15.268700 28.170203 -17.857750
v -15.268700 -0.001569 15.772408
v -15.268700 -0.001569 -17.857750
v 13.340401 18.269038 20.306648
v 13.340401 18.269038 10.469429
v 13.340401 25.887953 10.469429
v -13.340416 25.887953 10.469429
v -13.340416 18.269038 20.306648
v -13.340416 18.269038 10.469429
v 13.340401 23.440793 20.306648
v -13.340416 23.440793 20.306648
v -13.340416 23.440793 10.469429
v 13.340401 23.440793 10.469429
v 13.340401 25.887953 17.894936
v -13.340416 25.887953 17.894936
v -13.340416 23.440793 17.894936
v -13.340416 18.269038 17.894936
v 13.340401 18.269038 17.894936
v 13.340401 23.440793 17.894936
v 17.492393 26.494929 18.221306
v 17.492393 26.494929 -20.306648
v 17.492393 28.530825 18.221306
v 17.492393 28.530825 -20.306648
v -17.492393 28.530825 18.221306
v -17.492393 28.530825 -20.306648
v -17.492393 26.494929 18.221306
v -17.492393 26.494929 -20.306648
vt 0.750912 0.027509
vt 0.975622 0.027509
vt 0.975622 0.229562
vt 0.750912 0.229562
vt 0.975622 0.229562
vt 0.750912 0.229562
vt 0.750912 0.027509
vt 0.975622 0.027509
vt 0.522038 0.027509
vt 0.730751 0.027509
vt 0.730751 0.229562
vt 0.522038 0.229562
vt 0.522038 0.027509
vt 0.730751 0.027509
vt 0.730751 0.229562
vt 0.522038 0.229562
vt 0.981862 0.027841
vt 0.982633 0.027841
vt 0.982633 0.028686
vt 0.981862 0.028686
vt 0.981862 0.031747
vt 0.982633 0.031747
vt 0.982633 0.032593
vt 0.981862 0.032593
vt 0.982633 0.034177
vt 0.981862 0.034177
vt 0.984043 0.027841
vt 0.986224 0.027841
vt 0.986224 0.028686
vt 0.984043 0.028686
vt 0.979682 0.027841
vt 0.979682 0.028686
vt 0.982633 0.031009
vt 0.982633 0.029425
vt 0.986224 0.029425
vt 0.984043 0.029425
vt 0.984043 0.031009
vt 0.984043 0.031747
vt 0.984043 0.032593
vt 0.984043 0.034177
vt 0.981862 0.027841
vt 0.984043 0.027841
vt 0.984043 0.029425
vt 0.981862 0.029425
vt 0.984043 0.031009
vt 0.981862 0.031009
vt 0.984043 0.032593
vt 0.981862 0.032593
vt 0.984043 0.034177
vt 0.981862 0.034177
vt 0.986224 0.027841
vt 0.986224 0.029425
vt 0.979682 0.027841
vt 0.979682 0.029425
vn 1.000000 0.000000 0.000000
vn 1.000000 0.000000 0.000000
vn 1.000000 0.000000 0.000000
vn 1.000000 0.000000 0.000000
vn -1.000000 0.000000 0.000000
vn -1.000000 0.000000 0.000000
vn -1.000000 0.000000 0.000000
vn -1.000000 0.000000 0.000000
vn 0.000000 0.000000 -1.000000
vn 0.000000 0.000000 -1.000000
vn 0.000000 0.000000 -1.000000
vn 0.000000 0.000000 -1.000000
vn 0.000000 0.000000 1.000000
vn 0.000000 0.000000 1.000000
vn 0.000000 0.000000 1.000000
vn 0.000000 0.000000 1.000000
vn 1.000000 0.000000 0.000000
vn 1.000000 0.000000 0.000000
vn 1.000000 0.000000 0.000000
vn 1.000000 0.000000 0.000000
vn -1.000000 0.000000 0.000000
vn -1.000000 0.000000 0.000000
vn -1.000000 0.000000 0.000000
vn -1.000000 0.000000 0.000000
vn 0.000000 -1.000000 0.000000
vn 0.000000 -1.000000 0.000000
vn 0.000000 -1.000000 0.000000
vn 0.000000 -1.000000 0.000000
vn 0.000000 0.000000 -1.000000
vn 0.000000 0.000000 -1.000000
vn 0.000000 0.000000 -1.000000
vn 0.000000 0.000000 -1.000000
vn 0.000000 0.000000 1.000000
vn 0.000000 0.000000 1.000000
vn 0.000000 0.379311 0.925269
vn 0.000000 0.379311 0.925269
vn 0.000000 0.922477 0.386051
vn 0.000000 0.922477 0.386051
vn -1.000000 0.000000 0.000000
vn 0.000000 0.000000 -1.000000
vn 0.000000 0.000000 -1.000000
vn 1.000000 0.000000 0.000000
vn 0.000000 1.000000 0.000000
vn 0.000000 1.000000 0.000000
vn -1.000000 0.000000 0.000000
vn -1.000000 0.000000 0.000000
vn -1.000000 0.000000 0.000000
vn 0.000000 -1.000000 0.000000
vn 0.000000 -1.000000 0.000000
vn 1.000000 0.000000 0.000000
vn 1.000000 0.000000 0.000000
vn 1.000000 0.000000 0.000000
vn 1.000000 0.000000 0.000000
vn 1.000000 0.000000 0.000000
vn 1.000000 0.000000 0.000000
vn 1.000000 0.000000 0.000000
vn 0.000000 1.000000 0.000000
vn 0.000000 1.000000 0.000000
vn 0.000000 1.000000 0.000000
vn 0.000000 1.000000 0.000000
vn -1.000000 0.000000 0.000000
vn -1.000000 0.000000 0.000000
vn -1.000000 0.000000 0.000000
vn -1.000000 0.000000 0.000000
vn 0.000000 -1.000000 0.000000
vn 0.000000 -1.000000 0.000000
vn 0.000000 -1.000000 0.000000
vn 0.000000 -1.000000 0.000000
vn 0.000000 0.000000 -1.000000
vn 0.000000 0.000000 -1.000000
vn 0.000000 0.000000 -1.000000
vn 0.000000 0.000000 -1.000000
vn 0.000000 0.000000 1.000000
vn 0.000000 0.000000 1.000000
vn 0.000000 0.000000 1.000000
vn 0.000000 0.000000 1.000000
s off
g warehouse_7
usemtl lambert21SG
f 1/1/1 2/2/2 4/3/3 3/4/4
f 5/5/5 6/6/6 8/7/7 7/8/8
f 2/9/9 8/10/10 6/11/11 4/12/12
f 7/13/13 1/14/14 3/15/15 5/16/16
s 1
f 9/17/17 23/18/18 24/19/19 15/20/20
s 2
f 16/21/21 21/22/22 22/23/23 13/24/24
s 3
f 13/24/25 22/23/26 23/25/27 9/26/28
s 4
f 10/27/29 14/28/30 17/29/31 18/30/32
s 5
f 13/31/33 9/17/34 15/20/35 16/32/36
f 20/33/37 16/32/36 15/20/35 19/34/38
s 2
f 20/33/39 21/22/22 16/21/21
s 4
f 18/30/32 17/29/31 12/35/40 11/36/41
s 1
f 15/20/20 24/19/19 19/34/42
s 5
f 19/34/38 11/36/43 12/37/44 20/33/37
s 2
f 21/22/22 20/33/39 12/37/45 17/38/46
f 22/23/23 21/22/22 17/38/46 14/39/47
s 3
f 23/25/27 22/23/26 14/39/48 10/40/49
s 1
f 24/19/19 23/18/18 10/27/50 18/30/51
f 19/34/42 24/19/19 18/30/51 11/36/52
s off
f 25/41/53 26/42/54 28/43/55 27/44/56
f 27/44/57 28/43/58 30/45/59 29/46/60
f 29/46/61 30/45/62 32/47/63 31/48/64
f 31/48/65 32/47/66 26/49/67 25/50/68
f 26/42/69 32/51/70 30/52/71 28/43/72
f 31/53/73 25/41/74 27/44/75 29/54/76
