# This file uses centimeters as units for non-parametric coordinates.

mtllib board_vertical3.mtl
g default
v 0.000000 21.392441 0.000000
v 18.610107 21.392441 0.000000
v 0.000000 22.873230 0.000000
v 18.610107 22.873230 0.000000
v 0.000000 22.873230 -1.465889
v 18.610107 22.873230 -1.465889
v 0.000000 21.392441 -1.465889
v 18.610107 21.392441 -1.465889
v 0.000000 -1.480789 0.000000
v 18.610107 -1.480789 0.000000
v 0.000000 0.000000 0.000000
v 18.610107 0.000000 0.000000
v 0.000000 0.000000 -1.465889
v 18.610107 0.000000 -1.465889
v 0.000000 -1.480789 -1.465889
v 18.610107 -1.480789 -1.465889
vt 0.015518 0.235153
vt 0.018422 0.235153
vt 0.018422 0.238057
vt 0.015518 0.238057
vt 0.018422 0.240960
vt 0.015518 0.240960
vt 0.018422 0.243864
vt 0.015518 0.243864
vt 0.018422 0.246768
vt 0.015518 0.246768
vt 0.021326 0.235153
vt 0.021326 0.238057
vt 0.012614 0.235153
vt 0.012614 0.238057
vt 0.015518 0.235153
vt 0.018422 0.235153
vt 0.018422 0.238057
vt 0.015518 0.238057
vt 0.018422 0.240960
vt 0.015518 0.240960
vt 0.018422 0.243864
vt 0.015518 0.243864
vt 0.018422 0.246768
vt 0.015518 0.246768
vt 0.021326 0.235153
vt 0.021326 0.238057
vt 0.012614 0.235153
vt 0.012614 0.238057
vn 0.000000 0.000000 1.000000
vn 0.000000 0.000000 1.000000
vn 0.000000 0.000000 1.000000
vn 0.000000 0.000000 1.000000
vn 0.000000 1.000000 0.000000
vn 0.000000 1.000000 0.000000
vn 0.000000 1.000000 0.000000
vn 0.000000 1.000000 0.000000
vn 0.000000 0.000000 -1.000000
vn 0.000000 0.000000 -1.000000
vn 0.000000 0.000000 -1.000000
vn 0.000000 0.000000 -1.000000
vn 0.000000 -1.000000 0.000000
vn 0.000000 -1.000000 0.000000
vn 0.000000 -1.000000 0.000000
vn 0.000000 -1.000000 0.000000
vn 1.000000 0.000000 0.000000
vn 1.000000 0.000000 0.000000
vn 1.000000 0.000000 0.000000
vn 1.000000 0.000000 0.000000
vn -1.000000 0.000000 0.000000
vn -1.000000 0.000000 0.000000
vn -1.000000 0.000000 0.000000
vn -1.000000 0.000000 0.000000
vn 0.000000 0.000000 1.000000
vn 0.000000 0.000000 1.000000
vn 0.000000 0.000000 1.000000
vn 0.000000 0.000000 1.000000
vn 0.000000 1.000000 0.000000
vn 0.000000 1.000000 0.000000
vn 0.000000 1.000000 0.000000
vn 0.000000 1.000000 0.000000
vn 0.000000 0.000000 -1.000000
vn 0.000000 0.000000 -1.000000
vn 0.000000 0.000000 -1.000000
vn 0.000000 0.000000 -1.000000
vn 0.000000 -1.000000 0.000000
vn 0.000000 -1.000000 0.000000
vn 0.000000 -1.000000 0.000000
vn 0.000000 -1.000000 0.000000
vn 1.000000 0.000000 0.000000
vn 1.000000 0.000000 0.000000
vn 1.000000 0.000000 0.000000
vn 1.000000 0.000000 0.000000
vn -1.000000 0.000000 0.000000
vn -1.000000 0.000000 0.000000
vn -1.000000 0.000000 0.000000
vn -1.000000 0.000000 0.000000
s off
g board_vertical3
usemtl lambert14SG
f 1/1/1 2/2/2 4/3/3 3/4/4
f 3/4/5 4/3/6 6/5/7 5/6/8
f 5/6/9 6/5/10 8/7/11 7/8/12
f 7/8/13 8/7/14 2/9/15 1/10/16
f 2/2/17 8/11/18 6/12/19 4/3/20
f 7/13/21 1/1/22 3/4/23 5/14/24
f 9/15/25 10/16/26 12/17/27 11/18/28
f 11/18/29 12/17/30 14/19/31 13/20/32
f 13/20/33 14/19/34 16/21/35 15/22/36
f 15/22/37 16/21/38 10/23/39 9/24/40
f 10/16/41 16/25/42 14/26/43 12/17/44
f 15/27/45 9/15/46 11/18/47 13/28/48
g default
v 6.196704 -7.399989 1.371529
v 21.027499 -7.399989 1.371529
v 6.196704 28.389949 1.371529
v 21.027499 28.389949 1.371529
v 6.196704 28.389949 -3.229842
v 21.027499 28.389949 -3.229842
v 6.196704 -7.399989 -3.229842
v 21.027499 -7.399989 -3.229842
vt 0.699629 0.825691
vt 0.768741 0.825691
vt 0.768741 0.996729
vt 0.699629 0.996729
vt 0.768741 0.996729
vt 0.699629 0.996729
vt 0.768741 0.825691
vt 0.699629 0.825691
vn 0.000000 0.000000 1.000000
vn 0.000000 0.000000 1.000000
vn 0.000000 0.000000 1.000000
vn 0.000000 0.000000 1.000000
vn 0.000000 1.000000 0.000000
vn 0.000000 1.000000 0.000000
vn 0.000000 1.000000 0.000000
vn 0.000000 1.000000 0.000000
vn 0.000000 0.000000 -1.000000
vn 0.000000 0.000000 -1.000000
vn 0.000000 0.000000 -1.000000
vn 0.000000 0.000000 -1.000000
vn 0.000000 -1.000000 0.000000
vn 0.000000 -1.000000 0.000000
vn 0.000000 -1.000000 0.000000
vn 0.000000 -1.000000 0.000000
vn 1.000000 0.000000 0.000000
vn 1.000000 0.000000 0.000000
vn 1.000000 0.000000 0.000000
vn 1.000000 0.000000 0.000000
vn -1.000000 0.000000 0.000000
vn -1.000000 0.000000 0.000000
vn -1.000000 0.000000 0.000000
vn -1.000000 0.000000 0.000000
s off
g board_vertical3 polySurface126
usemtl lambert14SG
f 17/29/49 18/30/50 20/31/51 19/32/52
f 19/32/53 20/31/54 22/33/55 21/34/56
f 21/34/57 22/33/58 24/35/59 23/36/60
f 23/36/61 24/35/62 18/30/63 17/29/64
f 18/30/65 24/35/66 22/33/67 20/31/68
f 23/36/69 17/29/70 19/32/71 21/34/72
